<?xml version="1.0" standalone="no"?>
<!DOCTYPE svg PUBLIC "-//W3C//DTD SVG 1.1//EN" "http://www.w3.org/Graphics/SVG/1.1/DTD/svg11.dtd" >
<svg xmlns="http://www.w3.org/2000/svg" xmlns:xlink="http://www.w3.org/1999/xlink" version="1.1">
<metadata>
Created by FontForge 20170731 at Fri Aug 26 00:01:49 2011
 By Aleksey,,,
Copyright (c) 2011 by TypeTogether. All rights reserved.
</metadata>
<defs>
<font id="AbrilText-SemiBoldItalic" horiz-adv-x="600" >
  <font-face 
    font-family="Abril Text SB"
    font-weight="600"
    font-style="italic"
    font-stretch="normal"
    units-per-em="1000"
    panose-1="2 0 5 3 7 0 0 9 0 4"
    ascent="780"
    descent="-220"
    x-height="506"
    cap-height="700"
    bbox="-205 -290 1975 1087"
    underline-thickness="45"
    underline-position="-190"
    slope="-9.5"
    unicode-range="U+0020-FB06"
  />
<missing-glyph horiz-adv-x="200" 
 />
    <glyph glyph-name="ij" unicode="ij" horiz-adv-x="580" 
d="M184 589q-65 0 -65 59q0 37 24 61.5t63 24.5q64 0 64 -61q0 -37 -23.5 -60.5t-62.5 -23.5zM240 84l27 -27q-47 -68 -123 -68q-103 0 -103 95q0 31 21 126q49 212 52 223l-77 8l8 52l193 9l4 -8q-78 -348 -83 -379q-10 -59 31 -59q25 0 50 28zM233 -120l-42 -6
q-3 -9 -3 -15q0 -25 40 -25q43 0 62.5 37t34.5 124l77 439l-76 6l9 53l189 9l4 -10l-77 -442q-21 -121 -74 -191t-154 -70q-59 0 -92 24.5t-33 66.5q0 37 21.5 60.5t59.5 23.5q26 0 42 -15t16 -41q0 -15 -4 -28zM472 589q-64 0 -64 59q0 37 23.5 61.5t62.5 24.5q64 0 64 -61
q0 -37 -23.5 -60.5t-62.5 -23.5z" />
    <glyph glyph-name="ff" unicode="ff" horiz-adv-x="670" 
d="M340 -24l87 461h-198l-77 -411q-22 -117 -76.5 -177.5t-151.5 -60.5q-62 0 -95.5 27t-33.5 68q0 36 22 59.5t60 23.5q28 0 43.5 -15t15.5 -40q0 -17 -5 -31l-39 -6q-4 -8 -4 -16q0 -24 38 -24q48 0 67 31.5t30 93.5l89 478h-76l11 62h76l7 33q24 110 80.5 165t155.5 55
q53 0 91 -21.5t55 -59.5q66 101 171 101q61 0 94 -28.5t33 -72.5q0 -36 -21.5 -59t-58.5 -23q-28 0 -43.5 15.5t-15.5 39.5q0 14 6 30l35 4q6 12 6 22q0 25 -41 25q-45 0 -68.5 -34t-34.5 -94l-18 -98h142l-12 -62h-142l-82 -439q-40 -213 -243 -210l-8 46q61 13 89.5 47
t39.5 95zM241 499h200l32 76l-3 3q-14 -5 -26 -5q-26 0 -38 15t-12 36q0 14 6 30l37 4q5 12 5 17q0 30 -66 30q-56 0 -81.5 -34t-37.5 -94z" />
    <glyph glyph-name="fi" unicode="fi" horiz-adv-x="598" 
d="M540 84l27 -27q-47 -68 -123 -68q-103 0 -103 95q0 31 21 126q49 214 52 227h-185l-77 -411q-22 -117 -76.5 -177.5t-151.5 -60.5q-62 0 -95.5 26.5t-33.5 66.5q0 37 22 61t60 24q28 0 43.5 -15t15.5 -40q0 -17 -5 -31l-39 -6q-5 -9 -5 -18q0 -26 39 -26q25 0 43 10
t28 31t15 39t11 49l89 478h-76l11 62h76l9 47q21 108 88 167t168 59q62 0 99.5 -29t37.5 -72q0 -36 -21.5 -59t-58.5 -23q-28 0 -43.5 15.5t-15.5 39.5q0 14 6 30l35 4q6 12 6 22q0 25 -51 25q-47 0 -80 -37t-43 -91l-18 -98h138l159 3l4 -8q-78 -348 -83 -379
q-10 -59 31 -59q25 0 50 28z" />
    <glyph glyph-name="fl" unicode="fl" horiz-adv-x="626" 
d="M23 -41l89 478h-76l11 62h76l7 33q52 240 238 240q52 0 84 -22t40 -58l111 59l6 -8q-61 -284 -121 -628q-11 -59 31 -59q23 0 50 28l27 -27q-47 -68 -124 -68q-47 0 -75 24.5t-28 72.5q0 12 1.5 27.5t6 40.5t8.5 45t11.5 60t12.5 67l36 189l42 106l-5 3q-22 -35 -67 -35
q-28 0 -43.5 15.5t-15.5 39.5q0 14 6 30l35 4q6 12 6 22q0 25 -41 25q-45 0 -68.5 -34t-34.5 -94l-18 -98h142l-12 -62h-142l-77 -411q-22 -117 -76.5 -177.5t-151.5 -60.5q-63 0 -96 26t-33 66q0 37 22 61t60 24q28 0 43.5 -15t15.5 -40q0 -17 -5 -31l-39 -6q-5 -12 -5 -18
q0 -26 42 -26q24 0 41 10t27.5 31.5t15 39.5t10.5 49z" />
    <glyph glyph-name="ffi" unicode="ffi" horiz-adv-x="910" 
d="M726 437h-182l-82 -439q-40 -213 -243 -210l-8 46q61 13 89.5 47t39.5 95l87 461h-198l-77 -411q-22 -117 -76.5 -177.5t-151.5 -60.5q-62 0 -95.5 27t-33.5 68q0 36 22 59.5t60 23.5q28 0 43.5 -15t15.5 -40q0 -17 -5 -31l-39 -6q-4 -8 -4 -15q0 -25 38 -25
q48 0 67 31.5t30 93.5l89 478h-76l11 62h76l7 33q24 110 80.5 165t155.5 55q53 0 91 -21.5t55 -59.5q30 46 80.5 73.5t110.5 27.5q62 0 98 -29t36 -72q0 -36 -21.5 -59t-58.5 -23q-28 0 -43.5 15.5t-15.5 39.5q0 14 6 30l35 4q6 12 6 22q0 25 -48 25t-80 -35t-43 -93
l-18 -98h131l163 3l4 -8q-78 -348 -83 -379q-10 -59 31 -59q25 0 50 28l27 -27q-47 -68 -123 -68q-103 0 -103 95q0 31 21 126q49 214 52 227zM241 499h200l32 76l-3 3q-14 -5 -26 -5q-26 0 -38 15t-12 36q0 14 6 30l37 4q5 12 5 17q0 30 -66 30q-56 0 -81.5 -34t-37.5 -94z
" />
    <glyph glyph-name="ffl" unicode="ffl" horiz-adv-x="942" 
d="M798 624q-22 -35 -68 -35q-28 0 -43.5 15.5t-15.5 39.5q0 14 6 30l35 4q6 12 6 22q0 25 -41 25q-45 0 -68.5 -34t-34.5 -94l-18 -98h142l-12 -62h-142l-82 -439q-40 -213 -243 -210l-8 46q61 13 89.5 47t39.5 95l87 461h-198l-77 -411q-22 -117 -76.5 -177.5
t-151.5 -60.5q-62 0 -95.5 27t-33.5 68q0 36 22 59.5t60 23.5q28 0 43.5 -15t15.5 -40q0 -17 -5 -31l-39 -6q-4 -8 -4 -15q0 -25 38 -25q48 0 67 31.5t30 93.5l89 478h-76l11 62h76l7 33q24 110 80.5 165t155.5 55q53 0 91 -21.5t55 -59.5q66 101 171 101q53 0 85 -22.5
t40 -58.5l111 60l6 -8q-61 -284 -121 -628q-11 -59 31 -59q23 0 50 28l27 -27q-47 -68 -124 -68q-47 0 -75 24.5t-28 72.5q0 12 1.5 27.5t6 40.5t8.5 45t11.5 60t12.5 67l36 189l42 106zM241 499h200l32 76l-3 3q-14 -5 -26 -5q-26 0 -38 15t-12 36q0 14 6 30l37 4
q5 12 5 17q0 30 -66 30q-56 0 -81.5 -34t-37.5 -94z" />
    <glyph glyph-name="f_k" unicode="fk" horiz-adv-x="877" 
d="M818 89l29 -28q-20 -29 -54 -50.5t-75 -21.5q-51 0 -77 22.5t-26 61.5q0 20 6 41l16 57q3 12 3 21q0 42 -50 42q-38 0 -82 -23l-35 -207q-71 0 -121 -13l50 222l47 302l38 106l-5 3q-22 -35 -67 -35q-28 0 -43.5 15.5t-15.5 39.5q0 14 6 30l35 4q6 12 6 22q0 25 -41 25
q-45 0 -68.5 -34t-34.5 -94l-18 -98h142l-12 -62h-142l-77 -411q-22 -117 -76.5 -177.5t-151.5 -60.5q-63 0 -96 25.5t-33 65.5q0 37 22 61t60 24q28 0 43.5 -15t15.5 -40q0 -17 -5 -31l-39 -6q-4 -8 -4 -17q0 -26 41 -26q24 0 41 10t27.5 31.5t15 39.5t10.5 49l89 478h-76
l11 62h76l7 33q52 240 238 240q52 0 84 -22t40 -58l111 59l6 -8l-93 -471l87 50q37 21 50 29t31 21t22.5 22.5t3.5 21.5l-38 14q-4 35 17 61t60 26q33 0 51.5 -20.5t18.5 -47.5q0 -55 -66 -92q-111 -61 -153 -82l3 -5q33 5 54 5q96 0 96 -75q0 -17 -6 -38l-14 -52
q-4 -18 -4 -23q0 -31 34 -31q28 0 55 33z" />
    <glyph glyph-name="f_b" unicode="fb" horiz-adv-x="903" 
d="M23 -41l89 478h-76l11 62h76l7 33q52 240 238 240q52 0 84 -22t40 -58l111 59l6 -8l-88 -375l6 -1q68 143 195 143q66 0 101 -47.5t35 -132.5q0 -86 -31.5 -162t-98.5 -127.5t-155 -51.5q-180 0 -180 173q0 70 24 188l31 162l39 109l-5 3q-22 -35 -67 -35
q-28 0 -43.5 15.5t-15.5 39.5q0 14 6 30l35 4q6 12 6 22q0 25 -41 25q-45 0 -68.5 -34t-34.5 -94l-18 -98h142l-12 -62h-142l-77 -411q-22 -117 -76.5 -177.5t-151.5 -60.5q-63 0 -96 25.5t-33 66.5q0 37 22 60.5t60 23.5q28 0 43.5 -15t15.5 -40q0 -17 -5 -31l-39 -6
q-4 -14 -4 -18q0 -25 41 -25q24 0 41 10t27.5 31.5t15 39.5t10.5 49zM583 44q39 0 69.5 29t47.5 75t26 97t9 102q0 46 -13 70.5t-47 24.5q-64 0 -116.5 -100t-52.5 -202q0 -96 77 -96z" />
    <glyph glyph-name="f_h" unicode="fh" horiz-adv-x="924" 
d="M859 86l29 -30q-48 -67 -126 -67q-45 0 -71.5 23.5t-26.5 67.5q0 25 7 60.5t14.5 62.5t22.5 78t22 77q9 30 9 49q0 37 -34 37q-47 0 -99 -72.5t-75 -149.5q-28 -93 -44 -219q-72 2 -130 -10l45 194l54 326l31 108l-5 3q-22 -35 -67 -35q-28 0 -43.5 15.5t-15.5 39.5
q0 14 6 30l35 4q6 12 6 22q0 25 -41 25q-45 0 -68.5 -34t-34.5 -94l-18 -98h142l-12 -62h-142l-77 -411q-22 -117 -76.5 -177.5t-151.5 -60.5q-63 0 -96 25t-33 66q0 36 22 59.5t60 23.5q28 0 43.5 -15t15.5 -40q0 -17 -5 -31l-39 -6q-4 -8 -4 -17q0 -24 41 -24q24 0 41 10
t27.5 31.5t15 39.5t10.5 49l89 478h-76l11 62h76l7 33q52 240 238 240q52 0 84 -22t40 -58l111 59l6 -8l-89 -421l6 -3q91 191 220 191q50 0 76.5 -28t26.5 -80q0 -31 -11 -73q-49 -185 -54 -206q-4 -16 -4 -32q0 -34 31 -34q22 0 48 29z" />
    <glyph glyph-name="f_t" unicode="ft" horiz-adv-x="674" 
d="M608 107l33 -33q-60 -85 -151 -85q-63 0 -93.5 29t-30.5 77q0 26 20 144l35 198h-192l-77 -411q-22 -117 -76.5 -177.5t-151.5 -60.5q-63 0 -96 25t-33 65q0 36 22 59.5t60 23.5q28 0 43.5 -15t15.5 -40q0 -17 -5 -31l-39 -6q-4 -12 -4 -17q0 -24 41 -24q24 0 41 10
t27.5 31.5t15 40t10.5 49.5l89 478h-76l11 62h76l7 33q25 115 80 177.5t151 62.5q61 0 94 -28.5t33 -72.5q0 -36 -21.5 -59t-58.5 -23q-28 0 -43.5 15.5t-15.5 39.5q0 14 6 30l35 4q6 12 6 22q0 25 -41 25q-45 0 -64.5 -32.5t-31.5 -95.5l-18 -98h190l12 68l88 23h34
l-16 -91h105l-11 -62h-104l-44 -252q-10 -58 -10 -79q0 -24 10.5 -34.5t33.5 -10.5q36 0 79 46z" />
    <glyph glyph-name="f_j" unicode="fj" horiz-adv-x="589" 
d="M207 -211l-5 48q60 7 86 42.5t41 115.5l85 442h-185l-77 -411q-22 -117 -76.5 -177.5t-151.5 -60.5q-63 0 -96 24.5t-33 65.5q0 37 22 61t60 24q28 0 43.5 -15t15.5 -40q0 -17 -5 -31l-39 -6q-4 -12 -4 -17q0 -26 41 -26q24 0 41 10t27.5 31.5t15 40t10.5 49.5l89 478
h-76l11 62h76l9 47q21 108 88 167t168 59q62 0 99.5 -29t37.5 -72q0 -36 -21.5 -59t-58.5 -23q-28 0 -43.5 15.5t-15.5 39.5q0 14 6 30l35 4q6 12 6 22q0 25 -51 25q-47 0 -80 -37t-43 -91l-18 -98h138l159 3l4 -8l-90 -467q-12 -59 -27 -99t-42 -74.5t-70.5 -50
t-105.5 -14.5z" />
    <glyph glyph-name="f_f_j" unicode="ffj" horiz-adv-x="901" 
d="M726 437h-182l-82 -439q-40 -213 -243 -210l-8 46q61 13 89.5 47t39.5 95l87 461h-198l-77 -411q-22 -117 -76.5 -177.5t-151.5 -60.5q-62 0 -95.5 27t-33.5 68q0 36 22 59.5t60 23.5q28 0 43.5 -15t15.5 -40q0 -17 -5 -31l-39 -6q-4 -8 -4 -15q0 -25 38 -25
q48 0 67 31.5t30 93.5l89 478h-76l11 62h76l7 33q24 110 80.5 165t155.5 55q53 0 91 -21.5t55 -59.5q30 46 80.5 73.5t110.5 27.5q62 0 98 -29t36 -72q0 -36 -21.5 -59t-58.5 -23q-28 0 -43.5 15.5t-15.5 39.5q0 14 6 30l35 4q6 12 6 22q0 25 -48 25t-80 -35t-43 -93
l-18 -98h131l163 3l4 -8l-90 -467q-12 -59 -27 -99t-42 -74.5t-70.5 -50t-105.5 -14.5l-5 48q60 7 86 42.5t41 115.5zM241 499h200l32 76l-3 3q-14 -5 -26 -5q-26 0 -38 15t-12 36q0 14 6 30l37 4q5 10 5 17q0 30 -66 30q-56 0 -81.5 -34t-37.5 -94z" />
    <glyph glyph-name="f_f_k" unicode="ffk" horiz-adv-x="1194" 
d="M340 -24l87 461h-198l-77 -411q-22 -117 -76.5 -177.5t-151.5 -60.5q-62 0 -95.5 27t-33.5 68q0 36 22 59.5t60 23.5q28 0 43.5 -15t15.5 -40q0 -17 -5 -31l-39 -6q-4 -8 -4 -15q0 -25 38 -25q48 0 67 31.5t30 93.5l89 478h-76l11 62h76l7 33q24 110 80.5 165t155.5 55
q53 0 91 -21.5t55 -59.5q66 101 171 101q52 0 84 -22t40 -58l113 59l6 -8l-93 -471l87 50q37 21 50 29t31 21t22.5 22.5t3.5 21.5l-38 14q-4 35 17 61t60 26q33 0 51.5 -20.5t18.5 -47.5q0 -55 -66 -92q-111 -61 -153 -82l3 -5q33 5 54 5q96 0 96 -75q0 -17 -6 -38l-14 -52
q-4 -18 -4 -23q0 -31 34 -31q28 0 55 33l29 -28q-20 -29 -54 -50.5t-75 -21.5q-51 0 -77 22.5t-26 61.5q0 20 6 41l16 57q3 12 3 21q0 42 -50 42q-38 0 -82 -23l-35 -207q-71 0 -121 -13l50 222l47 302l38 106l-7 3q-22 -35 -67 -35q-28 0 -43.5 15.5t-15.5 39.5q0 14 6 30
l35 4q6 12 6 22q0 25 -41 25q-45 0 -68.5 -34t-34.5 -94l-18 -98h142l-12 -62h-142l-82 -439q-40 -213 -243 -210l-8 46q61 13 89.5 47t39.5 95zM241 499h200l32 76l-3 3q-14 -5 -26 -5q-26 0 -38 15t-12 36q0 14 6 30l37 4q5 12 5 17q0 30 -66 30q-56 0 -81.5 -34
t-37.5 -94z" />
    <glyph glyph-name="f_f_b" unicode="ffb" horiz-adv-x="1218" 
d="M340 -24l87 461h-198l-77 -411q-22 -117 -76.5 -177.5t-151.5 -60.5q-62 0 -95.5 27t-33.5 68q0 36 22 59.5t60 23.5q28 0 43.5 -15t15.5 -40q0 -17 -5 -31l-39 -6q-4 -8 -4 -15q0 -25 38 -25q48 0 67 31.5t30 93.5l89 478h-76l11 62h76l7 33q24 110 80.5 165t155.5 55
q53 0 91 -21.5t55 -59.5q66 101 171 101q52 0 84 -22t40 -58l111 59l6 -8l-88 -375l6 -1q68 143 195 143q66 0 101 -47.5t35 -132.5q0 -86 -31.5 -162t-98.5 -127.5t-155 -51.5q-180 0 -180 173q0 70 24 188l31 162l39 109l-5 2q-21 -34 -67 -34q-28 0 -43.5 15.5
t-15.5 39.5q0 14 6 30l35 4q6 12 6 22q0 25 -41 25q-45 0 -68.5 -34t-34.5 -94l-18 -98h142l-12 -62h-142l-82 -439q-40 -213 -243 -210l-8 46q61 13 89.5 47t39.5 95zM898 44q39 0 69.5 29t47.5 75t26 97t9 102q0 46 -13 70.5t-47 24.5q-64 0 -116.5 -100t-52.5 -202
q0 -96 77 -96zM241 499h200l32 76l-3 3q-14 -5 -26 -5q-26 0 -38 15t-12 36q0 14 6 30l37 4q5 12 5 17q0 30 -66 30q-56 0 -81.5 -34t-37.5 -94z" />
    <glyph glyph-name="f_f_h" unicode="ffh" horiz-adv-x="1240" 
d="M340 -24l87 461h-198l-77 -411q-22 -117 -76.5 -177.5t-151.5 -60.5q-62 0 -95.5 27t-33.5 68q0 36 22 59.5t60 23.5q28 0 43.5 -15t15.5 -40q0 -17 -5 -31l-39 -6q-4 -8 -4 -15q0 -25 38 -25q48 0 67 31.5t30 93.5l89 478h-76l11 62h76l7 33q24 110 80.5 165t155.5 55
q53 0 91 -21.5t55 -59.5q66 101 171 101q53 0 85.5 -23t39.5 -59l111 61l6 -8l-89 -421l6 -3q91 191 220 191q50 0 76.5 -28t26.5 -80q0 -31 -11 -73q-49 -185 -54 -206q-4 -16 -4 -32q0 -34 31 -34q22 0 48 29l29 -30q-48 -67 -126 -67q-45 0 -71.5 23.5t-26.5 67.5
q0 25 7 60.5t14.5 62.5t22.5 78t22 77q9 30 9 49q0 37 -34 37q-47 0 -99 -72.5t-75 -149.5q-28 -93 -44 -219q-72 2 -130 -10l45 194l54 326l31 108l-6 3q-22 -35 -67 -35q-28 0 -43.5 15.5t-15.5 39.5q0 14 6 30l35 4q6 12 6 22q0 25 -41 25q-45 0 -68.5 -34t-34.5 -94
l-18 -98h142l-12 -62h-142l-82 -439q-40 -213 -243 -210l-8 46q61 13 89.5 47t39.5 95zM241 499h200l32 76l-3 3q-14 -5 -26 -5q-26 0 -38 15t-12 36q0 14 6 30l37 4q5 12 5 17q0 30 -66 30q-56 0 -81.5 -34t-37.5 -94z" />
    <glyph glyph-name="f_f_t" unicode="fft" horiz-adv-x="987" 
d="M920 107l33 -33q-60 -85 -151 -85q-63 0 -93.5 29t-30.5 77q0 26 20 144l35 198h-189l-82 -439q-40 -213 -243 -210l-8 46q61 13 89.5 47t39.5 95l87 461h-198l-77 -411q-22 -117 -76.5 -177.5t-151.5 -60.5q-62 0 -95.5 27t-33.5 68q0 36 22 59.5t60 23.5q28 0 43.5 -15
t15.5 -40q0 -17 -5 -31l-39 -6q-4 -8 -4 -15q0 -25 38 -25q48 0 67 31.5t30 93.5l89 478h-76l11 62h76l7 33q24 110 80.5 165t155.5 55q53 0 91 -21.5t55 -59.5q66 101 171 101q61 0 94 -28.5t33 -72.5q0 -36 -21.5 -59t-58.5 -23q-28 0 -43.5 15.5t-15.5 39.5q0 14 6 30
l35 4q6 12 6 22q0 25 -41 25q-45 0 -68.5 -34t-34.5 -94l-18 -98h187l12 66l87 20h34l-15 -86h105l-11 -62h-104l-44 -252q-10 -58 -10 -79q0 -24 10.5 -34.5t33.5 -10.5q36 0 79 46zM241 499h200l32 76l-3 3q-14 -5 -26 -5q-26 0 -38 15t-12 36q0 14 6 30l37 4q5 12 5 17
q0 30 -66 30q-56 0 -81.5 -34t-37.5 -94z" />
    <glyph glyph-name="f_iacute" unicode="f&#xed;" horiz-adv-x="611" 
d="M553 84l27 -27q-47 -68 -123 -68q-103 0 -103 95q0 31 21 126q8 35 27.5 116.5t25.5 110.5h-199l-77 -411q-22 -117 -76.5 -177.5t-151.5 -60.5q-63 0 -96 24.5t-33 63.5q0 37 22 61t60 24q28 0 43.5 -15t15.5 -40q0 -17 -5 -31l-39 -6q-4 -10 -4 -15q0 -26 41 -26
q24 0 41 10t27.5 31.5t15 40t10.5 49.5l89 478h-76l11 62h76l12 62q18 95 67.5 153t124.5 58q55 0 84 -28.5t29 -72.5q0 -36 -21.5 -59t-58.5 -23q-28 0 -43.5 15.5t-15.5 39.5q0 14 6 30l35 4q6 12 6 22q0 25 -32 25q-44 0 -61 -45.5t-17 -157.5v-23h181l132 4l4 -8
q-54 -240 -68 -304q-17 -75 -17 -100q0 -35 33 -35q25 0 50 28zM619 681l-135 -125l-25 17l94 179l47 10q18 4 33 -4t15 -27q0 -23 -29 -50z" />
    <glyph glyph-name="t_t" unicode="tt" horiz-adv-x="681" 
d="M615 107l33 -33q-60 -85 -151 -85q-63 0 -93.5 29t-30.5 77q0 26 20 144l35 198h-205l-44 -252q-10 -58 -10 -79q0 -24 10.5 -34.5t33.5 -10.5q36 0 79 46l33 -33q-60 -85 -151 -85q-63 0 -93.5 29t-30.5 77q0 26 20 144l35 198h-72l11 62h71l22 127l87 20h34l-25 -147
h205l22 127l87 20h34l-25 -147h105l-11 -62h-104l-44 -252q-10 -58 -10 -79q0 -24 10.5 -34.5t33.5 -10.5q36 0 79 46z" />
    <glyph glyph-name=".notdef" horiz-adv-x="200" 
 />
    <glyph glyph-name=".null" horiz-adv-x="0" 
 />
    <glyph glyph-name="nonmarkingreturn" horiz-adv-x="333" 
 />
    <glyph glyph-name="space" unicode=" " horiz-adv-x="200" 
 />
    <glyph glyph-name="exclam" unicode="!" horiz-adv-x="383" 
d="M189 181h-55l12 72q16 96 20 205q1 26 1 61.5t0.5 59t2.5 40.5q3 38 25 61.5t60 23.5q58 0 58 -56q0 -36 -32 -120q-59 -153 -80 -276zM128 -10q-30 0 -44 16.5t-14 39.5q0 35 23.5 57.5t57.5 22.5q27 0 43 -13.5t16 -39.5q0 -36 -23.5 -59.5t-58.5 -23.5z" />
    <glyph glyph-name="quotedbl" unicode="&#x22;" horiz-adv-x="374" 
d="M151 530h-39l12 215q34 24 61 24q34 0 34 -30q0 -20 -13 -57zM299 530h-39l12 215q34 24 61 24q34 0 34 -30q0 -20 -13 -57z" />
    <glyph glyph-name="numbersign" unicode="#" horiz-adv-x="605" 
d="M493 139h-117l-46 -139h-48l46 139h-155l-47 -139h-49l46 139h-119l17 45h117l58 171h-120l17 46h117l41 130h50l-42 -130h153l41 130h48l-42 -130h121l-15 -46h-119l-56 -171h119zM342 184l56 171h-153l-58 -171h155z" />
    <glyph glyph-name="dollar" unicode="$" horiz-adv-x="501" 
d="M161 -81l-42 5l21 77q-15 5 -36 15t-28 10q-16 0 -30 -32h-44l27 181h48q9 -98 79 -120l44 170q-65 21 -100 54.5t-35 96.5q0 74 56.5 124t145.5 50q10 0 24 -2l21 77l40 -5l-23 -81q10 -4 21 -9t18 -8t12 -3q14 0 26 25h42l-24 -162h-50q-9 84 -60 103l-42 -161
q37 -13 56 -21t44.5 -25.5t37 -43.5t11.5 -62q0 -81 -61 -132t-147 -51q-15 0 -33 2zM196 48q1 0 8 -0.5t8 -0.5q48 0 81 22.5t33 65.5q0 31 -21.5 47.5t-64.5 30.5zM233 337l41 155q-2 1 -10 1q-43 0 -73 -19.5t-30 -57.5q0 -54 72 -79z" />
    <glyph glyph-name="percent" unicode="%" horiz-adv-x="754" 
d="M502 -11q-62 0 -93.5 31t-31.5 88q0 72 50 120t127 48q57 0 91 -28t34 -86q0 -82 -53.5 -127.5t-123.5 -45.5zM512 36q37 0 60 36t23 94q0 64 -49 64q-42 0 -64.5 -40.5t-22.5 -87.5q0 -66 53 -66zM184 263q-62 0 -93.5 31t-31.5 88q0 72 50 120t127 48q57 0 91 -28
t34 -86q0 -82 -53.5 -127.5t-123.5 -45.5zM194 310q37 0 60 36t23 94q0 64 -49 64q-42 0 -64.5 -40.5t-22.5 -87.5q0 -66 53 -66zM188 0h-64l422 537h64z" />
    <glyph glyph-name="ampersand" unicode="&#x26;" horiz-adv-x="829" 
d="M742 325l-78 -13q-6 -45 -18 -85.5t-38.5 -85.5t-63 -77t-96 -53.5t-133.5 -21.5q-119 0 -189.5 49t-70.5 136q0 85 53 133t147 75v3q-122 37 -122 145q0 87 74 134t184 47q82 0 136 -34.5t54 -100.5q0 -39 -22 -61t-55 -22q-31 0 -45.5 16.5t-14.5 40.5q0 23 10 39h40
q6 12 6 22q0 21 -22.5 34t-65.5 13q-68 0 -107 -37.5t-39 -98.5q0 -71 45 -120q34 13 59 13q41 0 41 -33q0 -17 -15.5 -27.5t-33.5 -10.5q-38 0 -67 17q-99 -60 -99 -174q0 -67 40 -102.5t116 -35.5q110 0 173 71t81 183l-93 -15q-19 -3 -26 -13t-12 -36l-35 2
q2 67 19 100.5t56 40.5q13 2 112 17.5t123 20.5q14 3 21 12t10 33l33 -2q0 -127 -72 -138z" />
    <glyph glyph-name="quotesingle" unicode="'" horiz-adv-x="226" 
d="M151 530h-39l12 215q34 24 61 24q34 0 34 -30q0 -20 -13 -57z" />
    <glyph glyph-name="parenleft" unicode="(" horiz-adv-x="321" 
d="M222 -131l-37 -19q-131 168 -131 362q0 162 76.5 298t216.5 268l29 -22q-103 -141 -153 -278t-50 -317q0 -152 49 -292z" />
    <glyph glyph-name="parenright" unicode=")" horiz-adv-x="321" 
d="M-20 -150l-32 23q103 139 153 275t50 315q0 156 -48 295l36 21q54 -69 92.5 -162.5t38.5 -199.5q0 -163 -75.5 -300t-214.5 -267z" />
    <glyph glyph-name="asterisk" unicode="*" horiz-adv-x="495" 
d="M391 457l-93 102l2 -146q-32 -22 -57 -22q-15 0 -23.5 8.5t-8.5 21.5q0 16 14 44l47 95l-131 -103q-43 19 -43 49q0 33 51 48l119 34l-148 39q-2 28 10.5 53t37.5 25q13 0 21.5 -5.5t24.5 -20.5l66 -66l-2 150q30 22 57 22q15 0 23.5 -7.5t8.5 -18.5q0 -21 -14 -52
l-45 -95l84 67q33 26 57 26q30 0 30 -35q0 -16 -9 -43l-161 -39l103 -33q42 -12 42 -36q0 -36 -63 -62z" />
    <glyph glyph-name="plus" unicode="+" 
d="M522 276h-198l-35 -209h-65l35 209h-191l9 58h191l33 196h65l-33 -196h198z" />
    <glyph glyph-name="comma" unicode="," horiz-adv-x="256" 
d="M4 -160l-25 33q114 80 114 137q0 19 -16 24l-39 -35q-17 7 -29.5 24t-12.5 40q0 38 26 61t66 23q38 0 59 -25t21 -64q0 -64 -43.5 -115t-120.5 -103z" />
    <glyph glyph-name="hyphen" unicode="-" horiz-adv-x="340" 
d="M266 246h-230l15 79h231z" />
    <glyph glyph-name="period" unicode="." horiz-adv-x="252" 
d="M73 -10q-36 0 -52 19t-16 47q0 42 27.5 68.5t67.5 26.5q32 0 50.5 -16.5t18.5 -47.5q0 -42 -28.5 -69.5t-67.5 -27.5z" />
    <glyph glyph-name="slash" unicode="/" horiz-adv-x="403" 
d="M18 -97h-68l446 892h67z" />
    <glyph glyph-name="zero" unicode="0" horiz-adv-x="579" 
d="M230 -11q-107 0 -163.5 57t-56.5 159q0 147 86 246t231 99q96 0 155.5 -51.5t59.5 -163.5q0 -163 -91 -254.5t-221 -91.5zM241 45q46 0 81.5 32t53.5 82t27 100t9 97q0 72 -24.5 104t-73.5 32q-45 0 -80.5 -30.5t-54.5 -79t-28.5 -99t-9.5 -98.5q0 -140 100 -140z" />
    <glyph glyph-name="one" unicode="1" horiz-adv-x="430" 
d="M347 0h-329l8 56l112 11l54 333q-32 -6 -75.5 -2.5t-68.5 10.5l12 52q136 -11 209 79h68l-77 -473l96 -8z" />
    <glyph glyph-name="two" unicode="2" horiz-adv-x="530" 
d="M423 0h-418l10 71q99 55 164 104.5t94.5 91t39 72t9.5 65.5q0 41 -21.5 68t-69.5 27q-35 0 -61 -15t-26 -46q0 -6 2 -16h37q5 -17 5 -30q0 -31 -20 -51t-56 -20q-31 0 -48.5 20t-17.5 51q0 77 65 117.5t158 40.5q95 0 141 -42t46 -105q0 -83 -62.5 -145.5t-214.5 -139.5
l-39 -19v-4h131q66 0 94.5 23.5t48.5 80.5h46z" />
    <glyph glyph-name="three" unicode="3" horiz-adv-x="506" 
d="M62 -50q-8 -14 -8 -25q0 -35 71 -35q81 0 130.5 51t49.5 141q0 107 -83 107q-50 0 -112 -26l-7 51q99 34 155 79t56 121q0 41 -21 63t-61 22q-34 0 -59.5 -12.5t-25.5 -36.5q0 -9 2 -14h32q3 -13 3 -25q0 -32 -18.5 -51.5t-50.5 -19.5t-49 18t-17 46q0 67 64 106.5
t158 39.5q82 0 127 -34.5t45 -92.5q0 -69 -50 -109.5t-162 -82.5v-4q33 6 61 6q75 0 109.5 -41t34.5 -104q0 -109 -93.5 -178.5t-214.5 -69.5q-78 0 -121 29.5t-43 87.5q0 42 23 68t63 26q32 0 47 -15.5t15 -40.5q0 -23 -11 -45h-39z" />
    <glyph glyph-name="four" unicode="4" horiz-adv-x="557" 
d="M363 -149h-120l29 174h-285l11 71q169 171 233.5 257.5t64.5 138.5q0 26 -12 50l37 29q48 -2 77 -23t29 -59q0 -35 -19 -65.5t-74 -83.5t-185 -166l-90 -78h223l23 144l130 36l-31 -180h90l-11 -71h-90z" />
    <glyph glyph-name="five" unicode="5" horiz-adv-x="496" 
d="M87 -50h-37q-9 -16 -9 -25q0 -35 73 -35q77 0 125.5 64.5t48.5 165.5q0 98 -85 98q-60 0 -135 -52l-29 15l91 350l19 10q91 -31 166 -31q105 0 128 73l33 -5q-19 -179 -213 -179q-51 0 -105 16l-52 -178q69 44 149 44q84 0 125.5 -41.5t41.5 -110.5q0 -133 -91.5 -211
t-220.5 -78q-70 0 -114 30t-44 84q0 43 23 69.5t64 26.5q58 0 58 -53q0 -22 -10 -47z" />
    <glyph glyph-name="six" unicode="6" horiz-adv-x="539" 
d="M226 43q60 0 96 56t36 144q0 100 -74 100q-36 0 -68 -20.5t-48 -52.5q-24 -48 -24 -120q0 -107 82 -107zM431 467q-26 0 -40.5 12.5t-14.5 35.5q0 21 12 45l30 2q5 10 5 21q-1 30 -57 30q-73 0 -127 -69.5t-79 -219.5q26 34 72.5 58t99.5 24q67 0 109 -38t42 -118
q0 -117 -75 -189t-189 -72q-89 0 -139.5 54.5t-50.5 163.5q0 77 20 154.5t59 146.5t106.5 112t153.5 43q66 0 103.5 -29.5t37.5 -79.5q0 -42 -21.5 -64.5t-56.5 -22.5z" />
    <glyph glyph-name="seven" unicode="7" horiz-adv-x="507" 
d="M237 -109l-29 -36q-50 -4 -86 23t-36 69q0 37 24.5 87t103.5 158h-117l12 49h139q51 73 146 186h-215q-41 0 -56 -13.5t-34 -63.5l-45 3l50 197l28 7q29 -18 98 -18h287l9 -33q-87 -87 -193 -265h112l-13 -49h-127q-79 -150 -79 -221q0 -44 21 -80z" />
    <glyph glyph-name="eight" unicode="8" horiz-adv-x="553" 
d="M332 339l-1 -4q74 -7 116 -43t42 -98q0 -98 -74.5 -151.5t-190.5 -53.5q-99 0 -153.5 39.5t-54.5 117.5q0 79 59 130.5t156 59.5l1 3q-67 5 -103.5 39t-36.5 93q0 82 68 137t175 55q90 0 139 -37t49 -108q0 -70 -53 -120t-138 -59zM233 40q58 0 94 43.5t36 124.5
q0 99 -87 99q-58 0 -95.5 -44t-37.5 -123q0 -100 90 -100zM286 369q51 0 82 44.5t31 111.5q0 85 -73 85q-54 0 -83.5 -47.5t-29.5 -108.5q0 -42 19.5 -63.5t53.5 -21.5z" />
    <glyph glyph-name="nine" unicode="9" horiz-adv-x="539" 
d="M225 175q66 0 105.5 55.5t39.5 160.5t-81 105q-67 0 -101.5 -64t-34.5 -158q0 -99 72 -99zM125 -52h-33q-10 -14 -10 -26q0 -33 62 -33q75 0 129.5 78t77.5 226q-26 -36 -70 -57.5t-92 -21.5q-69 0 -114.5 42t-45.5 125q0 124 74 196.5t188 72.5q191 0 191 -227
q0 -60 -10.5 -122.5t-36 -128.5t-63 -116.5t-97 -83t-132.5 -32.5t-109.5 31.5t-36.5 81.5q0 44 23 69t59 25q29 0 44 -16t15 -39t-13 -44z" />
    <glyph glyph-name="colon" unicode=":" horiz-adv-x="252" 
d="M73 -10q-36 0 -52 19t-16 47q0 42 27.5 68.5t67.5 26.5q32 0 50.5 -16.5t18.5 -47.5q0 -42 -28.5 -69.5t-67.5 -27.5zM135 321q-36 0 -52 19t-16 47q0 42 27.5 68.5t67.5 26.5q32 0 50.5 -16.5t18.5 -47.5q0 -42 -28.5 -69.5t-67.5 -27.5z" />
    <glyph glyph-name="semicolon" unicode=";" horiz-adv-x="256" 
d="M4 -160l-25 33q114 80 114 137q0 19 -16 24l-39 -35q-17 7 -29.5 24t-12.5 40q0 38 26 61t66 23q38 0 59 -25t21 -64q0 -64 -43.5 -115t-120.5 -103zM130 321q-36 0 -52.5 19t-16.5 47q0 42 28 68.5t67 26.5q32 0 51 -16.5t19 -47.5q0 -42 -28.5 -69.5t-67.5 -27.5z" />
    <glyph glyph-name="less" unicode="&#x3c;" 
d="M470 40l-419 194l13 77l484 191l-11 -65l-416 -166l361 -165z" />
    <glyph glyph-name="equal" unicode="=" 
d="M536 331h-454l10 58h454zM508 165h-454l10 58h454z" />
    <glyph glyph-name="greater" unicode="&#x3e;" 
d="M516 234l-485 -194l12 69l415 168l-360 160l11 65l420 -191z" />
    <glyph glyph-name="question" unicode="?" horiz-adv-x="515" 
d="M187 -10q-30 0 -44 16.5t-14 39.5q0 35 23.5 57.5t57.5 22.5q26 0 42 -13.5t16 -39.5q0 -36 -23 -59.5t-58 -23.5zM356 316l53 -14q-15 -54 -56 -87.5t-107 -33.5q-70 0 -108.5 33.5t-38.5 89.5q0 54 29.5 89.5t72 52.5t85 31t72 38t29.5 62q0 37 -26 57.5t-70 20.5
q-49 0 -74.5 -17t-17.5 -45h31q3 -12 3 -24q0 -29 -17.5 -47t-50.5 -18q-31 0 -47.5 18.5t-16.5 45.5q0 65 63.5 100.5t138.5 35.5q88 0 135 -39t47 -99q0 -48 -22 -82.5t-55 -51.5t-71.5 -32t-71.5 -25.5t-55 -30.5t-22 -49q0 -61 69 -61q71 0 99 82z" />
    <glyph glyph-name="at" unicode="@" horiz-adv-x="858" 
d="M612 -65l21 -31q-50 -41 -123 -64t-143 -23q-148 0 -238 77.5t-90 221.5q0 194 126.5 325t327.5 131q136 0 217.5 -68.5t81.5 -194.5q0 -121 -66 -218.5t-166 -97.5q-52 0 -77.5 20.5t-28.5 50.5q-57 -69 -135 -69q-56 0 -82 34t-26 89q0 66 26.5 128.5t82 106.5
t127.5 44q59 0 91 -37l22 30h72l-64 -184q-27 -80 -30 -112q-4 -31 6.5 -45t37.5 -14q67 0 114.5 86t47.5 184q0 110 -66 168.5t-198 58.5q-171 0 -280.5 -120.5t-109.5 -293.5q0 -134 79.5 -197t204.5 -63q135 0 238 77zM465 146l56 171q-26 31 -70 31q-46 0 -80.5 -38
t-49.5 -88t-15 -101q0 -73 52 -73q34 0 64 28.5t43 69.5z" />
    <glyph glyph-name="A" unicode="A" horiz-adv-x="669" 
d="M613 0h-283l9 57l76 8l-21 142h-217l-72 -142l70 -8l-9 -57h-211l9 57l65 8l341 636h74l112 -636l66 -8zM387 273l-39 252h-3l-137 -252h179z" />
    <glyph glyph-name="B" unicode="B" horiz-adv-x="606" 
d="M224 0h-229l10 58l75 7l97 571l-74 6l11 58h233q114 0 174 -34.5t60 -118.5q0 -64 -49.5 -111.5t-133.5 -63.5l-1 -3q71 -11 115.5 -49t44.5 -104q0 -60 -28.5 -104t-77.5 -67.5t-105 -34t-122 -10.5zM208 64h38q178 0 178 158q0 60 -31.5 84.5t-99.5 24.5h-39zM264 391
h19q75 0 122.5 39t47.5 113q0 50 -30 71.5t-94 21.5h-23z" />
    <glyph glyph-name="C" unicode="C" horiz-adv-x="626" 
d="M531 232l59 -15q-19 -67 -54 -114.5t-77.5 -70.5t-81 -33t-77.5 -10q-125 0 -195 69t-70 208q0 116 46 217t133.5 164.5t196.5 63.5q51 0 99.5 -17.5t50.5 -17.5q14 0 30 26h47l-30 -220h-56q-5 87 -37 126t-101 39q-66 0 -115.5 -39t-75.5 -100.5t-38.5 -125
t-12.5 -126.5q0 -198 154 -198q73 0 123.5 41.5t81.5 132.5z" />
    <glyph glyph-name="D" unicode="D" horiz-adv-x="707" 
d="M219 0h-225l10 58l76 7l97 571l-74 6l10 58h244q325 0 325 -268q0 -197 -122.5 -314.5t-340.5 -117.5zM208 63h32q101 0 172 53.5t102.5 135.5t31.5 184q0 114 -54 157t-167 43h-19z" />
    <glyph glyph-name="E" unicode="E" horiz-adv-x="625" 
d="M520 0h-520l9 57l70 8l97 570l-67 8l10 57h496l-27 -204h-56q-4 87 -36 114.5t-123 27.5h-68l-43 -252h37q52 0 77.5 24t48.5 90h45l-51 -296h-48q2 76 -14.5 99t-75.5 23h-29l-45 -262h68q107 0 155 36t81 137h56z" />
    <glyph glyph-name="F" unicode="F" horiz-adv-x="583" 
d="M307 0h-307l9 57l70 7l97 571l-67 8l10 57h496l-27 -210h-57q-2 90 -33.5 119t-119.5 29h-73l-45 -260h37q52 0 78.5 25t47.5 90h45l-50 -296h-48q1 76 -15 98.5t-74 22.5h-30l-44 -253l109 -8z" />
    <glyph glyph-name="G" unicode="G" horiz-adv-x="676" 
d="M656 256l-64 -7l-31 -182q-45 -34 -118 -56t-144 -22q-121 0 -191 67.5t-70 201.5q0 119 45.5 221.5t133.5 167t201 64.5q49 0 96.5 -16.5t55.5 -16.5q16 0 30 24h46l-30 -220h-53q-7 89 -39.5 127t-105.5 38q-66 0 -116.5 -40t-76.5 -102.5t-38.5 -124.5t-12.5 -121
q0 -203 149 -203q77 0 120 31l27 161l-83 8l10 57h269z" />
    <glyph glyph-name="H" unicode="H" horiz-adv-x="762" 
d="M658 0h-266l10 57l70 8l44 256h-263l-44 -256l67 -8l-10 -57h-265l10 57l69 8l98 570l-68 7l11 58h265l-10 -57l-70 -7l-41 -244h263l41 243l-67 7l11 58h266l-11 -57l-70 -7l-97 -571l67 -8z" />
    <glyph glyph-name="I" unicode="I" horiz-adv-x="370" 
d="M267 0h-266l9 57l70 8l98 570l-68 7l10 58h265l-9 -57l-70 -7l-97 -571l67 -7z" />
    <glyph glyph-name="J" unicode="J" horiz-adv-x="503" 
d="M249 156l81 480l-84 7l10 57h280l-11 -57l-67 -6l-71 -427q-38 -221 -248 -221q-71 0 -108 32.5t-37 79.5q0 41 24 69.5t68 28.5q32 0 47.5 -15.5t15.5 -41.5q0 -24 -12 -48h-38q-5 -12 -5 -20q0 -30 53 -30q82 0 102 112z" />
    <glyph glyph-name="K" unicode="K" horiz-adv-x="687" 
d="M631 0h-271l9 57l65 7l-130 267l-54 -20l-42 -246l64 -7l-10 -58h-257l9 58l66 7l97 571l-64 7l10 57h258l-10 -57l-66 -7l-44 -262l58 21l232 241l-67 7l10 57h206l-10 -57l-60 -7l-223 -233l172 -339l61 -7z" />
    <glyph glyph-name="L" unicode="L" horiz-adv-x="598" 
d="M503 0h-502l8 57l71 8l96 569l-67 8l11 58h287l-10 -57l-92 -9l-97 -570h51q102 0 151.5 36t84.5 146h57z" />
    <glyph glyph-name="M" unicode="M" horiz-adv-x="893" 
d="M787 0h-259l10 58l72 7l93 546h-4l-290 -611h-73l-90 610h-4l-91 -545l64 -7l-10 -58h-194l10 58l59 7l97 572l-58 6l11 57h236l68 -496h4l232 496h235l-10 -57l-67 -6l-96 -572l65 -7z" />
    <glyph glyph-name="N" unicode="N" horiz-adv-x="721" 
d="M563 -7h-86l-234 615h-4l-90 -544l67 -6l-10 -58h-197l10 58l60 6l97 571l-58 7l10 58h222l178 -487h4l72 422l-60 7l11 58h188l-11 -58l-59 -7z" />
    <glyph glyph-name="O" unicode="O" horiz-adv-x="690" 
d="M296 51q52 0 94.5 29.5t68 75t42.5 104t23.5 111.5t6.5 103q0 87 -29 131.5t-98 44.5q-62 0 -109.5 -39.5t-73.5 -102.5t-39 -130t-13 -132q0 -195 127 -195zM287 -11q-123 0 -187.5 67.5t-64.5 195.5q0 68 15 133t46.5 124.5t76 104t108 71t138.5 26.5q120 0 183 -69.5
t63 -202.5q0 -78 -23 -155t-67.5 -144.5t-119.5 -109t-168 -41.5z" />
    <glyph glyph-name="P" unicode="P" horiz-adv-x="616" 
d="M307 0h-312l10 58l75 7l97 571l-73 7l10 57h255q249 0 249 -172q0 -85 -48.5 -142.5t-121.5 -81t-166 -23.5h-37l-37 -216l109 -7zM256 345h27q92 0 144 47t52 134q0 61 -34.5 85.5t-97.5 24.5h-41z" />
    <glyph glyph-name="Q" unicode="Q" horiz-adv-x="690" 
d="M694 -136l36 -31q-20 -30 -59 -55.5t-87 -25.5q-61 0 -104 26t-76 96t-56.5 89.5t-95.5 31.5q-109 19 -162.5 82t-53.5 186q0 79 24.5 156.5t70.5 143.5t121.5 107t167.5 41q120 0 183 -69.5t63 -202.5q0 -92 -31 -180t-101 -160t-166 -94v-6q69 -11 103 -32t68 -76
q27 -44 44 -58.5t41 -14.5q34 0 70 46zM301 51q51 0 92.5 29.5t66.5 75t42 104t23.5 112t6.5 102.5q0 87 -29 131.5t-98 44.5q-62 0 -109.5 -40t-73.5 -104t-39 -133t-13 -139q0 -183 131 -183z" />
    <glyph glyph-name="R" unicode="R" horiz-adv-x="664" 
d="M594 92l32 -32q-50 -71 -127 -71q-105 0 -115 113l-11 116q-5 59 -24 85t-73 26h-23l-45 -263l83 -8l-10 -58h-286l10 58l75 8l97 569l-74 8l11 57h234q51 0 90.5 -5.5t78.5 -20t60.5 -45.5t21.5 -77q0 -88 -62 -133.5t-166 -54.5v-5q62 -12 91.5 -42t35.5 -92l8 -94
q2 -22 5 -34.5t12 -21.5t25 -9q23 0 46 26zM263 387h17q79 0 128.5 38.5t49.5 115.5q0 50 -31.5 72t-99.5 22h-22z" />
    <glyph glyph-name="S" unicode="S" horiz-adv-x="559" 
d="M55 -7h-49l30 228h57q13 -168 166 -168q62 0 103 29t41 86q0 22 -9 40t-19 29.5t-34 24.5t-36.5 18.5t-44.5 18.5q-37 15 -60 27.5t-49.5 34.5t-39.5 55t-13 77q0 94 66 156t170 62q47 0 93.5 -20t50.5 -20q10 0 16.5 7t14.5 24h47l-29 -207h-58q-8 80 -39 117t-96 37
q-53 0 -90.5 -26.5t-37.5 -78.5q0 -26 10 -46t33.5 -36t40 -24t52.5 -23q38 -16 60.5 -28t50 -34.5t40.5 -54.5t13 -75q0 -104 -72 -169t-174 -65q-45 0 -81 11t-58 22.5t-32 11.5t-17 -8.5t-17 -32.5z" />
    <glyph glyph-name="T" unicode="T" horiz-adv-x="648" 
d="M428 0h-310l10 58l91 7l98 571h-9q-82 0 -118 -28t-70 -127h-56l47 219h561l-29 -219h-56q-1 71 -13 103t-38 42t-83 10h-8l-97 -571l89 -7z" />
    <glyph glyph-name="U" unicode="U" horiz-adv-x="707" 
d="M515 232l69 403l-65 7l10 58h201l-10 -58l-63 -7l-69 -408q-20 -116 -85 -177t-190 -61q-107 0 -164.5 39t-57.5 132q0 37 6 68l70 408l-64 6l10 58h260l-10 -58l-68 -6l-67 -397q-7 -39 -7 -64q0 -54 27.5 -83t93.5 -29q77 0 117.5 41t55.5 128z" />
    <glyph glyph-name="V" unicode="V" horiz-adv-x="658" 
d="M318 -6h-77l-119 640l-60 8l11 58h288l-10 -58l-85 -8l70 -467h3l236 467l-75 8l10 58h210l-10 -58l-61 -8z" />
    <glyph glyph-name="W" unicode="W" horiz-adv-x="970" 
d="M668 -6h-72l-80 427l-230 -427h-70l-99 640l-56 9l10 57h277l-10 -57l-82 -9l60 -449h4l179 332l-24 117l-57 9l10 57h275l-10 -57l-83 -9l80 -439h4l204 439l-77 9l11 57h200l-9 -57l-57 -9z" />
    <glyph glyph-name="X" unicode="X" horiz-adv-x="643" 
d="M578 0h-288l10 58l79 7l-95 220l-163 -220l69 -7l-10 -58h-208l10 58l62 7l212 283l-128 286l-58 7l10 59h290l-10 -59l-84 -7l88 -213l160 213l-63 7l9 59h204l-11 -59l-59 -7l-212 -270l136 -299l59 -7z" />
    <glyph glyph-name="Y" unicode="Y" horiz-adv-x="594" 
d="M396 0h-290l10 58l82 7l42 250l-121 319l-59 7l10 59h286l-11 -59l-82 -7l84 -245h3l169 245l-69 7l11 59h205l-10 -59l-61 -7l-227 -321l-42 -248l79 -7z" />
    <glyph glyph-name="Z" unicode="Z" 
d="M496 0h-502l10 62l446 571h-108q-46 0 -72 -4t-53.5 -19t-47 -45.5t-38.5 -83.5h-50l47 219h479l-11 -67l-444 -567h132q88 0 134 41t80 135h50z" />
    <glyph glyph-name="bracketleft" unicode="[" horiz-adv-x="326" 
d="M233 -155h-218l160 941h218l-9 -52h-55q-37 0 -49 -9t-18 -43l-124 -732q-7 -37 1 -45t46 -8h56z" />
    <glyph glyph-name="backslash" unicode="\" horiz-adv-x="390" 
d="M308 -97h-68l-147 892h68z" />
    <glyph glyph-name="bracketright" unicode="]" horiz-adv-x="326" 
d="M156 -155h-218l9 52h55q37 0 49 9t18 43l124 732q7 37 -1 45t-46 8h-56l8 52h218z" />
    <glyph glyph-name="asciicircum" unicode="^" horiz-adv-x="560" 
d="M500 300l-51 -22l-176 317l-163 -318l-50 23l189 364h49z" />
    <glyph glyph-name="underscore" unicode="_" horiz-adv-x="506" 
d="M503 -106h-500v37h500v-37z" />
    <glyph glyph-name="grave" unicode="`" horiz-adv-x="500" 
d="M422 570l-29 -12l-94 132q-17 23 -17 42q0 22 23 33t44 2l36 -16z" />
    <glyph glyph-name="a" unicode="a" horiz-adv-x="573" 
d="M518 88l30 -28q-19 -30 -49.5 -50.5t-66.5 -20.5q-46 0 -69 23t-23 64q0 22 8 52l-5 1q-25 -60 -71 -100t-111 -40q-71 0 -108.5 46t-37.5 132q0 79 27.5 155.5t87.5 132t138 55.5q89 0 120 -81l19 69q60 -2 113 6q-57 -260 -77 -389q-9 -57 28 -57q22 0 47 30zM206 59
q45 0 83 53.5t56 119.5t18 119q0 103 -77 103q-38 0 -68 -29t-46 -74.5t-24.5 -93.5t-8.5 -94q0 -53 15 -78.5t52 -25.5z" />
    <glyph glyph-name="b" unicode="b" horiz-adv-x="554" 
d="M172 368l6 -1q68 143 195 143q66 0 101 -47.5t35 -132.5q0 -86 -31.5 -162t-98.5 -127.5t-155 -51.5q-180 0 -180 173q0 48 24 188l57 333l-74 9l9 50l191 9l5 -9zM234 44q39 0 69.5 29t47.5 75t26 97t9 102q0 46 -13 70.5t-47 24.5q-64 0 -116.5 -100t-52.5 -202
q0 -96 77 -96z" />
    <glyph glyph-name="c" unicode="c" horiz-adv-x="478" 
d="M368 177l54 -18q-21 -70 -77.5 -120t-145.5 -50q-91 0 -137.5 50.5t-46.5 142.5q0 87 32.5 160t99.5 120.5t157 47.5q74 0 112 -35t38 -90q0 -42 -22 -70t-64 -28q-29 0 -45.5 14.5t-16.5 38.5q0 28 16 53h36q7 19 7 28q0 37 -56 37q-45 0 -79.5 -26t-53.5 -68.5
t-28 -88.5t-9 -93q0 -63 22 -94t70 -31q49 0 80 30.5t57 89.5z" />
    <glyph glyph-name="d" unicode="d" horiz-adv-x="574" 
d="M521 88l29 -28q-43 -71 -118 -71q-89 0 -89 85q0 26 7 51l-6 1q-24 -60 -70 -98.5t-108 -38.5q-74 0 -112 46.5t-38 131.5q0 81 27.5 157.5t87.5 131t140 54.5q86 0 116 -74l42 248l-79 8l8 52l194 6l4 -7l-110 -623q-3 -17 -3 -29q0 -33 30 -33q22 0 48 30zM203 59
q48 0 86.5 54.5t56.5 121t18 120.5q0 99 -77 99q-37 0 -66.5 -28t-46.5 -72.5t-25.5 -94t-8.5 -98.5q0 -50 14 -76t49 -26z" />
    <glyph glyph-name="e" unicode="e" horiz-adv-x="474" 
d="M373 180l53 -19q-26 -81 -86 -126.5t-143 -45.5q-88 0 -135 50.5t-47 141.5q0 85 34 159.5t100 122t148 47.5q67 0 104.5 -31t37.5 -89q0 -130 -183 -169q-61 -12 -117 -14v-20q0 -66 22 -97t72 -31q44 0 77.5 28t62.5 93zM146 261q27 2 51 7q62 13 96.5 42t34.5 85
q0 63 -49 63q-46 0 -83.5 -53.5t-49.5 -143.5z" />
    <glyph glyph-name="f" unicode="f" horiz-adv-x="355" 
d="M23 -41l89 478h-76l11 62h76l7 33q52 240 238 240q61 0 94 -28.5t33 -72.5q0 -36 -21.5 -59t-58.5 -23q-28 0 -43.5 15.5t-15.5 39.5q0 14 6 30l35 4q6 12 6 22q0 25 -41 25q-45 0 -68.5 -34t-34.5 -94l-18 -98h142l-12 -62h-142l-77 -411q-22 -117 -76.5 -177.5
t-151.5 -60.5q-62 0 -95.5 27t-33.5 68q0 36 22 59.5t60 23.5q28 0 43.5 -15t15.5 -40q0 -17 -5 -31l-39 -6q-4 -8 -4 -15q0 -25 38 -25q48 0 67 31.5t30 93.5z" />
    <glyph glyph-name="g" unicode="g" horiz-adv-x="553" 
d="M131 -113l-45 -7q-4 -10 -4 -16q0 -29 62 -29q71 0 111.5 48t67.5 138q6 20 17 62.5t13 49.5l-6 2q-53 -126 -182 -126q-71 0 -108 46t-37 132q0 78 27 150t86 122.5t137 50.5q90 0 121 -81l19 69q62 -2 113 6q-16 -72 -47.5 -238.5t-41.5 -214.5q-53 -262 -295 -262
q-69 0 -109.5 26.5t-40.5 76.5q0 38 22 61t59 23q27 0 45 -16.5t18 -49.5q0 -7 -2 -23zM211 79q45 0 82 48.5t55 110t18 113.5q0 49 -20 75.5t-57 26.5q-50 0 -84.5 -45.5t-47.5 -103.5t-13 -121q0 -52 15 -78t52 -26z" />
    <glyph glyph-name="h" unicode="h" horiz-adv-x="583" 
d="M518 86l29 -30q-48 -67 -126 -67q-45 0 -71.5 23.5t-26.5 67.5q0 25 7 60.5t14.5 62.5t22.5 78t22 77q9 30 9 49q0 37 -34 37q-47 0 -99 -72.5t-75 -149.5q-28 -93 -44 -219q-71 2 -128 -10l45 194l80 495l-75 9l8 51l189 9l4 -10l-90 -419l6 -3q91 191 220 191
q50 0 76.5 -28t26.5 -80q0 -31 -11 -73q-49 -185 -54 -206q-4 -16 -4 -32q0 -34 31 -34q22 0 48 29z" />
    <glyph glyph-name="i" unicode="i" horiz-adv-x="298" 
d="M184 589q-65 0 -65 59q0 37 24 61.5t63 24.5q64 0 64 -61q0 -37 -23.5 -60.5t-62.5 -23.5zM240 84l27 -27q-47 -68 -123 -68q-103 0 -103 95q0 31 21 126q49 212 52 223l-77 8l8 52l193 9l4 -8q-78 -348 -83 -379q-10 -59 31 -59q25 0 50 28z" />
    <glyph glyph-name="j" unicode="j" horiz-adv-x="282" 
d="M-65 -120l-42 -6q-3 -9 -3 -15q0 -25 40 -25q43 0 62.5 37t34.5 124l77 439l-76 6l9 53l189 9l4 -10l-77 -442q-21 -121 -74 -191t-154 -70q-59 0 -92 24.5t-33 66.5q0 37 21.5 60.5t59.5 23.5q26 0 42 -15t16 -41q0 -15 -4 -28zM174 589q-64 0 -64 59q0 37 23.5 61.5
t62.5 24.5q64 0 64 -61q0 -37 -23.5 -60.5t-62.5 -23.5z" />
    <glyph glyph-name="k" unicode="k" horiz-adv-x="542" 
d="M483 89l29 -28q-20 -29 -54 -50.5t-75 -21.5q-51 0 -77 22.5t-26 61.5q0 20 6 41l16 57q3 12 3 21q0 42 -50 42q-38 0 -82 -23l-35 -207q-71 0 -121 -13l50 222l74 471l-76 8l8 50l191 8l3 -8l-86 -470l87 50q65 37 87 55t20 39l-38 14q-4 35 17 61t60 26
q33 0 51.5 -20.5t18.5 -47.5q0 -55 -66 -92q-111 -61 -153 -82l3 -5q33 5 54 5q96 0 96 -75q0 -17 -6 -38l-14 -52q-4 -18 -4 -23q0 -31 34 -31q28 0 55 33z" />
    <glyph glyph-name="l" unicode="l" horiz-adv-x="300" 
d="M243 84l27 -27q-47 -68 -124 -68q-47 0 -75 24.5t-28 72.5q0 30 41 240q37 181 71 356l-75 8l8 52l191 9l4 -8q-61 -284 -121 -628q-11 -59 31 -59q23 0 50 28z" />
    <glyph glyph-name="m" unicode="m" horiz-adv-x="844" 
d="M776 86l28 -31q-46 -66 -124 -66q-46 0 -73 22.5t-27 67.5q0 32 10 75t30 109t28 95q7 25 7 45q0 41 -36 41q-40 0 -79 -60.5t-71 -150.5q-32 -92 -54 -230q-28 1 -121 -9q53 206 87 365q6 30 6 49q0 36 -29 36q-47 0 -93.5 -71t-70.5 -151q-30 -99 -45 -219
q-70 2 -127 -10l45 194l34 246l-76 10l9 51l187 9l4 -10l-43 -173l6 -3q24 54 48.5 92.5t67.5 69.5t94 31q84 0 84 -83q0 -39 -22 -98l7 -2q44 98 89 140.5t103 42.5q52 0 79.5 -29.5t27.5 -82.5q0 -27 -10 -69q-7 -28 -20 -74t-22.5 -81t-15.5 -64q-10 -53 29 -53
q23 0 49 29z" />
    <glyph glyph-name="n" unicode="n" horiz-adv-x="589" 
d="M522 84l27 -27q-49 -68 -124 -68q-45 0 -71.5 23.5t-26.5 67.5q0 25 7 60.5t14.5 63.5t22.5 77.5t22 76.5q8 32 8 50q0 37 -33 37q-48 0 -99.5 -72.5t-74.5 -150.5q-28 -93 -44 -219q-71 2 -128 -10l45 194l34 247l-76 9l9 51l189 9l4 -10l-44 -174l6 -3q92 194 219 194
q50 0 77 -28.5t27 -80.5q0 -30 -11 -72q-53 -200 -55 -208q-4 -24 -4 -32q0 -33 31 -33q23 0 49 28z" />
    <glyph glyph-name="o" unicode="o" horiz-adv-x="532" 
d="M212 43q44 0 76 33t47.5 84t22.5 97.5t7 88.5q0 111 -81 111q-40 0 -70.5 -30t-47 -77.5t-24.5 -97t-8 -97.5q0 -112 78 -112zM203 -11q-97 0 -144 50.5t-47 141.5q0 62 19 120t54 105t90.5 75.5t122.5 28.5q97 0 143.5 -50.5t46.5 -141.5q0 -81 -31.5 -154.5t-98.5 -124
t-155 -50.5z" />
    <glyph glyph-name="p" unicode="p" horiz-adv-x="584" 
d="M235 -200h-293l10 57l62 7l96 570l-78 9l10 51l184 8l4 -10l-31 -130l5 -1q75 149 199 149q66 0 101 -47t35 -130q0 -84 -30.5 -162t-90.5 -130t-134 -52q-48 0 -80 20.5t-45 53.5l-32 -197l118 -9zM269 44q49 0 83.5 49.5t49 116t14.5 137.5q0 46 -13 70t-47 24
q-64 0 -115.5 -96.5t-51.5 -198.5t80 -102z" />
    <glyph glyph-name="q" unicode="q" horiz-adv-x="553" 
d="M479 -200h-288l9 58l97 8l52 259l-6 1q-25 -58 -70.5 -97.5t-106.5 -39.5q-75 0 -113 46.5t-38 131.5q0 86 29.5 163t88.5 128.5t136 51.5q50 0 80 -21t50 -63l69 72h49l-111 -632l82 -8zM202 60q48 0 86.5 54.5t56.5 120.5t18 120q0 45 -19 72t-58 27q-37 0 -66.5 -28
t-46.5 -72.5t-25.5 -94t-8.5 -98.5q0 -50 14 -75.5t49 -25.5z" />
    <glyph glyph-name="r" unicode="r" horiz-adv-x="487" 
d="M22 -8l48 212l34 229l-77 11l9 51l181 8l5 -11l-48 -199l6 -3q20 47 38 80.5t43.5 68t57 53t67.5 18.5q38 0 63.5 -21t25.5 -63q0 -40 -23.5 -60t-61.5 -20q-18 0 -34 4l-4 60q-6 5 -17 5q-42 -5 -82 -68.5t-69 -155.5q-20 -63 -34 -186q-73 -2 -128 -13z" />
    <glyph glyph-name="s" unicode="s" horiz-adv-x="453" 
d="M120 92h-31q-10 -26 10.5 -40t69.5 -14q51 0 81 20.5t30 62.5q0 18 -7.5 31.5t-25.5 24.5t-30.5 16.5t-40.5 16.5q-52 20 -82 49t-30 86q0 75 61.5 120t147.5 45q69 0 109.5 -27t40.5 -77q0 -35 -18.5 -56.5t-53.5 -21.5q-23 0 -39 11.5t-16 31.5q0 27 15 46h30
q9 22 -9 33.5t-56 11.5q-45 0 -79 -20t-34 -59q0 -20 15 -35.5t30.5 -23.5t47.5 -21t49 -21.5t40.5 -26t34 -41t10.5 -55.5q0 -78 -63 -124t-159 -46q-81 0 -122 32t-41 82q0 37 20 59.5t54 22.5q25 0 40.5 -13.5t15.5 -35.5q0 -25 -15 -44z" />
    <glyph glyph-name="t" unicode="t" horiz-adv-x="358" 
d="M292 107l33 -33q-60 -85 -151 -85q-63 0 -93.5 29t-30.5 77q0 26 20 144l35 198h-72l11 62h71l22 127l87 20h34l-25 -147h105l-11 -62h-104l-44 -252q-10 -58 -10 -79q0 -24 10.5 -34.5t33.5 -10.5q36 0 79 46z" />
    <glyph glyph-name="u" unicode="u" horiz-adv-x="593" 
d="M533 88l30 -28q-47 -71 -116 -71q-95 0 -95 85q0 22 8 56l9 36l-5 3q-38 -81 -86 -130.5t-121 -49.5q-110 0 -110 113q0 22 5 50q17 88 59 284l-73 8l9 52l186 7l6 -9q-55 -218 -77 -353q-4 -26 -4 -40q0 -45 41 -45q46 0 92 67t72 154q29 96 45 219q70 -2 127 10
q-44 -195 -69 -333q-12 -62 -12 -84q0 -31 32 -31q22 0 47 30z" />
    <glyph glyph-name="v" unicode="v" horiz-adv-x="552" 
d="M409 400l-31 -40q-24 7 -40 25.5t-16 44.5q0 36 22.5 58t61.5 22q52 0 79 -35.5t27 -89.5t-19.5 -119.5t-54.5 -128.5t-95.5 -105.5t-131.5 -42.5q-66 0 -103.5 31.5t-37.5 96.5q0 23 4 44q8 49 43 218q5 25 5 33q0 25 -20 25q-15 0 -26.5 -10t-32.5 -38l-38 26
q56 95 144 95q43 0 68.5 -22.5t25.5 -66.5q0 -11 -4 -35q-8 -41 -21.5 -106t-22.5 -115q-6 -38 -6 -49q0 -30 14 -44.5t46 -14.5q50 0 96 51.5t71 119.5t25 123q0 48 -32 49z" />
    <glyph glyph-name="w" unicode="w" horiz-adv-x="829" 
d="M685 401l-30 -41q-23 7 -40 26.5t-17 45.5q0 34 22.5 56t61.5 22q52 0 79.5 -35.5t27.5 -89.5q0 -43 -12 -94.5t-37.5 -105t-60.5 -97t-86 -71.5t-108 -28q-111 0 -137 81q-71 -81 -161 -81q-56 0 -87.5 29t-31.5 88q0 23 4 44q1 6 48 241q8 46 -18 46q-15 0 -27 -10.5
t-32 -37.5l-38 26q56 95 148 95q41 0 64.5 -21.5t23.5 -63.5q0 -19 -4 -36q-7 -37 -21 -104.5t-22 -112.5q-8 -40 -8 -61q0 -50 45 -50q60 0 110 82q44 181 75 352q61 -2 121 10q-58 -231 -75 -356q-2 -11 -2 -31q0 -32 13.5 -46t47.5 -14q49 0 96.5 51.5t74 119.5t26.5 123
q0 48 -33 49z" />
    <glyph glyph-name="x" unicode="x" horiz-adv-x="607" 
d="M507 112l41 -24q-46 -99 -128 -99q-45 0 -70.5 21.5t-45.5 71.5l-36 92l-71 -106q-25 -37 -51 -58t-63 -21q-32 0 -54.5 18t-22.5 52q0 33 21.5 52t52.5 19q12 0 24 -3l6 -51q16 -7 30 5.5t34 43.5l71 113l-58 151q-8 21 -12.5 30t-11 14.5t-15.5 5.5q-13 0 -23 -11.5
t-27 -39.5l-41 22q54 100 135 100q44 0 66 -23t40 -72l33 -86l58 91q29 46 55 68t69 22q32 0 55.5 -19t23.5 -55q0 -33 -20 -50.5t-52 -17.5q-15 0 -23 2l-6 51q-15 10 -29.5 -0.5t-38.5 -45.5l-70 -106l59 -156q10 -28 19.5 -39t24.5 -11q14 0 24.5 11t26.5 38z" />
    <glyph glyph-name="y" unicode="y" horiz-adv-x="544" 
d="M64 -118l-44 -10q-7 -37 34 -37q44 0 88 36t97 112q-72 288 -100 383q-10 31 -18 42.5t-21 11.5q-15 0 -26.5 -16.5t-25.5 -51.5l-44 21q24 64 54 96t83 32q40 0 65 -23.5t40 -74.5q29 -100 76 -302q47 71 84.5 150t37.5 112q0 35 -28 38l-28 -37q-45 17 -45 69
q0 33 23.5 55t60.5 22q44 0 68.5 -29.5t24.5 -75.5q0 -102 -154 -338q-29 -44 -42 -63t-39.5 -56t-42.5 -54t-42 -41.5t-48 -35.5t-50 -19.5t-57 -8.5q-57 0 -91 25.5t-34 69.5q0 38 24 62t58 24q28 0 47 -15t19 -45q0 -15 -4 -28z" />
    <glyph glyph-name="z" unicode="z" horiz-adv-x="523" 
d="M434 199l44 -8q-43 -202 -152 -202q-49 0 -103 34l-88 56q-26 -90 -84 -90q-25 0 -38 14.5t-13 35.5q0 31 29 53t73 26l231 254q-122 15 -175 15q-29 0 -43 -14.5t-29 -56.5l-44 9q26 102 61 143.5t89 41.5q40 0 100 -38l83 -53q10 47 35 68.5t52 21.5q21 0 34.5 -13
t13.5 -32q0 -28 -25.5 -52.5t-68.5 -30.5l-234 -257q114 -7 171 -7q30 0 46 15.5t35 66.5z" />
    <glyph glyph-name="braceleft" unicode="{" horiz-adv-x="363" 
d="M264 -95l5 -47q-35 -15 -88 -15q-68 0 -98.5 33.5t-20.5 90.5q5 30 33 110.5t35 117.5q10 58 -13 78t-65 21l9 51q19 0 34 3.5t31.5 13t28.5 30.5t17 52q7 39 4.5 110t2.5 102q9 56 51.5 89t110.5 33q39 0 72 -13l-20 -47q-22 8 -41 8q-23 0 -38.5 -13.5t-22.5 -52.5
q-3 -19 -2.5 -95.5t-6.5 -111.5q-6 -35 -18.5 -59t-33 -38t-37 -21t-42.5 -14q15 -5 25 -9t23.5 -12t19.5 -17t14 -23.5t7 -31.5t-3 -41q-6 -36 -33.5 -120.5t-30.5 -101.5q-12 -69 46 -69q25 0 45 9z" />
    <glyph glyph-name="bar" unicode="|" horiz-adv-x="325" 
d="M120 -127h-65l157 922h66z" />
    <glyph glyph-name="braceright" unicode="}" horiz-adv-x="363" 
d="M-47 -144l20 47q22 -8 42 -8q22 0 37.5 13.5t22.5 52.5q3 19 2.5 95.5t6.5 111.5q6 35 19 59t33.5 38t36.5 21t42 14q-13 4 -21.5 7.5t-20 10t-18 13t-15 16.5t-10 22t-4 29t2.5 36q6 35 33.5 119.5t30.5 102.5q12 69 -46 69q-25 0 -44 -9l-6 47q35 15 88 15
q68 0 98.5 -33.5t20.5 -90.5q-5 -29 -33 -110t-34 -118q-10 -58 13 -78t64 -21l-9 -51q-19 0 -34 -3.5t-31.5 -13t-28.5 -30.5t-17 -52q-6 -38 -4 -109.5t-3 -102.5q-9 -56 -51.5 -89t-110.5 -33q-40 0 -72 13z" />
    <glyph glyph-name="asciitilde" unicode="~" horiz-adv-x="536" 
d="M457 405l32 -9q-38 -116 -108 -116q-46 0 -136 23q-72 17 -101 17q-18 0 -31.5 -9.5t-29.5 -37.5l-28 11q37 114 117 114q36 0 116 -19q70 -18 112 -18q21 0 32 9t25 35z" />
    <glyph glyph-name="uni00A0" unicode="&#xa0;" horiz-adv-x="200" 
 />
    <glyph glyph-name="exclamdown" unicode="&#xa1;" horiz-adv-x="383" 
d="M175 318h55l-12 -72q-16 -96 -20 -205q-1 -26 -1 -61.5t-0.5 -59t-2.5 -40.5q-3 -38 -25 -61.5t-60 -23.5q-58 0 -58 56q0 36 32 120q59 153 80 276zM236 509q30 0 44 -16.5t14 -39.5q0 -35 -23.5 -57.5t-57.5 -22.5q-27 0 -43 13.5t-16 39.5q0 36 23.5 59.5t58.5 23.5z
" />
    <glyph glyph-name="cent" unicode="&#xa2;" horiz-adv-x="484" 
d="M92 -57l42 113q-96 37 -96 163q0 125 72.5 200.5t188.5 77.5l39 102l43 -10l-37 -98q103 -23 103 -106q0 -43 -21.5 -69.5t-56.5 -26.5q-26 0 -40 13t-14 34q0 22 14 46h32q6 14 6 25q0 30 -41 37l-122 -326q16 -8 43 -8q42 0 69 23t50 70l50 -16q-21 -63 -71.5 -104
t-123.5 -41q-20 0 -44 4l-43 -114zM160 225q0 -47 10 -72l108 289q-56 -15 -87 -77.5t-31 -139.5z" />
    <glyph glyph-name="sterling" unicode="&#xa3;" horiz-adv-x="574" 
d="M477 173l42 -3q-10 -91 -44 -136t-80 -45q-25 0 -59.5 11t-53 19.5t-62.5 31.5l-43 23q-36 -76 -126 -76q-42 0 -64 21.5t-22 54.5q0 52 37.5 79.5t83.5 27.5q23 0 58 -7q2 45 -10 114h-102l7 48h87q-11 50 -11 86q0 111 76.5 176t194.5 65q79 0 122.5 -34.5t43.5 -87.5
q0 -47 -23 -71t-61 -24q-28 0 -44 14t-16 37t12 48h38q8 16 8 27q0 19 -18 30t-43 11q-72 0 -106.5 -43.5t-47.5 -126.5l-17 -107h178l-7 -48h-177q-7 -52 -26 -127q46 -13 120.5 -45t94.5 -32q23 0 36.5 19t23.5 70zM129 95q-37 15 -66 15q-43 0 -43 -35q0 -33 38 -33
q23 0 42 14t29 39z" />
    <glyph glyph-name="currency" unicode="&#xa4;" horiz-adv-x="521" 
d="M467 95l-35 -34l-91 76q-37 -24 -85 -24q-54 0 -89 23l-89 -74l-33 34l72 88q-22 36 -22 96q0 51 22 87l-75 88l37 38l87 -74q39 26 93 26q53 0 87 -23l91 67l31 -35l-73 -84q21 -35 21 -87q0 -54 -25 -95zM257 175q43 0 65 29.5t22 75.5q0 106 -89 106
q-46 0 -66.5 -29.5t-20.5 -76.5q0 -105 89 -105z" />
    <glyph glyph-name="yen" unicode="&#xa5;" horiz-adv-x="570" 
d="M370 0h-290l10 58l82 7l13 87h-147l7 45h148l9 55l-12 28h-131l8 46h103l-66 148l-55 7l9 58h255l-10 -58l-61 -7l64 -162h4l126 162l-55 7l9 58h180l-9 -58l-59 -7l-115 -148h104l-9 -46h-131l-20 -26l-10 -57h148l-8 -45h-147l-15 -87l80 -7z" />
    <glyph glyph-name="brokenbar" unicode="&#xa6;" horiz-adv-x="325" 
d="M213 412h-66l65 383h66zM120 -127h-65l74 437h66z" />
    <glyph glyph-name="section" unicode="&#xa7;" horiz-adv-x="577" 
d="M140 -52l-32 -3q-5 -12 -5 -19q0 -17 18.5 -26.5t45.5 -9.5q61 0 93.5 25.5t32.5 70.5q0 16 -6 31.5t-12 26t-23 25.5t-24.5 20.5t-32 23t-29.5 21.5q-52 37 -80.5 75.5t-28.5 95.5q0 54 30.5 100t84.5 75q-5 22 -5 44q0 88 63.5 137.5t151.5 49.5q67 0 108 -28.5
t41 -78.5q0 -40 -19.5 -63t-55.5 -23q-25 0 -40 14t-15 36q0 14 9 36l33 3q4 8 4 18q0 17 -17.5 27t-43.5 10q-62 0 -95 -25t-33 -66q0 -22 8 -40.5t25 -36t31 -29t40.5 -30.5t39.5 -29q43 -33 67 -70t24 -89q0 -55 -30 -100.5t-85 -74.5q5 -23 5 -44q0 -88 -63.5 -137.5
t-151.5 -49.5q-67 0 -108 28.5t-41 78.5q0 40 20 63t55 23q25 0 40 -14t15 -36q0 -14 -9 -36zM360 114q44 30 44 80q0 37 -23 65.5t-67 61.5q-5 4 -22 16.5t-24.5 18.5t-22 17.5t-22.5 20t-17.5 20.5t-16.5 24q-40 -30 -40 -79q0 -29 16 -56t34 -42.5t52 -40.5
q27 -20 42 -32t35 -32.5t32 -41.5z" />
    <glyph glyph-name="dieresis" unicode="&#xa8;" horiz-adv-x="500" 
d="M251 590q-53 0 -53 51q0 29 19 51t51 22q54 0 54 -50q0 -32 -19 -53t-52 -21zM452 590q-53 0 -53 51q0 29 19 51t51 22q54 0 54 -50q0 -32 -19 -53t-52 -21z" />
    <glyph glyph-name="copyright" unicode="&#xa9;" horiz-adv-x="768" 
d="M709 320q0 -148 -90 -239.5t-235 -91.5q-156 0 -240.5 88.5t-84.5 228.5q0 151 93.5 240.5t233.5 89.5q149 0 236 -85.5t87 -230.5zM386 26q127 0 201 78.5t74 209.5q0 134 -76 209.5t-199 75.5q-121 0 -198.5 -79t-78.5 -213q0 -129 74.5 -205t202.5 -76zM520 127h-26
q-7 19 -14 19q-3 0 -15 -6t-33 -12.5t-46 -6.5q-77 0 -126 49t-49 147q0 91 53 143.5t127 52.5q30 0 57.5 -11.5t28.5 -11.5q6 0 14 18h25l3 -122h-29q-10 47 -31 67.5t-57 20.5q-99 0 -99 -157t102 -157q36 0 57 21t33 69h29z" />
    <glyph glyph-name="ordfeminine" unicode="&#xaa;" horiz-adv-x="445" 
d="M435 359l23 -22q-35 -52 -91 -52q-45 0 -61.5 25t-5.5 67l-4 1q-14 -39 -47.5 -66t-80.5 -27q-54 0 -82 32t-28 91q0 89 50 160.5t133 71.5q64 0 85 -54l13 45q66 0 98 5q-41 -170 -55 -257q-6 -39 20 -39q16 0 33 19zM204 337q31 0 56 36.5t36 79t11 76.5q0 67 -49 67
q-33 0 -56.5 -35.5t-32 -77.5t-8.5 -82q0 -64 43 -64z" />
    <glyph glyph-name="guillemotleft" unicode="&#xab;" horiz-adv-x="496" 
d="M222 73l-35 -28l-132 132q-23 23 -23 46q0 20 21 41l197 142l27 -35l-141 -149zM403 73l-34 -28l-133 132q-23 24 -23 46q0 20 21 41l197 142l27 -35l-141 -149z" />
    <glyph glyph-name="logicalnot" unicode="&#xac;" 
d="M503 162h-62l19 114h-392l9 58h454z" />
    <glyph glyph-name="uni00AD" unicode="&#xad;" horiz-adv-x="337" 
d="M279 246h-230l15 79h231z" />
    <glyph glyph-name="registered" unicode="&#xae;" horiz-adv-x="451" 
d="M438 480q0 -84 -51.5 -136t-134.5 -52q-89 0 -137.5 50.5t-48.5 130.5q0 86 53.5 137.5t132.5 51.5q86 0 136 -49.5t50 -132.5zM252 326q68 0 107 41t39 110q0 71 -40.5 111.5t-105.5 40.5q-66 0 -105.5 -42t-39.5 -113q0 -69 38 -108.5t107 -39.5zM341 431l16 -2
q-2 -14 -4.5 -22t-12 -15.5t-24.5 -7.5q-41 0 -41 33v32q0 13 -7 19t-25 6h-13v-67l26 -3v-17h-89v17l21 3v150l-21 4v18h74q39 0 60.5 -9t21.5 -36q0 -42 -59 -47v-1q29 -2 40.5 -12.5t10.5 -34.5v-16q0 -16 12 -16q7 0 9 4.5t5 19.5zM230 495h3q48 0 48 33q0 18 -9.5 23.5
t-36.5 5.5h-5v-62z" />
    <glyph glyph-name="macron" unicode="&#xaf;" horiz-adv-x="500" 
d="M488 609h-272l14 76h272z" />
    <glyph glyph-name="degree" unicode="&#xb0;" horiz-adv-x="329" 
d="M80 627q0 -40 22 -64t64 -24q38 0 61 24.5t23 63.5q0 41 -23.5 64.5t-63.5 23.5q-38 0 -60.5 -24t-22.5 -64zM40 627q0 51 33.5 85.5t93.5 34.5q59 0 90.5 -32t31.5 -86q0 -53 -33 -88t-92 -35q-61 0 -92.5 33.5t-31.5 87.5z" />
    <glyph glyph-name="plusminus" unicode="&#xb1;" 
d="M545 276h-198l-29 -174h-65l29 174h-191l9 58h191l30 175h65l-30 -175h198zM499 0h-454l9 58h454z" />
    <glyph glyph-name="twosuperior" unicode="&#xb2;" horiz-adv-x="330" 
d="M312 400h-275l9 59l81 74q70 65 98.5 108t28.5 84q0 56 -53 56q-23 0 -35.5 -11t-8.5 -29h23q1 -5 1 -14q0 -24 -13.5 -38t-39.5 -14q-22 0 -34 12.5t-12 33.5q0 43 42.5 70.5t108.5 27.5q65 0 96 -27.5t31 -70.5q0 -29 -10.5 -52.5t-36 -48t-50.5 -42.5t-72 -50l-18 -12
l-58 -39v-2h95q42 0 59.5 11.5t27.5 40.5h39z" />
    <glyph glyph-name="threesuperior" unicode="&#xb3;" horiz-adv-x="341" 
d="M110 465q-5 -8 -5 -17q0 -20 41 -20q45 0 73 29t28 79q0 64 -50 64q-21 0 -64 -13l-5 31q62 19 96.5 46.5t34.5 72.5q0 47 -48 47q-19 0 -33.5 -7t-14.5 -20q0 -3 2 -9h22q2 -10 2 -16q0 -21 -13.5 -34t-39.5 -13q-21 0 -32 12t-11 31q0 41 41.5 66t109.5 25
q57 0 86.5 -21t29.5 -58q0 -41 -35 -66.5t-107 -45.5l-1 -4q17 4 39 4q46 0 71 -23.5t25 -63.5q0 -69 -62 -108t-142 -39q-54 0 -81 20t-27 55q0 27 16 44.5t44 17.5q43 0 43 -37q0 -13 -7 -29h-26z" />
    <glyph glyph-name="acute" unicode="&#xb4;" horiz-adv-x="500" 
d="M423 681l-135 -125l-25 17l94 179l47 10q18 4 33 -4t15 -27q0 -23 -29 -50z" />
    <glyph glyph-name="mu" unicode="&#xb5;" horiz-adv-x="577" 
d="M500 56l6 -44q-40 -22 -88 -22q-91 0 -70 102l-5 3q-51 -106 -145 -106q-16 0 -30.5 4t-32 13.5t-30 31t-17.5 52.5l-7 -2q8 -71 20.5 -149.5t13.5 -103.5q1 -30 -23 -43.5t-54 -6.5l-45 10l113 697l117 9l-54 -336q-8 -53 4 -75.5t52 -22.5q44 0 79 32.5t44 91.5l50 301
l116 9l-64 -399q-5 -24 -1 -38t19 -14q14 0 32 6z" />
    <glyph glyph-name="paragraph" unicode="&#xb6;" horiz-adv-x="647" 
d="M432 91l92 542h-67l-67 -388h-78q-98 0 -159.5 51.5t-61.5 149.5q0 129 84.5 191.5t226.5 62.5h267l-10 -61l-66 -7l-88 -527q-23 -137 -86.5 -197.5t-167.5 -60.5q-81 0 -129.5 37t-48.5 92q0 44 24.5 70.5t65.5 26.5q37 0 56 -27.5t8 -76.5l-47 -8q-12 -27 8 -44.5
t67 -17.5q66 0 113.5 48t63.5 144z" />
    <glyph glyph-name="periodcentered" unicode="&#xb7;" horiz-adv-x="276" 
d="M126 215q-36 0 -52 19t-16 47q0 42 27.5 68.5t67.5 26.5q32 0 50.5 -16t18.5 -47q0 -43 -28.5 -70.5t-67.5 -27.5z" />
    <glyph glyph-name="cedilla" unicode="&#xb8;" horiz-adv-x="500" 
d="M187 -155l-22 -15q-3 -21 32 -21q25 0 42 17t17 48q0 42 -42 42q-22 0 -39 -5l-4 23l63 79h45l-51 -65q10 3 29 3q37 0 57 -19.5t20 -51.5q0 -45 -39 -74t-98 -29q-40 0 -61 17t-21 40q0 17 10.5 29t28.5 12q14 0 23 -8t10 -22z" />
    <glyph glyph-name="onesuperior" unicode="&#xb9;" horiz-adv-x="286" 
d="M281 400h-228l8 48l71 6l45 261q-20 -4 -48 -2t-43 6l10 45q88 -7 137 49h59l-63 -359l61 -6z" />
    <glyph glyph-name="ordmasculine" unicode="&#xba;" horiz-adv-x="417" 
d="M212 326q27 0 48 23.5t31.5 58t16 67t5.5 57.5q0 68 -52 68q-33 0 -57 -36t-33 -81t-9 -89q0 -36 11.5 -52t38.5 -16zM202 285q-144 0 -144 132q0 91 57.5 157t156.5 66q143 0 143 -133q0 -89 -57.5 -155.5t-155.5 -66.5z" />
    <glyph glyph-name="guillemotright" unicode="&#xbb;" horiz-adv-x="496" 
d="M242 187l-197 -142l-26 35l140 149l-85 149l34 28l132 -132q23 -23 23 -46q0 -20 -21 -41zM424 187l-197 -142l-27 35l141 149l-86 149l34 28l133 -132q23 -24 23 -46q0 -20 -21 -41z" />
    <glyph glyph-name="onequarter" unicode="&#xbc;" horiz-adv-x="900" 
d="M306 292h-228l8 48l71 6l45 261q-20 -4 -48 -2t-43 6l10 45q88 -7 137 49h59l-63 -359l61 -6zM221 -4h-65l546 708h63zM538 0l9 49l70 5l11 60h-172l10 58l216 241h93l-42 -241h30l11 37h38l-22 -129h-37l2 34h-33l-11 -60l47 -5l-8 -49h-212zM515 172h123l30 167h-3z
" />
    <glyph glyph-name="onehalf" unicode="&#xbd;" horiz-adv-x="900" 
d="M297 292h-228l8 48l71 6l45 261q-20 -4 -48 -2t-43 6l10 45q88 -7 137 49h59l-63 -359l61 -6zM200 -4h-65l546 708h63zM769 0h-275l9 59l81 74q70 65 98.5 108t28.5 84q0 56 -53 56q-23 0 -35.5 -11t-8.5 -29h23q1 -5 1 -14q0 -24 -13.5 -38t-39.5 -14q-22 0 -34 12.5
t-12 33.5q0 43 42.5 70.5t108.5 27.5q65 0 96 -27.5t31 -70.5q0 -29 -10.5 -52.5t-36 -48t-50.5 -42.5t-72 -50l-18 -12l-58 -39v-2h95q42 0 59.5 11.5t27.5 40.5h39z" />
    <glyph glyph-name="threequarters" unicode="&#xbe;" horiz-adv-x="900" 
d="M121 357q-5 -8 -5 -17q0 -20 41 -20q45 0 73 29t28 79q0 64 -50 64q-21 0 -64 -13l-5 31q62 19 96.5 46.5t34.5 72.5q0 47 -48 47q-19 0 -33.5 -7t-14.5 -20q0 -3 2 -9h22q2 -10 2 -16q0 -21 -13.5 -34t-39.5 -13q-21 0 -32 12t-11 31q0 41 41.5 66t109.5 25
q57 0 86.5 -21t29.5 -58q0 -41 -35 -66.5t-107 -45.5l-1 -4q17 4 39 4q46 0 71 -23.5t25 -63.5q0 -69 -62 -108t-142 -39q-54 0 -81 20t-27 55q0 27 16 44.5t44 17.5q43 0 43 -37q0 -13 -7 -29h-26zM223 -4h-65l546 708h63zM544 0l9 49l70 5l11 60h-172l10 58l216 241h93
l-42 -241h30l11 37h38l-22 -129h-37l2 34h-33l-11 -60l47 -5l-8 -49h-212zM521 172h123l30 167h-3z" />
    <glyph glyph-name="questiondown" unicode="&#xbf;" horiz-adv-x="511" 
d="M305 510q30 0 44 -16.5t14 -39.5q0 -35 -23.5 -57.5t-57.5 -22.5q-26 0 -42 13.5t-16 39.5q0 36 23 59.5t58 23.5zM136 184l-53 14q15 54 56 87.5t107 33.5q70 0 108.5 -33.5t38.5 -89.5q0 -54 -29.5 -89.5t-72 -52.5t-85 -31t-72 -38t-29.5 -62q0 -37 26 -57.5t70 -20.5
q49 0 74.5 17t17.5 45h-31q-3 12 -3 24q0 29 17.5 47t50.5 18q31 0 47.5 -18.5t16.5 -45.5q0 -65 -63.5 -100.5t-138.5 -35.5q-88 0 -135 39t-47 99q0 48 22 82.5t55 51.5t71.5 32t71.5 25.5t55 30.5t22 49q0 61 -69 61q-71 0 -99 -82z" />
    <glyph glyph-name="Agrave" unicode="&#xc0;" horiz-adv-x="669" 
d="M613 0h-283l9 57l76 8l-21 142h-217l-72 -142l70 -8l-9 -57h-211l9 57l65 8l341 636h74l112 -636l66 -8zM387 273l-39 252h-3l-137 -252h179zM482 734l-150 79q-20 11 -28 20t-8 25q0 17 13 28.5t33 15.5l34 6l129 -151z" />
    <glyph glyph-name="Aacute" unicode="&#xc1;" horiz-adv-x="669" 
d="M613 0h-283l9 57l76 8l-21 142h-217l-72 -142l70 -8l-9 -57h-211l9 57l65 8l341 636h74l112 -636l66 -8zM387 273l-39 252h-3l-137 -252h179zM504 810l-162 -75l-19 26l152 149l41 -11q34 -8 34 -37q0 -31 -46 -52z" />
    <glyph glyph-name="Acircumflex" unicode="&#xc2;" horiz-adv-x="669" 
d="M613 0h-283l9 57l76 8l-21 142h-217l-72 -142l70 -8l-9 -57h-211l9 57l65 8l341 636h74l112 -636l66 -8zM387 273l-39 252h-3l-137 -252h179zM572 759l-26 -23l-117 82l-157 -85l-19 30l146 132q22 11 44 11q16 0 26 -7.5t23 -25.5z" />
    <glyph glyph-name="Atilde" unicode="&#xc3;" horiz-adv-x="669" 
d="M613 0h-283l9 57l76 8l-21 142h-217l-72 -142l70 -8l-9 -57h-211l9 57l65 8l341 636h74l112 -636l66 -8zM387 273l-39 252h-3l-137 -252h179zM570 873l29 -9q-46 -111 -124 -111q-35 0 -85 23q-37 16 -56 16q-30 0 -56 -44l-29 10q25 57 54.5 83.5t71.5 26.5q9 0 17.5 -1
t14 -2t13.5 -4t11.5 -4.5t13 -6t12.5 -5.5q36 -15 56 -15q18 0 30 9t27 34z" />
    <glyph glyph-name="Adieresis" unicode="&#xc4;" horiz-adv-x="669" 
d="M613 0h-283l9 57l76 8l-21 142h-217l-72 -142l70 -8l-9 -57h-211l9 57l65 8l341 636h74l112 -636l66 -8zM387 273l-39 252h-3l-137 -252h179zM311 758q-53 0 -53 48q0 10 1 15q5 25 24 42.5t48 17.5q24 0 39 -12t15 -35q0 -33 -20.5 -54.5t-53.5 -21.5zM512 758
q-53 0 -53 48q0 10 1 15q5 25 24 42.5t48 17.5q24 0 39 -12t15 -35q0 -33 -20.5 -54.5t-53.5 -21.5z" />
    <glyph glyph-name="Aring" unicode="&#xc5;" horiz-adv-x="669" 
d="M613 0h-283l9 57l76 8l-21 142h-217l-72 -142l70 -8l-9 -57h-211l9 57l65 8l341 636h74l112 -636l66 -8zM387 273l-39 252h-3l-137 -252h179zM418 776q27 0 41 18.5t14 43.5q0 43 -39 43q-24 0 -40.5 -18.5t-16.5 -45.5q0 -41 41 -41zM532 845q0 -50 -34 -83t-88 -33
q-46 0 -69 22t-23 60q0 50 35.5 83t90.5 33q42 0 65 -22.5t23 -59.5z" />
    <glyph glyph-name="AE" unicode="&#xc6;" horiz-adv-x="1024" 
d="M570 636h-44l-175 -263h173zM372 643l10 57h627l-28 -204h-53q-3 88 -34.5 115t-125.5 27h-69l-47 -265h38q54 0 81 24t50 90h43l-53 -296h-45q2 77 -15 99.5t-78 22.5h-31l-43 -249h69q76 0 120 16.5t70 51.5t50 105h54l-49 -237h-526l10 57l73 8l43 245h-203l-159 -245
l73 -8l-10 -57h-229l10 57l66 8l383 571z" />
    <glyph glyph-name="Ccedilla" unicode="&#xc7;" horiz-adv-x="626" 
d="M238 -155l-22 -15q-3 -21 32 -21q25 0 42 17t17 48q0 42 -42 42q-22 0 -39 -5l-4 23l45 57q-110 8 -171 77t-61 198q0 116 46 217t133.5 164.5t196.5 63.5q51 0 99.5 -17.5t50.5 -17.5q14 0 28 23q1 2 2 3h47l-30 -220h-56q-5 87 -37 126t-101 39q-66 0 -115.5 -39
t-75.5 -100.5t-38.5 -125t-12.5 -126.5q0 -198 154 -198q73 0 123.5 41.5t81.5 132.5l59 -15q-18 -64 -51.5 -110.5t-74 -70.5t-77.5 -34.5t-76 -12.5l-32 -41q11 3 29 3q37 0 57 -19.5t20 -51.5q0 -45 -39 -74t-98 -29q-40 0 -61 17t-21 40q0 17 10.5 29t28.5 12
q31 0 33 -30z" />
    <glyph glyph-name="Egrave" unicode="&#xc8;" horiz-adv-x="625" 
d="M520 0h-520l9 57l70 8l97 570l-67 8l10 57h496l-27 -204h-56q-4 87 -36 114.5t-123 27.5h-68l-43 -252h37q52 0 77.5 24t48.5 90h45l-51 -296h-48q2 76 -14.5 99t-75.5 23h-29l-45 -262h68q107 0 155 36t81 137h56zM461 734l-150 79q-20 11 -28 20t-8 25q0 17 13 28.5
t33 15.5l34 6l129 -151z" />
    <glyph glyph-name="Eacute" unicode="&#xc9;" horiz-adv-x="625" 
d="M520 0h-520l9 57l70 8l97 570l-67 8l10 57h496l-27 -204h-56q-4 87 -36 114.5t-123 27.5h-68l-43 -252h37q52 0 77.5 24t48.5 90h45l-51 -296h-48q2 76 -14.5 99t-75.5 23h-29l-45 -262h68q107 0 155 36t81 137h56zM483 810l-162 -75l-19 26l152 149l41 -11q34 -8 34 -37
q0 -31 -46 -52z" />
    <glyph glyph-name="Ecircumflex" unicode="&#xca;" horiz-adv-x="625" 
d="M520 0h-520l9 57l70 8l97 570l-67 8l10 57h496l-27 -204h-56q-4 87 -36 114.5t-123 27.5h-68l-43 -252h37q52 0 77.5 24t48.5 90h45l-51 -296h-48q2 76 -14.5 99t-75.5 23h-29l-45 -262h68q107 0 155 36t81 137h56zM551 759l-26 -23l-117 82l-157 -85l-19 30l146 132
q22 11 44 11q16 0 26 -7.5t23 -25.5z" />
    <glyph glyph-name="Edieresis" unicode="&#xcb;" horiz-adv-x="625" 
d="M520 0h-520l9 57l70 8l97 570l-67 8l10 57h496l-27 -204h-56q-4 87 -36 114.5t-123 27.5h-68l-43 -252h37q52 0 77.5 24t48.5 90h45l-51 -296h-48q2 76 -14.5 99t-75.5 23h-29l-45 -262h68q107 0 155 36t81 137h56zM290 758q-53 0 -53 48q0 10 1 15q5 25 24 42.5t48 17.5
q24 0 39 -12t15 -35q0 -33 -20.5 -54.5t-53.5 -21.5zM491 758q-53 0 -53 48q0 10 1 15q5 25 24 42.5t48 17.5q24 0 39 -12t15 -35q0 -33 -20.5 -54.5t-53.5 -21.5z" />
    <glyph glyph-name="Igrave" unicode="&#xcc;" horiz-adv-x="370" 
d="M267 0h-266l9 57l70 8l98 570l-68 7l10 58h265l-9 -57l-70 -7l-97 -571l67 -7zM331 734l-150 79q-20 11 -28 20t-8 25q0 17 13 28.5t33 15.5l34 6l129 -151z" />
    <glyph glyph-name="Iacute" unicode="&#xcd;" horiz-adv-x="370" 
d="M267 0h-266l9 57l70 8l98 570l-68 7l10 58h265l-9 -57l-70 -7l-97 -571l67 -7zM353 810l-162 -75l-19 26l152 149l41 -11q34 -8 34 -37q0 -31 -46 -52z" />
    <glyph glyph-name="Icircumflex" unicode="&#xce;" horiz-adv-x="370" 
d="M267 0h-266l9 57l70 8l98 570l-68 7l10 58h265l-9 -57l-70 -7l-97 -571l67 -7zM418 759l-26 -23l-117 82l-157 -85l-19 30l146 132q22 11 44 11q16 0 26 -7.5t23 -25.5z" />
    <glyph glyph-name="Idieresis" unicode="&#xcf;" horiz-adv-x="370" 
d="M267 0h-266l9 57l70 8l98 570l-68 7l10 58h265l-9 -57l-70 -7l-97 -571l67 -7zM160 758q-53 0 -53 48q0 10 1 15q5 25 24 42.5t48 17.5q24 0 39 -12t15 -35q0 -33 -20.5 -54.5t-53.5 -21.5zM361 758q-53 0 -53 48q0 10 1 15q5 25 24 42.5t48 17.5q24 0 39 -12t15 -35
q0 -33 -20.5 -54.5t-53.5 -21.5z" />
    <glyph glyph-name="Eth" unicode="&#xd0;" horiz-adv-x="715" 
d="M38 335l10 54h95l42 247l-74 6l10 58h244q325 0 325 -268q0 -197 -122.5 -314.5t-340.5 -117.5h-225l10 58l76 7l46 270h-96zM216 63h32q101 0 172 53.5t102.5 135.5t31.5 184q0 114 -54 157t-167 43h-19l-43 -247h174l-9 -54h-174z" />
    <glyph glyph-name="Ntilde" unicode="&#xd1;" horiz-adv-x="721" 
d="M563 -7h-86l-234 615h-4l-90 -544l67 -6l-10 -58h-197l10 58l60 6l97 571l-58 7l10 58h222l178 -487h4l72 422l-60 7l11 58h188l-11 -58l-59 -7zM604 873l29 -9q-46 -111 -124 -111q-35 0 -85 23q-37 16 -56 16q-30 0 -56 -44l-29 10q25 57 54.5 83.5t71.5 26.5
q9 0 17.5 -1t14 -2t13.5 -4t11.5 -4.5t13 -6t12.5 -5.5q36 -15 56 -15q18 0 30 9t27 34z" />
    <glyph glyph-name="Ograve" unicode="&#xd2;" horiz-adv-x="690" 
d="M296 51q52 0 94.5 29.5t68 75t42.5 104t23.5 111.5t6.5 103q0 87 -29 131.5t-98 44.5q-62 0 -109.5 -39.5t-73.5 -102.5t-39 -130t-13 -132q0 -195 127 -195zM287 -11q-123 0 -187.5 67.5t-64.5 195.5q0 68 15 133t46.5 124.5t76 104t108 71t138.5 26.5q120 0 183 -69.5
t63 -202.5q0 -78 -23 -155t-67.5 -144.5t-119.5 -109t-168 -41.5zM497 734l-150 79q-20 11 -28 20t-8 25q0 17 13 28.5t33 15.5l34 6l129 -151z" />
    <glyph glyph-name="Oacute" unicode="&#xd3;" horiz-adv-x="690" 
d="M296 51q52 0 94.5 29.5t68 75t42.5 104t23.5 111.5t6.5 103q0 87 -29 131.5t-98 44.5q-62 0 -109.5 -39.5t-73.5 -102.5t-39 -130t-13 -132q0 -195 127 -195zM287 -11q-123 0 -187.5 67.5t-64.5 195.5q0 68 15 133t46.5 124.5t76 104t108 71t138.5 26.5q120 0 183 -69.5
t63 -202.5q0 -78 -23 -155t-67.5 -144.5t-119.5 -109t-168 -41.5zM525 810l-162 -75l-19 26l152 149l41 -11q34 -8 34 -37q0 -31 -46 -52z" />
    <glyph glyph-name="Ocircumflex" unicode="&#xd4;" horiz-adv-x="690" 
d="M296 51q52 0 94.5 29.5t68 75t42.5 104t23.5 111.5t6.5 103q0 87 -29 131.5t-98 44.5q-62 0 -109.5 -39.5t-73.5 -102.5t-39 -130t-13 -132q0 -195 127 -195zM287 -11q-123 0 -187.5 67.5t-64.5 195.5q0 68 15 133t46.5 124.5t76 104t108 71t138.5 26.5q120 0 183 -69.5
t63 -202.5q0 -78 -23 -155t-67.5 -144.5t-119.5 -109t-168 -41.5zM587 759l-26 -23l-117 82l-157 -85l-19 30l146 132q22 11 44 11q16 0 26 -7.5t23 -25.5z" />
    <glyph glyph-name="Otilde" unicode="&#xd5;" horiz-adv-x="690" 
d="M296 51q52 0 94.5 29.5t68 75t42.5 104t23.5 111.5t6.5 103q0 87 -29 131.5t-98 44.5q-62 0 -109.5 -39.5t-73.5 -102.5t-39 -130t-13 -132q0 -195 127 -195zM287 -11q-123 0 -187.5 67.5t-64.5 195.5q0 68 15 133t46.5 124.5t76 104t108 71t138.5 26.5q120 0 183 -69.5
t63 -202.5q0 -78 -23 -155t-67.5 -144.5t-119.5 -109t-168 -41.5zM585 873l29 -9q-46 -111 -124 -111q-35 0 -85 23q-37 16 -56 16q-30 0 -56 -44l-29 10q25 57 54.5 83.5t71.5 26.5q9 0 17.5 -1t14 -2t13.5 -4t11.5 -4.5t13 -6t12.5 -5.5q36 -15 56 -15q18 0 30 9t27 34z
" />
    <glyph glyph-name="Odieresis" unicode="&#xd6;" horiz-adv-x="690" 
d="M296 51q52 0 94.5 29.5t68 75t42.5 104t23.5 111.5t6.5 103q0 87 -29 131.5t-98 44.5q-62 0 -109.5 -39.5t-73.5 -102.5t-39 -130t-13 -132q0 -195 127 -195zM287 -11q-123 0 -187.5 67.5t-64.5 195.5q0 68 15 133t46.5 124.5t76 104t108 71t138.5 26.5q120 0 183 -69.5
t63 -202.5q0 -78 -23 -155t-67.5 -144.5t-119.5 -109t-168 -41.5zM326 758q-53 0 -53 48q0 10 1 15q5 25 24 42.5t48 17.5q24 0 39 -12t15 -35q0 -33 -20.5 -54.5t-53.5 -21.5zM527 758q-53 0 -53 48q0 10 1 15q5 25 24 42.5t48 17.5q24 0 39 -12t15 -35q0 -33 -20.5 -54.5
t-53.5 -21.5z" />
    <glyph glyph-name="multiply" unicode="&#xd7;" 
d="M406 82l-112 138l-163 -141q-13 14 -35 42l165 141l-114 136l52 41l111 -135l158 137l36 -43l-161 -136l113 -137q-7 -6 -23 -20.5t-27 -22.5z" />
    <glyph glyph-name="Oslash" unicode="&#xd8;" horiz-adv-x="690" 
d="M287 -11q-48 0 -84 10l-45 -90l-54 24l44 86q-113 60 -113 233q0 68 15 133t46.5 124.5t76 104t108 71t138.5 26.5q41 0 77 -9l43 85l53 -24l-42 -82q115 -61 115 -242q0 -78 -23 -155t-67.5 -144.5t-119.5 -109t-168 -41.5zM296 51q52 0 94.5 29.5t68 75t42.5 104
t23.5 111.5t6.5 103q0 80 -24 122l-270 -532q23 -13 59 -13zM169 246q0 -90 25 -136l269 528q-24 12 -59 12q-62 0 -109.5 -39.5t-73.5 -102.5t-39 -130t-13 -132z" />
    <glyph glyph-name="Ugrave" unicode="&#xd9;" horiz-adv-x="707" 
d="M515 232l69 403l-65 7l10 58h201l-10 -58l-63 -7l-69 -408q-20 -116 -85 -177t-190 -61q-107 0 -164.5 39t-57.5 132q0 37 6 68l70 408l-64 6l10 58h260l-10 -58l-68 -6l-67 -397q-7 -39 -7 -64q0 -54 27.5 -83t93.5 -29q77 0 117.5 41t55.5 128zM498 734l-150 79
q-20 11 -28 20t-8 25q0 17 13 28.5t33 15.5l34 6l129 -151z" />
    <glyph glyph-name="Uacute" unicode="&#xda;" horiz-adv-x="707" 
d="M515 232l69 403l-65 7l10 58h201l-10 -58l-63 -7l-69 -408q-20 -116 -85 -177t-190 -61q-107 0 -164.5 39t-57.5 132q0 37 6 68l70 408l-64 6l10 58h260l-10 -58l-68 -6l-67 -397q-7 -39 -7 -64q0 -54 27.5 -83t93.5 -29q77 0 117.5 41t55.5 128zM543 810l-162 -75
l-19 26l152 149l41 -11q34 -8 34 -37q0 -31 -46 -52z" />
    <glyph glyph-name="Ucircumflex" unicode="&#xdb;" horiz-adv-x="707" 
d="M515 232l69 403l-65 7l10 58h201l-10 -58l-63 -7l-69 -408q-20 -116 -85 -177t-190 -61q-107 0 -164.5 39t-57.5 132q0 37 6 68l70 408l-64 6l10 58h260l-10 -58l-68 -6l-67 -397q-7 -39 -7 -64q0 -54 27.5 -83t93.5 -29q77 0 117.5 41t55.5 128zM600 759l-26 -23
l-117 82l-157 -85l-19 30l146 132q22 11 44 11q16 0 26 -7.5t23 -25.5z" />
    <glyph glyph-name="Udieresis" unicode="&#xdc;" horiz-adv-x="707" 
d="M515 232l69 403l-65 7l10 58h201l-10 -58l-63 -7l-69 -408q-20 -116 -85 -177t-190 -61q-107 0 -164.5 39t-57.5 132q0 37 6 68l70 408l-64 6l10 58h260l-10 -58l-68 -6l-67 -397q-7 -39 -7 -64q0 -54 27.5 -83t93.5 -29q77 0 117.5 41t55.5 128zM339 758q-53 0 -53 48
q0 10 1 15q5 25 24 42.5t48 17.5q24 0 39 -12t15 -35q0 -33 -20.5 -54.5t-53.5 -21.5zM540 758q-53 0 -53 48q0 10 1 15q5 25 24 42.5t48 17.5q24 0 39 -12t15 -35q0 -33 -20.5 -54.5t-53.5 -21.5z" />
    <glyph glyph-name="Yacute" unicode="&#xdd;" horiz-adv-x="594" 
d="M396 0h-290l10 58l82 7l42 250l-121 319l-59 7l10 59h286l-11 -59l-82 -7l84 -245h3l169 245l-69 7l11 59h205l-10 -59l-61 -7l-227 -321l-42 -248l79 -7zM490 810l-162 -75l-19 26l152 149l41 -11q34 -8 34 -37q0 -31 -46 -52z" />
    <glyph glyph-name="Thorn" unicode="&#xde;" horiz-adv-x="616" 
d="M307 0h-312l10 58l75 7l97 571l-73 7l10 57h316l-10 -58l-115 -7l-10 -62h53q249 0 249 -172q0 -85 -48.5 -142.5t-121.5 -81t-166 -23.5h-37l-16 -89l109 -7zM235 218h27q92 0 144 47t52 134q0 61 -34.5 85.5t-97.5 24.5h-41z" />
    <glyph glyph-name="germandbls" unicode="&#xdf;" horiz-adv-x="655" 
d="M355 92h-30q-11 -26 7 -40t65 -14q45 0 72.5 23.5t27.5 62.5q0 32 -19 52.5t-55 41.5q-61 35 -80 55q-33 34 -33 85q0 40 18.5 75.5t45 61.5t53.5 50t45.5 51t18.5 55q0 70 -95 70q-66 0 -95.5 -36.5t-41.5 -103.5l-104 -564q-20 -111 -77.5 -170t-149.5 -59
q-64 0 -98.5 26.5t-34.5 71.5q0 33 19.5 56t54.5 23q30 0 45.5 -16t15.5 -43q0 -7 -4 -27l-36 -6q-14 -41 40 -41q46 0 64.5 31t31.5 102l107 571q44 237 275 237q75 0 117.5 -30t42.5 -82q0 -30 -16 -59t-39 -51.5t-46 -44t-39 -47t-16 -50.5q0 -16 5.5 -29t22 -26t24 -18
t32.5 -20q31 -18 49.5 -33t35 -44.5t16.5 -67.5q0 -80 -55 -131t-145 -51q-79 0 -118 31.5t-39 82.5q0 37 20 59.5t55 22.5q24 0 39.5 -13.5t15.5 -35.5q0 -25 -15 -44z" />
    <glyph glyph-name="agrave" unicode="&#xe0;" horiz-adv-x="573" 
d="M518 88l30 -28q-19 -30 -49.5 -50.5t-66.5 -20.5q-46 0 -69 23t-23 64q0 22 8 52l-5 1q-25 -60 -71 -100t-111 -40q-71 0 -108.5 46t-37.5 132q0 79 27.5 155.5t87.5 132t138 55.5q89 0 120 -81l19 69q60 -2 113 6q-57 -260 -77 -389q-9 -57 28 -57q22 0 47 30zM206 59
q45 0 83 53.5t56 119.5t18 119q0 103 -77 103q-38 0 -68 -29t-46 -74.5t-24.5 -93.5t-8.5 -94q0 -53 15 -78.5t52 -25.5zM387 570l-29 -12l-94 132q-17 23 -17 42q0 22 23 33t44 2l36 -16z" />
    <glyph glyph-name="aacute" unicode="&#xe1;" horiz-adv-x="573" 
d="M518 88l30 -28q-19 -30 -49.5 -50.5t-66.5 -20.5q-46 0 -69 23t-23 64q0 22 8 52l-5 1q-25 -60 -71 -100t-111 -40q-71 0 -108.5 46t-37.5 132q0 79 27.5 155.5t87.5 132t138 55.5q89 0 120 -81l19 69q60 -2 113 6q-57 -260 -77 -389q-9 -57 28 -57q22 0 47 30zM206 59
q45 0 83 53.5t56 119.5t18 119q0 103 -77 103q-38 0 -68 -29t-46 -74.5t-24.5 -93.5t-8.5 -94q0 -53 15 -78.5t52 -25.5zM408 681l-135 -125l-25 17l94 179l47 10q18 4 33 -4t15 -27q0 -23 -29 -50z" />
    <glyph glyph-name="acircumflex" unicode="&#xe2;" horiz-adv-x="573" 
d="M518 88l30 -28q-19 -30 -49.5 -50.5t-66.5 -20.5q-46 0 -69 23t-23 64q0 22 8 52l-5 1q-25 -60 -71 -100t-111 -40q-71 0 -108.5 46t-37.5 132q0 79 27.5 155.5t87.5 132t138 55.5q89 0 120 -81l19 69q60 -2 113 6q-57 -260 -77 -389q-9 -57 28 -57q22 0 47 30zM206 59
q45 0 83 53.5t56 119.5t18 119q0 103 -77 103q-38 0 -68 -29t-46 -74.5t-24.5 -93.5t-8.5 -94q0 -53 15 -78.5t52 -25.5zM456 575l-31 -19l-89 106l-134 -108l-24 23l130 167q18 13 48 13t43 -35z" />
    <glyph glyph-name="atilde" unicode="&#xe3;" horiz-adv-x="573" 
d="M518 88l30 -28q-19 -30 -49.5 -50.5t-66.5 -20.5q-46 0 -69 23t-23 64q0 22 8 52l-5 1q-25 -60 -71 -100t-111 -40q-71 0 -108.5 46t-37.5 132q0 79 27.5 155.5t87.5 132t138 55.5q89 0 120 -81l19 69q60 -2 113 6q-57 -260 -77 -389q-9 -57 28 -57q22 0 47 30zM206 59
q45 0 83 53.5t56 119.5t18 119q0 103 -77 103q-38 0 -68 -29t-46 -74.5t-24.5 -93.5t-8.5 -94q0 -53 15 -78.5t52 -25.5zM485 717l29 -9q-46 -111 -124 -111q-35 0 -85 23q-37 16 -56 16q-30 0 -56 -44l-29 10q25 57 54.5 83.5t71.5 26.5q9 0 17.5 -1t14 -2t13.5 -4
t11.5 -4.5t13 -6t12.5 -5.5q36 -15 56 -15q18 0 30 9t27 34z" />
    <glyph glyph-name="adieresis" unicode="&#xe4;" horiz-adv-x="573" 
d="M518 88l30 -28q-19 -30 -49.5 -50.5t-66.5 -20.5q-46 0 -69 23t-23 64q0 22 8 52l-5 1q-25 -60 -71 -100t-111 -40q-71 0 -108.5 46t-37.5 132q0 79 27.5 155.5t87.5 132t138 55.5q89 0 120 -81l19 69q60 -2 113 6q-57 -260 -77 -389q-9 -57 28 -57q22 0 47 30zM206 59
q45 0 83 53.5t56 119.5t18 119q0 103 -77 103q-38 0 -68 -29t-46 -74.5t-24.5 -93.5t-8.5 -94q0 -53 15 -78.5t52 -25.5zM221 590q-53 0 -53 51q0 29 19 51t51 22q54 0 54 -50q0 -32 -19 -53t-52 -21zM422 590q-53 0 -53 51q0 29 19 51t51 22q54 0 54 -50q0 -32 -19 -53
t-52 -21z" />
    <glyph glyph-name="aring" unicode="&#xe5;" horiz-adv-x="573" 
d="M518 88l30 -28q-19 -30 -49.5 -50.5t-66.5 -20.5q-46 0 -69 23t-23 64q0 22 8 52l-5 1q-25 -60 -71 -100t-111 -40q-71 0 -108.5 46t-37.5 132q0 79 27.5 155.5t87.5 132t138 55.5q89 0 120 -81l19 69q60 -2 113 6q-57 -260 -77 -389q-9 -57 28 -57q22 0 47 30zM206 59
q45 0 83 53.5t56 119.5t18 119q0 103 -77 103q-38 0 -68 -29t-46 -74.5t-24.5 -93.5t-8.5 -94q0 -53 15 -78.5t52 -25.5zM325 610q27 0 41 18.5t14 43.5q0 43 -39 43q-24 0 -40.5 -18.5t-16.5 -45.5q0 -41 41 -41zM439 679q0 -50 -34 -83t-88 -33q-46 0 -69 22t-23 60
q0 50 35.5 83t90.5 33q42 0 65 -22.5t23 -59.5z" />
    <glyph glyph-name="ae" unicode="&#xe6;" horiz-adv-x="796" 
d="M521 -11q-75 0 -117 38.5t-51 106.5q-26 -59 -76.5 -102t-115.5 -43q-71 0 -108.5 46t-37.5 132q0 79 27.5 155.5t87.5 132t138 55.5q89 0 120 -81l19 69q44 0 91 7l-10 -41q57 46 131 46q67 0 104.5 -31t37.5 -89q0 -130 -184 -169q-61 -12 -117 -14v-20q0 -66 22.5 -97
t72.5 -31q87 0 139 121l53 -19q-26 -81 -85.5 -126.5t-140.5 -45.5zM206 59q45 0 83 53.5t56 119.5t18 119q0 103 -77 103q-38 0 -68 -29t-46 -74.5t-24.5 -93.5t-8.5 -94q0 -53 15 -78.5t52 -25.5zM467 261q33 2 62 9t57.5 21t45.5 41t17 63q0 63 -48 63q-45 0 -83 -53.5
t-51 -143.5z" />
    <glyph glyph-name="ccedilla" unicode="&#xe7;" horiz-adv-x="478" 
d="M142 -155l-22 -15q-3 -21 32 -21q25 0 42 17t17 48q0 42 -42 42q-22 0 -39 -5l-4 23l45 56q-77 7 -116.5 57t-39.5 135q0 87 32.5 160t99.5 120.5t157 47.5q74 0 112 -35t38 -90q0 -42 -22 -70t-64 -28q-29 0 -45.5 14.5t-16.5 38.5q0 28 16 53h36q27 65 -49 65
q-45 0 -79.5 -26t-53.5 -68.5t-28 -88.5t-9 -93q0 -63 22 -94t70 -31q49 0 80 30.5t57 89.5l54 -18q-20 -66 -72 -115t-135 -54l-32 -42q10 3 29 3q37 0 57 -19.5t20 -51.5q0 -45 -39 -74t-98 -29q-40 0 -61 17t-21 40q0 17 10.5 29t28.5 12q31 0 33 -30z" />
    <glyph glyph-name="egrave" unicode="&#xe8;" horiz-adv-x="474" 
d="M373 180l53 -19q-26 -81 -86 -126.5t-143 -45.5q-88 0 -135 50.5t-47 141.5q0 85 34 159.5t100 122t148 47.5q67 0 104.5 -31t37.5 -89q0 -130 -183 -169q-61 -12 -117 -14v-20q0 -66 22 -97t72 -31q44 0 77.5 28t62.5 93zM146 261q27 2 51 7q62 13 96.5 42t34.5 85
q0 63 -49 63q-46 0 -83.5 -53.5t-49.5 -143.5zM365 570l-29 -12l-94 132q-17 23 -17 42q0 22 23 33t44 2l36 -16z" />
    <glyph glyph-name="eacute" unicode="&#xe9;" horiz-adv-x="474" 
d="M373 180l53 -19q-26 -81 -86 -126.5t-143 -45.5q-88 0 -135 50.5t-47 141.5q0 85 34 159.5t100 122t148 47.5q67 0 104.5 -31t37.5 -89q0 -130 -183 -169q-61 -12 -117 -14v-20q0 -66 22 -97t72 -31q44 0 77.5 28t62.5 93zM146 261q27 2 51 7q62 13 96.5 42t34.5 85
q0 63 -49 63q-46 0 -83.5 -53.5t-49.5 -143.5zM393 681l-135 -125l-25 17l94 179l47 10q18 4 33 -4t15 -27q0 -23 -29 -50z" />
    <glyph glyph-name="ecircumflex" unicode="&#xea;" horiz-adv-x="474" 
d="M373 180l53 -19q-26 -81 -86 -126.5t-143 -45.5q-88 0 -135 50.5t-47 141.5q0 85 34 159.5t100 122t148 47.5q67 0 104.5 -31t37.5 -89q0 -130 -183 -169q-61 -12 -117 -14v-20q0 -66 22 -97t72 -31q44 0 77.5 28t62.5 93zM146 261q27 2 51 7q62 13 96.5 42t34.5 85
q0 63 -49 63q-46 0 -83.5 -53.5t-49.5 -143.5zM435 575l-31 -19l-89 106l-134 -108l-24 23l130 167q18 13 48 13t43 -35z" />
    <glyph glyph-name="edieresis" unicode="&#xeb;" horiz-adv-x="474" 
d="M373 180l53 -19q-26 -81 -86 -126.5t-143 -45.5q-88 0 -135 50.5t-47 141.5q0 85 34 159.5t100 122t148 47.5q67 0 104.5 -31t37.5 -89q0 -130 -183 -169q-61 -12 -117 -14v-20q0 -66 22 -97t72 -31q44 0 77.5 28t62.5 93zM146 261q27 2 51 7q62 13 96.5 42t34.5 85
q0 63 -49 63q-46 0 -83.5 -53.5t-49.5 -143.5zM200 590q-53 0 -53 51q0 29 19 51t51 22q54 0 54 -50q0 -32 -19 -53t-52 -21zM401 590q-53 0 -53 51q0 29 19 51t51 22q54 0 54 -50q0 -32 -19 -53t-52 -21z" />
    <glyph glyph-name="igrave" unicode="&#xec;" horiz-adv-x="298" 
d="M240 84l27 -27q-47 -68 -123 -68q-103 0 -103 95q0 31 21 126q49 212 52 223l-77 8l8 52l193 9l4 -8q-78 -348 -83 -379q-10 -59 31 -59q25 0 50 28zM235 570l-29 -12l-94 132q-17 23 -17 42q0 22 23 33t44 2l36 -16z" />
    <glyph glyph-name="iacute" unicode="&#xed;" horiz-adv-x="298" 
d="M240 84l27 -27q-47 -68 -123 -68q-103 0 -103 95q0 31 21 126q49 212 52 223l-77 8l8 52l193 9l4 -8q-78 -348 -83 -379q-10 -59 31 -59q25 0 50 28zM263 681l-135 -125l-25 17l94 179l47 10q18 4 33 -4t15 -27q0 -23 -29 -50z" />
    <glyph glyph-name="icircumflex" unicode="&#xee;" horiz-adv-x="298" 
d="M240 84l27 -27q-47 -68 -123 -68q-103 0 -103 95q0 31 21 126q49 212 52 223l-77 8l8 52l193 9l4 -8q-78 -348 -83 -379q-10 -59 31 -59q25 0 50 28zM311 575l-31 -19l-89 106l-134 -108l-24 23l130 167q18 13 48 13t43 -35z" />
    <glyph glyph-name="idieresis" unicode="&#xef;" horiz-adv-x="298" 
d="M240 84l27 -27q-47 -68 -123 -68q-103 0 -103 95q0 31 21 126q49 212 52 223l-77 8l8 52l193 9l4 -8q-78 -348 -83 -379q-10 -59 31 -59q25 0 50 28zM76 590q-53 0 -53 51q0 29 19 51t51 22q54 0 54 -50q0 -32 -19 -53t-52 -21zM277 590q-53 0 -53 51q0 29 19 51t51 22
q54 0 54 -50q0 -32 -19 -53t-52 -21z" />
    <glyph glyph-name="eth" unicode="&#xf0;" horiz-adv-x="551" 
d="M216 42q67 0 109.5 89.5t42.5 207.5q0 48 -23 76t-63 28t-70 -27t-45.5 -70.5t-22.5 -88t-7 -89.5q0 -126 79 -126zM15 184q0 128 68.5 220t187.5 92q52 0 86 -23.5t49 -59.5q9 139 -42 217l-101 -67l-20 49l87 58q-54 46 -145 59l13 46q115 -6 203 -58l109 73l21 -49
l-88 -58q77 -85 77 -238q0 -56 -9.5 -114.5t-33 -121t-59 -110.5t-92 -79t-127.5 -31q-90 0 -137 51t-47 144z" />
    <glyph glyph-name="ntilde" unicode="&#xf1;" horiz-adv-x="589" 
d="M522 84l27 -27q-49 -68 -124 -68q-45 0 -71.5 23.5t-26.5 67.5q0 25 7 60.5t14.5 63.5t22.5 77.5t22 76.5q8 32 8 50q0 37 -33 37q-48 0 -99.5 -72.5t-74.5 -150.5q-28 -93 -44 -219q-71 2 -128 -10l45 194l34 247l-76 9l9 51l189 9l4 -10l-44 -174l6 -3q92 194 219 194
q50 0 77 -28.5t27 -80.5q0 -30 -11 -72q-53 -200 -55 -208q-4 -24 -4 -32q0 -33 31 -33q23 0 49 28zM489 717l29 -9q-46 -111 -124 -111q-35 0 -85 23q-37 16 -56 16q-30 0 -56 -44l-29 10q25 57 54.5 83.5t71.5 26.5q9 0 17.5 -1t14 -2t13.5 -4t11.5 -4.5t13 -6t12.5 -5.5
q36 -15 56 -15q18 0 30 9t27 34z" />
    <glyph glyph-name="ograve" unicode="&#xf2;" horiz-adv-x="532" 
d="M212 43q44 0 76 33t47.5 84t22.5 97.5t7 88.5q0 111 -81 111q-40 0 -70.5 -30t-47 -77.5t-24.5 -97t-8 -97.5q0 -112 78 -112zM203 -11q-97 0 -144 50.5t-47 141.5q0 62 19 120t54 105t90.5 75.5t122.5 28.5q97 0 143.5 -50.5t46.5 -141.5q0 -81 -31.5 -154.5t-98.5 -124
t-155 -50.5zM374 570l-29 -12l-94 132q-17 23 -17 42q0 22 23 33t44 2l36 -16z" />
    <glyph glyph-name="oacute" unicode="&#xf3;" horiz-adv-x="532" 
d="M212 43q44 0 76 33t47.5 84t22.5 97.5t7 88.5q0 111 -81 111q-40 0 -70.5 -30t-47 -77.5t-24.5 -97t-8 -97.5q0 -112 78 -112zM203 -11q-97 0 -144 50.5t-47 141.5q0 62 19 120t54 105t90.5 75.5t122.5 28.5q97 0 143.5 -50.5t46.5 -141.5q0 -81 -31.5 -154.5t-98.5 -124
t-155 -50.5zM395 681l-135 -125l-25 17l94 179l47 10q18 4 33 -4t15 -27q0 -23 -29 -50z" />
    <glyph glyph-name="ocircumflex" unicode="&#xf4;" horiz-adv-x="532" 
d="M212 43q44 0 76 33t47.5 84t22.5 97.5t7 88.5q0 111 -81 111q-40 0 -70.5 -30t-47 -77.5t-24.5 -97t-8 -97.5q0 -112 78 -112zM203 -11q-97 0 -144 50.5t-47 141.5q0 62 19 120t54 105t90.5 75.5t122.5 28.5q97 0 143.5 -50.5t46.5 -141.5q0 -81 -31.5 -154.5t-98.5 -124
t-155 -50.5zM443 575l-31 -19l-89 106l-134 -108l-24 23l130 167q18 13 48 13t43 -35z" />
    <glyph glyph-name="otilde" unicode="&#xf5;" horiz-adv-x="532" 
d="M212 43q44 0 76 33t47.5 84t22.5 97.5t7 88.5q0 111 -81 111q-40 0 -70.5 -30t-47 -77.5t-24.5 -97t-8 -97.5q0 -112 78 -112zM203 -11q-97 0 -144 50.5t-47 141.5q0 62 19 120t54 105t90.5 75.5t122.5 28.5q97 0 143.5 -50.5t46.5 -141.5q0 -81 -31.5 -154.5t-98.5 -124
t-155 -50.5zM472 717l29 -9q-46 -111 -124 -111q-35 0 -85 23q-37 16 -56 16q-30 0 -56 -44l-29 10q25 57 54.5 83.5t71.5 26.5q9 0 17.5 -1t14 -2t13.5 -4t11.5 -4.5t13 -6t12.5 -5.5q36 -15 56 -15q18 0 30 9t27 34z" />
    <glyph glyph-name="odieresis" unicode="&#xf6;" horiz-adv-x="532" 
d="M212 43q44 0 76 33t47.5 84t22.5 97.5t7 88.5q0 111 -81 111q-40 0 -70.5 -30t-47 -77.5t-24.5 -97t-8 -97.5q0 -112 78 -112zM203 -11q-97 0 -144 50.5t-47 141.5q0 62 19 120t54 105t90.5 75.5t122.5 28.5q97 0 143.5 -50.5t46.5 -141.5q0 -81 -31.5 -154.5t-98.5 -124
t-155 -50.5zM208 590q-53 0 -53 51q0 29 19 51t51 22q54 0 54 -50q0 -32 -19 -53t-52 -21zM409 590q-53 0 -53 51q0 29 19 51t51 22q54 0 54 -50q0 -32 -19 -53t-52 -21z" />
    <glyph glyph-name="divide" unicode="&#xf7;" 
d="M262 80q-32 0 -46.5 17.5t-14.5 42.5q0 38 25 62t60 24q63 0 63 -58q0 -38 -25.5 -63t-61.5 -25zM311 385q-32 0 -46.5 17.5t-14.5 42.5q0 38 25 62t60 24q29 0 46 -15t17 -43q0 -39 -25.5 -63.5t-61.5 -24.5zM522 276h-454l9 58h454z" />
    <glyph glyph-name="oslash" unicode="&#xf8;" horiz-adv-x="532" 
d="M203 -11q-28 0 -56 5l-43 -84l-51 26l39 77q-80 45 -80 168q0 62 19 120t54 105t90.5 75.5t122.5 28.5q27 0 46 -4l41 79l50 -24l-36 -71q89 -44 89 -172q0 -81 -31.5 -154.5t-98.5 -124t-155 -50.5zM212 43q44 0 76 33t47.5 84t22.5 97.5t7 88.5q0 34 -9 60l-181 -356
q14 -7 37 -7zM134 155q0 -32 5 -51l177 347q-13 6 -32 6q-40 0 -70.5 -30t-47 -77.5t-24.5 -97t-8 -97.5z" />
    <glyph glyph-name="ugrave" unicode="&#xf9;" horiz-adv-x="593" 
d="M533 88l30 -28q-47 -71 -116 -71q-95 0 -95 85q0 22 8 56l9 36l-5 3q-38 -81 -86 -130.5t-121 -49.5q-110 0 -110 113q0 22 5 50q17 88 59 284l-73 8l9 52l186 7l6 -9q-55 -218 -77 -353q-4 -26 -4 -40q0 -45 41 -45q46 0 92 67t72 154q29 96 45 219q70 -2 127 10
q-44 -195 -69 -333q-12 -62 -12 -84q0 -31 32 -31q22 0 47 30zM385 570l-29 -12l-94 132q-17 23 -17 42q0 22 23 33t44 2l36 -16z" />
    <glyph glyph-name="uacute" unicode="&#xfa;" horiz-adv-x="593" 
d="M533 88l30 -28q-47 -71 -116 -71q-95 0 -95 85q0 22 8 56l9 36l-5 3q-38 -81 -86 -130.5t-121 -49.5q-110 0 -110 113q0 22 5 50q17 88 59 284l-73 8l9 52l186 7l6 -9q-55 -218 -77 -353q-4 -26 -4 -40q0 -45 41 -45q46 0 92 67t72 154q29 96 45 219q70 -2 127 10
q-44 -195 -69 -333q-12 -62 -12 -84q0 -31 32 -31q22 0 47 30zM415 681l-135 -125l-25 17l94 179l47 10q18 4 33 -4t15 -27q0 -23 -29 -50z" />
    <glyph glyph-name="ucircumflex" unicode="&#xfb;" horiz-adv-x="593" 
d="M533 88l30 -28q-47 -71 -116 -71q-95 0 -95 85q0 22 8 56l9 36l-5 3q-38 -81 -86 -130.5t-121 -49.5q-110 0 -110 113q0 22 5 50q17 88 59 284l-73 8l9 52l186 7l6 -9q-55 -218 -77 -353q-4 -26 -4 -40q0 -45 41 -45q46 0 92 67t72 154q29 96 45 219q70 -2 127 10
q-44 -195 -69 -333q-12 -62 -12 -84q0 -31 32 -31q22 0 47 30zM458 575l-31 -19l-89 106l-134 -108l-24 23l130 167q18 13 48 13t43 -35z" />
    <glyph glyph-name="udieresis" unicode="&#xfc;" horiz-adv-x="593" 
d="M533 88l30 -28q-47 -71 -116 -71q-95 0 -95 85q0 22 8 56l9 36l-5 3q-38 -81 -86 -130.5t-121 -49.5q-110 0 -110 113q0 22 5 50q17 88 59 284l-73 8l9 52l186 7l6 -9q-55 -218 -77 -353q-4 -26 -4 -40q0 -45 41 -45q46 0 92 67t72 154q29 96 45 219q70 -2 127 10
q-44 -195 -69 -333q-12 -62 -12 -84q0 -31 32 -31q22 0 47 30zM223 590q-53 0 -53 51q0 29 19 51t51 22q54 0 54 -50q0 -32 -19 -53t-52 -21zM424 590q-53 0 -53 51q0 29 19 51t51 22q54 0 54 -50q0 -32 -19 -53t-52 -21z" />
    <glyph glyph-name="yacute" unicode="&#xfd;" horiz-adv-x="544" 
d="M64 -118l-44 -10q-7 -37 34 -37q44 0 88 36t97 112q-72 288 -100 383q-10 31 -18 42.5t-21 11.5q-15 0 -26.5 -16.5t-25.5 -51.5l-44 21q24 64 54 96t83 32q40 0 65 -23.5t40 -74.5q29 -100 76 -302q47 71 84.5 150t37.5 112q0 35 -28 38l-28 -37q-45 17 -45 69
q0 33 23.5 55t60.5 22q44 0 68.5 -29.5t24.5 -75.5q0 -102 -154 -338q-29 -44 -42 -63t-39.5 -56t-42.5 -54t-42 -41.5t-48 -35.5t-50 -19.5t-57 -8.5q-57 0 -91 25.5t-34 69.5q0 38 24 62t58 24q28 0 47 -15t19 -45q0 -15 -4 -28zM414 681l-135 -125l-25 17l94 179l47 10
q18 4 33 -4t15 -27q0 -23 -29 -50z" />
    <glyph glyph-name="thorn" unicode="&#xfe;" horiz-adv-x="584" 
d="M269 44q49 0 83.5 49.5t49 116t14.5 137.5q0 46 -13 70t-47 24q-64 0 -115.5 -96.5t-51.5 -198.5t80 -102zM537 330q0 -83 -30 -160.5t-89.5 -129t-133.5 -51.5q-48 0 -80 20.5t-45 53.5l-32 -197l118 -9l-10 -57h-293l10 57l62 7l139 819l-74 9l9 50l191 9l5 -9
l-84 -374l6 -1q68 143 195 143q66 0 101 -47.5t35 -132.5z" />
    <glyph glyph-name="ydieresis" unicode="&#xff;" horiz-adv-x="544" 
d="M64 -118l-44 -10q-7 -37 34 -37q44 0 88 36t97 112q-72 288 -100 383q-10 31 -18 42.5t-21 11.5q-15 0 -26.5 -16.5t-25.5 -51.5l-44 21q24 64 54 96t83 32q40 0 65 -23.5t40 -74.5q29 -100 76 -302q47 71 84.5 150t37.5 112q0 35 -28 38l-28 -37q-45 17 -45 69
q0 33 23.5 55t60.5 22q44 0 68.5 -29.5t24.5 -75.5q0 -102 -154 -338q-29 -44 -42 -63t-39.5 -56t-42.5 -54t-42 -41.5t-48 -35.5t-50 -19.5t-57 -8.5q-57 0 -91 25.5t-34 69.5q0 38 24 62t58 24q28 0 47 -15t19 -45q0 -15 -4 -28zM224 590q-53 0 -53 51q0 29 19 51t51 22
q54 0 54 -50q0 -32 -19 -53t-52 -21zM425 590q-53 0 -53 51q0 29 19 51t51 22q54 0 54 -50q0 -32 -19 -53t-52 -21z" />
    <glyph glyph-name="Amacron" unicode="&#x100;" horiz-adv-x="669" 
d="M613 0h-283l9 57l76 8l-21 142h-217l-72 -142l70 -8l-9 -57h-211l9 57l65 8l341 636h74l112 -636l66 -8zM387 273l-39 252h-3l-137 -252h179zM549 776h-272l14 76h272z" />
    <glyph glyph-name="amacron" unicode="&#x101;" horiz-adv-x="573" 
d="M518 88l30 -28q-19 -30 -49.5 -50.5t-66.5 -20.5q-46 0 -69 23t-23 64q0 22 8 52l-5 1q-25 -60 -71 -100t-111 -40q-71 0 -108.5 46t-37.5 132q0 79 27.5 155.5t87.5 132t138 55.5q89 0 120 -81l19 69q60 -2 113 6q-57 -260 -77 -389q-9 -57 28 -57q22 0 47 30zM206 59
q45 0 83 53.5t56 119.5t18 119q0 103 -77 103q-38 0 -68 -29t-46 -74.5t-24.5 -93.5t-8.5 -94q0 -53 15 -78.5t52 -25.5zM458 609h-272l14 76h272z" />
    <glyph glyph-name="Abreve" unicode="&#x102;" horiz-adv-x="669" 
d="M613 0h-283l9 57l76 8l-21 142h-217l-72 -142l70 -8l-9 -57h-211l9 57l65 8l341 636h74l112 -636l66 -8zM387 273l-39 252h-3l-137 -252h179zM539 892l41 -6q-16 -61 -58 -101.5t-113 -40.5q-70 0 -98 41t-23 101l39 8q6 -38 26.5 -55t69.5 -17q47 0 72 17t44 53z" />
    <glyph glyph-name="abreve" unicode="&#x103;" horiz-adv-x="573" 
d="M518 88l30 -28q-19 -30 -49.5 -50.5t-66.5 -20.5q-46 0 -69 23t-23 64q0 22 8 52l-5 1q-25 -60 -71 -100t-111 -40q-71 0 -108.5 46t-37.5 132q0 79 27.5 155.5t87.5 132t138 55.5q89 0 120 -81l19 69q60 -2 113 6q-57 -260 -77 -389q-9 -57 28 -57q22 0 47 30zM206 59
q45 0 83 53.5t56 119.5t18 119q0 103 -77 103q-38 0 -68 -29t-46 -74.5t-24.5 -93.5t-8.5 -94q0 -53 15 -78.5t52 -25.5zM452 743l42 -7q-18 -67 -61.5 -113t-114.5 -46q-69 0 -96.5 46t-22.5 112l43 9q8 -45 26.5 -65.5t65.5 -20.5q46 0 72 21t46 64z" />
    <glyph glyph-name="Aogonek" unicode="&#x104;" horiz-adv-x="669" 
d="M498 -136l29 -22q-47 -71 -128 -71q-42 0 -64.5 19t-22.5 52q0 47 38.5 84.5t99.5 73.5h-120l9 57l76 8l-21 142h-217l-72 -142l70 -8l-9 -57h-211l9 57l65 8l341 636h74l112 -636l66 -8l-9 -57h-102q-102 -77 -102 -138q0 -31 32 -31q28 0 57 33zM387 273l-39 252h-3
l-137 -252h179z" />
    <glyph glyph-name="aogonek" unicode="&#x105;" horiz-adv-x="573" 
d="M470 -136l29 -22q-47 -71 -128 -71q-42 0 -64.5 19t-22.5 52q0 75 123 149q-46 8 -60.5 46t1.5 91l-5 1q-25 -60 -71 -100t-111 -40q-71 0 -108.5 46t-37.5 132q0 79 27.5 155.5t87.5 132t138 55.5q89 0 120 -81l19 69q60 -2 113 6q-47 -216 -77 -389q-9 -57 28 -57
q22 0 47 30l30 -28q-19 -30 -62 -59q-105 -69 -105 -139q0 -31 32 -31q28 0 57 33zM206 59q45 0 83 53.5t56 119.5t18 119q0 103 -77 103q-38 0 -68 -29t-46 -74.5t-24.5 -93.5t-8.5 -94q0 -53 15 -78.5t52 -25.5z" />
    <glyph glyph-name="Cacute" unicode="&#x106;" horiz-adv-x="626" 
d="M531 232l59 -15q-19 -67 -54 -114.5t-77.5 -70.5t-81 -33t-77.5 -10q-125 0 -195 69t-70 208q0 116 46 217t133.5 164.5t196.5 63.5q51 0 99.5 -17.5t50.5 -17.5q14 0 30 26h47l-30 -220h-56q-5 87 -37 126t-101 39q-66 0 -115.5 -39t-75.5 -100.5t-38.5 -125
t-12.5 -126.5q0 -198 154 -198q73 0 123.5 41.5t81.5 132.5zM516 810l-162 -75l-19 26l152 149l41 -11q34 -8 34 -37q0 -31 -46 -52z" />
    <glyph glyph-name="cacute" unicode="&#x107;" horiz-adv-x="478" 
d="M368 177l54 -18q-21 -70 -77.5 -120t-145.5 -50q-91 0 -137.5 50.5t-46.5 142.5q0 87 32.5 160t99.5 120.5t157 47.5q74 0 112 -35t38 -90q0 -42 -22 -70t-64 -28q-29 0 -45.5 14.5t-16.5 38.5q0 28 16 53h36q7 19 7 28q0 37 -56 37q-45 0 -79.5 -26t-53.5 -68.5
t-28 -88.5t-9 -93q0 -63 22 -94t70 -31q49 0 80 30.5t57 89.5zM396 681l-135 -125l-25 17l94 179l47 10q18 4 33 -4t15 -27q0 -23 -29 -50z" />
    <glyph glyph-name="Ccircumflex" unicode="&#x108;" horiz-adv-x="626" 
d="M531 232l59 -15q-19 -67 -54 -114.5t-77.5 -70.5t-81 -33t-77.5 -10q-125 0 -195 69t-70 208q0 116 46 217t133.5 164.5t196.5 63.5q51 0 99.5 -17.5t50.5 -17.5q14 0 30 26h47l-30 -220h-56q-5 87 -37 126t-101 39q-66 0 -115.5 -39t-75.5 -100.5t-38.5 -125
t-12.5 -126.5q0 -198 154 -198q73 0 123.5 41.5t81.5 132.5zM584 759l-26 -23l-117 82l-157 -85l-19 30l146 132q22 11 44 11q16 0 26 -7.5t23 -25.5z" />
    <glyph glyph-name="ccircumflex" unicode="&#x109;" horiz-adv-x="478" 
d="M368 177l54 -18q-21 -70 -77.5 -120t-145.5 -50q-91 0 -137.5 50.5t-46.5 142.5q0 87 32.5 160t99.5 120.5t157 47.5q74 0 112 -35t38 -90q0 -42 -22 -70t-64 -28q-29 0 -45.5 14.5t-16.5 38.5q0 28 16 53h36q7 19 7 28q0 37 -56 37q-45 0 -79.5 -26t-53.5 -68.5
t-28 -88.5t-9 -93q0 -63 22 -94t70 -31q49 0 80 30.5t57 89.5zM444 575l-31 -19l-89 106l-134 -108l-24 23l130 167q18 13 48 13t43 -35z" />
    <glyph glyph-name="Cdotaccent" unicode="&#x10a;" horiz-adv-x="626" 
d="M531 232l59 -15q-19 -67 -54 -114.5t-77.5 -70.5t-81 -33t-77.5 -10q-125 0 -195 69t-70 208q0 116 46 217t133.5 164.5t196.5 63.5q51 0 99.5 -17.5t50.5 -17.5q14 0 30 26h47l-30 -220h-56q-5 87 -37 126t-101 39q-66 0 -115.5 -39t-75.5 -100.5t-38.5 -125
t-12.5 -126.5q0 -198 154 -198q73 0 123.5 41.5t81.5 132.5zM423 751q-65 0 -65 59q0 37 24 61.5t63 24.5q64 0 64 -61q0 -37 -23.5 -60.5t-62.5 -23.5z" />
    <glyph glyph-name="cdotaccent" unicode="&#x10b;" horiz-adv-x="478" 
d="M368 177l54 -18q-21 -70 -77.5 -120t-145.5 -50q-91 0 -137.5 50.5t-46.5 142.5q0 87 32.5 160t99.5 120.5t157 47.5q74 0 112 -35t38 -90q0 -42 -22 -70t-64 -28q-29 0 -45.5 14.5t-16.5 38.5q0 28 16 53h36q7 19 7 28q0 37 -56 37q-45 0 -79.5 -26t-53.5 -68.5
t-28 -88.5t-9 -93q0 -63 22 -94t70 -31q49 0 80 30.5t57 89.5zM310 589q-65 0 -65 59q0 37 24 61.5t63 24.5q64 0 64 -61q0 -37 -23.5 -60.5t-62.5 -23.5z" />
    <glyph glyph-name="Ccaron" unicode="&#x10c;" horiz-adv-x="626" 
d="M531 232l59 -15q-19 -67 -54 -114.5t-77.5 -70.5t-81 -33t-77.5 -10q-125 0 -195 69t-70 208q0 116 46 217t133.5 164.5t196.5 63.5q51 0 99.5 -17.5t50.5 -17.5q14 0 30 26h47l-30 -220h-56q-5 87 -37 126t-101 39q-66 0 -115.5 -39t-75.5 -100.5t-38.5 -125
t-12.5 -126.5q0 -198 154 -198q73 0 123.5 41.5t81.5 132.5zM610 886l-147 -134q-20 -11 -41 -11q-28 0 -50 33l-79 116l29 27l115 -89l153 88z" />
    <glyph glyph-name="ccaron" unicode="&#x10d;" horiz-adv-x="478" 
d="M368 177l54 -18q-21 -70 -77.5 -120t-145.5 -50q-91 0 -137.5 50.5t-46.5 142.5q0 87 32.5 160t99.5 120.5t157 47.5q74 0 112 -35t38 -90q0 -42 -22 -70t-64 -28q-29 0 -45.5 14.5t-16.5 38.5q0 28 16 53h36q7 19 7 28q0 37 -56 37q-45 0 -79.5 -26t-53.5 -68.5
t-28 -88.5t-9 -93q0 -63 22 -94t70 -31q49 0 80 30.5t57 89.5zM472 744l-107 -145q-25 -34 -59 -34q-26 0 -42 13l-71 168l30 20l93 -109l133 108z" />
    <glyph glyph-name="Dcaron" unicode="&#x10e;" horiz-adv-x="707" 
d="M219 0h-225l10 58l76 7l97 571l-74 6l10 58h244q325 0 325 -268q0 -197 -122.5 -314.5t-340.5 -117.5zM208 63h32q101 0 172 53.5t102.5 135.5t31.5 184q0 114 -54 157t-167 43h-19zM562 886l-147 -134q-20 -11 -41 -11q-28 0 -50 33l-79 116l29 27l115 -89l153 88z" />
    <glyph glyph-name="dcaron" unicode="&#x10f;" horiz-adv-x="642" 
d="M521 88l29 -28q-43 -71 -118 -71q-89 0 -89 85q0 26 7 51l-6 1q-24 -60 -70 -98.5t-108 -38.5q-74 0 -112 46.5t-38 131.5q0 81 27.5 157.5t87.5 131t140 54.5q86 0 116 -74l42 248l-79 8l8 52l194 6l4 -7l-110 -623q-3 -17 -3 -29q0 -33 30 -33q22 0 48 30zM203 59
q48 0 86.5 54.5t56.5 121t18 120.5q0 99 -77 99q-37 0 -66.5 -28t-46.5 -72.5t-25.5 -94t-8.5 -98.5q0 -50 14 -76t49 -26zM572 518l-22 30q65 47 65 95q0 35 -33 62l26 26q24 24 50 24q48 0 48 -56q0 -91 -134 -181z" />
    <glyph glyph-name="Dcroat" unicode="&#x110;" horiz-adv-x="715" 
d="M227 0h-225l10 58l76 7l46 270h-84l9 54h84l42 247l-74 6l10 58h244q325 0 325 -268q0 -197 -122.5 -314.5t-340.5 -117.5zM216 63h32q101 0 172 53.5t102.5 135.5t31.5 184q0 114 -54 157t-167 43h-19l-43 -247h165l-9 -54h-165z" />
    <glyph glyph-name="dcroat" unicode="&#x111;" horiz-adv-x="574" 
d="M521 88l29 -28q-43 -71 -118 -71q-58 0 -78 37t-4 99l-6 1q-24 -60 -70 -98.5t-108 -38.5q-74 0 -112 46.5t-38 131.5q0 81 27.5 157.5t87.5 131t140 54.5q86 0 116 -74l22 134h-186l10 54h185l11 60l-79 8l8 52l194 6l4 -7l-21 -119h74l-10 -54h-74l-79 -450
q-6 -33 0 -47.5t27 -14.5q22 0 48 30zM203 59q48 0 86.5 54.5t56.5 121t18 120.5q0 99 -77 99q-37 0 -66.5 -28t-46.5 -72.5t-25.5 -94t-8.5 -98.5q0 -50 14 -76t49 -26z" />
    <glyph glyph-name="Emacron" unicode="&#x112;" horiz-adv-x="625" 
d="M520 0h-520l9 57l70 8l97 570l-67 8l10 57h496l-27 -204h-56q-4 87 -36 114.5t-123 27.5h-68l-43 -252h37q52 0 77.5 24t48.5 90h45l-51 -296h-48q2 76 -14.5 99t-75.5 23h-29l-45 -262h68q107 0 155 36t81 137h56zM528 776h-272l14 76h272z" />
    <glyph glyph-name="emacron" unicode="&#x113;" horiz-adv-x="474" 
d="M373 180l53 -19q-26 -81 -86 -126.5t-143 -45.5q-88 0 -135 50.5t-47 141.5q0 85 34 159.5t100 122t148 47.5q67 0 104.5 -31t37.5 -89q0 -130 -183 -169q-61 -12 -117 -14v-20q0 -66 22 -97t72 -31q44 0 77.5 28t62.5 93zM146 261q27 2 51 7q62 13 96.5 42t34.5 85
q0 63 -49 63q-46 0 -83.5 -53.5t-49.5 -143.5zM443 609h-272l14 76h272z" />
    <glyph glyph-name="Ebreve" unicode="&#x114;" horiz-adv-x="625" 
d="M520 0h-520l9 57l70 8l97 570l-67 8l10 57h496l-27 -204h-56q-4 87 -36 114.5t-123 27.5h-68l-43 -252h37q52 0 77.5 24t48.5 90h45l-51 -296h-48q2 76 -14.5 99t-75.5 23h-29l-45 -262h68q107 0 155 36t81 137h56zM518 892l41 -6q-16 -61 -58 -101.5t-113 -40.5
q-70 0 -98 41t-23 101l39 8q6 -38 26.5 -55t69.5 -17q47 0 72 17t44 53z" />
    <glyph glyph-name="ebreve" unicode="&#x115;" horiz-adv-x="474" 
d="M373 180l53 -19q-26 -81 -86 -126.5t-143 -45.5q-88 0 -135 50.5t-47 141.5q0 85 34 159.5t100 122t148 47.5q67 0 104.5 -31t37.5 -89q0 -130 -183 -169q-61 -12 -117 -14v-20q0 -66 22 -97t72 -31q44 0 77.5 28t62.5 93zM146 261q27 2 51 7q62 13 96.5 42t34.5 85
q0 63 -49 63q-46 0 -83.5 -53.5t-49.5 -143.5zM437 743l42 -7q-18 -67 -61.5 -113t-114.5 -46q-69 0 -96.5 46t-22.5 112l43 9q8 -45 26.5 -65.5t65.5 -20.5q46 0 72 21t46 64z" />
    <glyph glyph-name="Edotaccent" unicode="&#x116;" horiz-adv-x="625" 
d="M520 0h-520l9 57l70 8l97 570l-67 8l10 57h496l-27 -204h-56q-4 87 -36 114.5t-123 27.5h-68l-43 -252h37q52 0 77.5 24t48.5 90h45l-51 -296h-48q2 76 -14.5 99t-75.5 23h-29l-45 -262h68q107 0 155 36t81 137h56zM390 751q-65 0 -65 59q0 37 24 61.5t63 24.5
q64 0 64 -61q0 -37 -23.5 -60.5t-62.5 -23.5z" />
    <glyph glyph-name="edotaccent" unicode="&#x117;" horiz-adv-x="474" 
d="M373 180l53 -19q-26 -81 -86 -126.5t-143 -45.5q-88 0 -135 50.5t-47 141.5q0 85 34 159.5t100 122t148 47.5q67 0 104.5 -31t37.5 -89q0 -130 -183 -169q-61 -12 -117 -14v-20q0 -66 22 -97t72 -31q44 0 77.5 28t62.5 93zM146 261q27 2 51 7q62 13 96.5 42t34.5 85
q0 63 -49 63q-46 0 -83.5 -53.5t-49.5 -143.5zM307 589q-65 0 -65 59q0 37 24 61.5t63 24.5q64 0 64 -61q0 -37 -23.5 -60.5t-62.5 -23.5z" />
    <glyph glyph-name="Eogonek" unicode="&#x118;" horiz-adv-x="625" 
d="M451 -136l29 -22q-47 -71 -128 -71q-42 0 -64.5 19t-22.5 52q0 47 39.5 84t103.5 74h-408l9 57l70 8l97 570l-67 8l10 57h496l-27 -204h-56q-4 87 -36 114.5t-123 27.5h-68l-43 -252h37q52 0 77.5 24t48.5 90h45l-51 -296h-48q2 76 -14.5 99t-75.5 23h-29l-45 -262h68
q107 0 155 36t81 137h56l-47 -237q-65 -16 -111.5 -56.5t-46.5 -81.5q0 -31 32 -31q28 0 57 33z" />
    <glyph glyph-name="eogonek" unicode="&#x119;" horiz-adv-x="474" 
d="M270 -136l29 -22q-47 -71 -128 -71q-42 0 -64.5 19t-22.5 52q0 74 120 147h-7q-88 0 -135 50.5t-47 141.5q0 85 34 159.5t100 122t148 47.5q67 0 104.5 -31t37.5 -89q0 -130 -183 -169q-61 -12 -117 -14v-20q0 -66 22 -97t72 -31q44 0 77.5 28t62.5 93l53 -19
q-32 -102 -131 -158q-47 -27 -80.5 -64.5t-33.5 -76.5q0 -31 32 -31q28 0 57 33zM146 261q27 2 51 7q62 13 96.5 42t34.5 85q0 63 -49 63q-46 0 -83.5 -53.5t-49.5 -143.5z" />
    <glyph glyph-name="Ecaron" unicode="&#x11a;" horiz-adv-x="625" 
d="M520 0h-520l9 57l70 8l97 570l-67 8l10 57h496l-27 -204h-56q-4 87 -36 114.5t-123 27.5h-68l-43 -252h37q52 0 77.5 24t48.5 90h45l-51 -296h-48q2 76 -14.5 99t-75.5 23h-29l-45 -262h68q107 0 155 36t81 137h56zM577 886l-147 -134q-20 -11 -41 -11q-17 0 -27.5 7.5
t-22.5 25.5l-79 116l29 27l115 -89l153 88z" />
    <glyph glyph-name="ecaron" unicode="&#x11b;" horiz-adv-x="474" 
d="M373 180l53 -19q-26 -81 -86 -126.5t-143 -45.5q-88 0 -135 50.5t-47 141.5q0 85 34 159.5t100 122t148 47.5q67 0 104.5 -31t37.5 -89q0 -130 -183 -169q-61 -12 -117 -14v-20q0 -66 22 -97t72 -31q44 0 77.5 28t62.5 93zM146 261q27 2 51 7q62 13 96.5 42t34.5 85
q0 63 -49 63q-46 0 -83.5 -53.5t-49.5 -143.5zM469 744l-107 -145q-25 -34 -59 -34q-26 0 -42 13l-71 168l30 20l93 -109l133 108z" />
    <glyph glyph-name="Gcircumflex" unicode="&#x11c;" horiz-adv-x="676" 
d="M656 256l-64 -7l-31 -182q-45 -34 -118 -56t-144 -22q-121 0 -191 67.5t-70 201.5q0 119 45.5 221.5t133.5 167t201 64.5q49 0 96.5 -16.5t55.5 -16.5q16 0 30 24h46l-30 -220h-53q-7 89 -39.5 127t-105.5 38q-66 0 -116.5 -40t-76.5 -102.5t-38.5 -124.5t-12.5 -121
q0 -203 149 -203q77 0 120 31l27 161l-83 8l10 57h269zM583 759l-26 -23l-117 82l-157 -85l-19 30l146 132q22 11 44 11q16 0 26 -7.5t23 -25.5z" />
    <glyph glyph-name="gcircumflex" unicode="&#x11d;" horiz-adv-x="553" 
d="M131 -113l-45 -7q-4 -10 -4 -16q0 -29 62 -29q71 0 111.5 48t67.5 138q6 20 17 62.5t13 49.5l-6 2q-53 -126 -182 -126q-71 0 -108 46t-37 132q0 78 27 150t86 122.5t137 50.5q90 0 121 -81l19 69q62 -2 113 6q-16 -72 -47.5 -238.5t-41.5 -214.5q-53 -262 -295 -262
q-69 0 -109.5 26.5t-40.5 76.5q0 38 22 61t59 23q27 0 45 -16.5t18 -49.5q0 -7 -2 -23zM211 79q45 0 82 48.5t55 110t18 113.5q0 49 -20 75.5t-57 26.5q-50 0 -84.5 -45.5t-47.5 -103.5t-13 -121q0 -52 15 -78t52 -26zM443 575l-31 -19l-89 106l-134 -108l-24 23l130 167
q18 13 48 13t43 -35z" />
    <glyph glyph-name="Gbreve" unicode="&#x11e;" horiz-adv-x="676" 
d="M656 256l-64 -7l-31 -182q-45 -34 -118 -56t-144 -22q-121 0 -191 67.5t-70 201.5q0 119 45.5 221.5t133.5 167t201 64.5q49 0 96.5 -16.5t55.5 -16.5q16 0 30 24h46l-30 -220h-53q-7 89 -39.5 127t-105.5 38q-66 0 -116.5 -40t-76.5 -102.5t-38.5 -124.5t-12.5 -121
q0 -203 149 -203q77 0 120 31l27 161l-83 8l10 57h269zM550 892l41 -6q-16 -61 -58 -101.5t-113 -40.5q-70 0 -98 41t-23 101l39 8q6 -38 26.5 -55t69.5 -17q47 0 72 17t44 53z" />
    <glyph glyph-name="gbreve" unicode="&#x11f;" horiz-adv-x="553" 
d="M131 -113l-45 -7q-4 -10 -4 -16q0 -29 62 -29q71 0 111.5 48t67.5 138q6 20 17 62.5t13 49.5l-6 2q-53 -126 -182 -126q-71 0 -108 46t-37 132q0 78 27 150t86 122.5t137 50.5q90 0 121 -81l19 69q62 -2 113 6q-16 -72 -47.5 -238.5t-41.5 -214.5q-53 -262 -295 -262
q-69 0 -109.5 26.5t-40.5 76.5q0 38 22 61t59 23q27 0 45 -16.5t18 -49.5q0 -7 -2 -23zM211 79q45 0 82 48.5t55 110t18 113.5q0 49 -20 75.5t-57 26.5q-50 0 -84.5 -45.5t-47.5 -103.5t-13 -121q0 -52 15 -78t52 -26zM439 743l42 -7q-18 -67 -61.5 -113t-114.5 -46
q-69 0 -96.5 46t-22.5 112l43 9q8 -45 26.5 -65.5t65.5 -20.5q46 0 72 21t46 64z" />
    <glyph glyph-name="Gdotaccent" unicode="&#x120;" horiz-adv-x="676" 
d="M656 256l-64 -7l-31 -182q-45 -34 -118 -56t-144 -22q-121 0 -191 67.5t-70 201.5q0 119 45.5 221.5t133.5 167t201 64.5q49 0 96.5 -16.5t55.5 -16.5q16 0 30 24h46l-30 -220h-53q-7 89 -39.5 127t-105.5 38q-66 0 -116.5 -40t-76.5 -102.5t-38.5 -124.5t-12.5 -121
q0 -203 149 -203q77 0 120 31l27 161l-83 8l10 57h269zM425 751q-65 0 -65 59q0 37 24 61.5t63 24.5q64 0 64 -61q0 -37 -23.5 -60.5t-62.5 -23.5z" />
    <glyph glyph-name="gdotaccent" unicode="&#x121;" horiz-adv-x="553" 
d="M131 -113l-45 -7q-4 -10 -4 -16q0 -29 62 -29q71 0 111.5 48t67.5 138q6 20 17 62.5t13 49.5l-6 2q-53 -126 -182 -126q-71 0 -108 46t-37 132q0 78 27 150t86 122.5t137 50.5q90 0 121 -81l19 69q62 -2 113 6q-16 -72 -47.5 -238.5t-41.5 -214.5q-53 -262 -295 -262
q-69 0 -109.5 26.5t-40.5 76.5q0 38 22 61t59 23q27 0 45 -16.5t18 -49.5q0 -7 -2 -23zM211 79q45 0 82 48.5t55 110t18 113.5q0 49 -20 75.5t-57 26.5q-50 0 -84.5 -45.5t-47.5 -103.5t-13 -121q0 -52 15 -78t52 -26zM313 589q-65 0 -65 59q0 37 24 61.5t63 24.5
q64 0 64 -61q0 -37 -23.5 -60.5t-62.5 -23.5z" />
    <glyph glyph-name="Gcommaaccent" unicode="&#x122;" horiz-adv-x="676" 
d="M656 256l-64 -7l-31 -182q-45 -34 -118 -56t-144 -22q-121 0 -191 67.5t-70 201.5q0 119 45.5 221.5t133.5 167t201 64.5q49 0 96.5 -16.5t55.5 -16.5q16 0 30 24h46l-30 -220h-53q-7 89 -39.5 127t-105.5 38q-66 0 -116.5 -40t-76.5 -102.5t-38.5 -124.5t-12.5 -121
q0 -203 149 -203q77 0 120 31l27 161l-83 8l10 57h269zM260 -278l-17 26q74 48 74 89q0 18 -16 23l-29 -27q-31 15 -31 49q0 27 19.5 44.5t48.5 17.5q32 0 48.5 -20t16.5 -48q0 -83 -114 -154z" />
    <glyph glyph-name="gcommaaccent" unicode="&#x123;" horiz-adv-x="553" 
d="M131 -113l-45 -7q-4 -10 -4 -16q0 -29 62 -29q71 0 111.5 48t67.5 138q6 20 17 62.5t13 49.5l-6 2q-53 -126 -182 -126q-71 0 -108 46t-37 132q0 78 27 150t86 122.5t137 50.5q90 0 121 -81l19 69q62 -2 113 6q-16 -72 -47.5 -238.5t-41.5 -214.5q-53 -262 -295 -262
q-69 0 -109.5 26.5t-40.5 76.5q0 38 22 61t59 23q27 0 45 -16.5t18 -49.5q0 -7 -2 -23zM211 79q45 0 82 48.5t55 110t18 113.5q0 49 -20 75.5t-57 26.5q-50 0 -84.5 -45.5t-47.5 -103.5t-13 -121q0 -52 15 -78t52 -26zM288 673l22 -26q24 7 24 35q0 33 -51 77l25 27
q75 -59 75 -129q0 -38 -22.5 -66t-60.5 -28q-27 0 -42.5 15.5t-15.5 38.5q0 21 13 35.5t33 20.5z" />
    <glyph glyph-name="Hcircumflex" unicode="&#x124;" horiz-adv-x="762" 
d="M658 0h-266l10 57l70 8l44 256h-263l-44 -256l67 -8l-10 -57h-265l10 57l69 8l98 570l-68 7l11 58h265l-10 -57l-70 -7l-41 -244h263l41 243l-67 7l11 58h266l-11 -57l-70 -7l-97 -571l67 -8zM615 759l-26 -23l-117 82l-157 -85l-19 30l146 132q22 11 44 11q16 0 26 -7.5
t23 -25.5z" />
    <glyph glyph-name="hcircumflex" unicode="&#x125;" horiz-adv-x="583" 
d="M518 86l29 -30q-48 -67 -126 -67q-45 0 -71.5 23.5t-26.5 67.5q0 25 7 60.5t14.5 62.5t22.5 78t22 77q9 30 9 49q0 37 -34 37q-47 0 -99 -72.5t-75 -149.5q-28 -93 -44 -219q-71 2 -128 -10l45 194l80 495l-75 9l8 51l189 9l4 -10l-90 -419l6 -3q91 191 220 191
q50 0 76.5 -28t26.5 -80q0 -31 -11 -73q-49 -185 -54 -206q-4 -16 -4 -32q0 -34 31 -34q22 0 48 29zM341 797l-26 -23l-117 82l-157 -85l-19 30l146 132q22 11 44 11q16 0 26 -7.5t23 -25.5z" />
    <glyph glyph-name="Hbar" unicode="&#x126;" horiz-adv-x="762" 
d="M658 0h-266l10 57l70 8l44 256h-263l-44 -256l67 -8l-10 -57h-265l10 57l69 8l74 429h-75l9 54h75l15 87l-68 7l11 58h265l-10 -57l-70 -7l-15 -88h263l15 87l-67 7l11 58h266l-11 -57l-70 -7l-15 -88h77l-9 -54h-77l-73 -429l67 -8zM265 392h263l17 102h-263z" />
    <glyph glyph-name="hbar" unicode="&#x127;" horiz-adv-x="583" 
d="M518 86l29 -30q-48 -67 -126 -67q-45 0 -71.5 23.5t-26.5 67.5q0 25 7 60.5t14.5 62.5t22.5 78t22 77q9 30 9 49q0 37 -34 37q-47 0 -99 -72.5t-75 -149.5q-28 -93 -44 -219q-71 2 -128 -10l45 194l62 383h-80l9 54h79l10 58l-75 9l8 51l189 9l4 -10l-25 -117h191l-9 -54
h-194l-53 -248l6 -3q91 191 220 191q50 0 76.5 -28t26.5 -80q0 -31 -11 -73q-49 -185 -54 -206q-4 -16 -4 -32q0 -34 31 -34q22 0 48 29z" />
    <glyph glyph-name="Itilde" unicode="&#x128;" horiz-adv-x="370" 
d="M267 0h-266l9 57l70 8l98 570l-68 7l10 58h265l-9 -57l-70 -7l-97 -571l67 -7zM419 873l29 -9q-46 -111 -124 -111q-35 0 -85 23q-37 16 -56 16q-30 0 -56 -44l-29 10q25 57 54.5 83.5t71.5 26.5q9 0 17.5 -1t14 -2t13.5 -4t11.5 -4.5t13 -6t12.5 -5.5q36 -15 56 -15
q18 0 30 9t27 34z" />
    <glyph glyph-name="itilde" unicode="&#x129;" horiz-adv-x="298" 
d="M240 84l27 -27q-47 -68 -123 -68q-103 0 -103 95q0 31 21 126q49 212 52 223l-77 8l8 52l193 9l4 -8q-78 -348 -83 -379q-10 -59 31 -59q25 0 50 28zM340 717l29 -9q-46 -111 -124 -111q-35 0 -85 23q-37 16 -56 16q-30 0 -56 -44l-29 10q25 57 54.5 83.5t71.5 26.5
q9 0 17.5 -1t14 -2t13.5 -4t11.5 -4.5t13 -6t12.5 -5.5q36 -15 56 -15q18 0 30 9t27 34z" />
    <glyph glyph-name="Imacron" unicode="&#x12a;" horiz-adv-x="370" 
d="M267 0h-266l9 57l70 8l98 570l-68 7l10 58h265l-9 -57l-70 -7l-97 -571l67 -7zM398 776h-272l14 76h272z" />
    <glyph glyph-name="imacron" unicode="&#x12b;" horiz-adv-x="298" 
d="M240 84l27 -27q-47 -68 -123 -68q-103 0 -103 95q0 31 21 126q49 212 52 223l-77 8l8 52l193 9l4 -8q-78 -348 -83 -379q-10 -59 31 -59q25 0 50 28zM313 609h-272l14 76h272z" />
    <glyph glyph-name="Ibreve" unicode="&#x12c;" horiz-adv-x="370" 
d="M267 0h-266l9 57l70 8l98 570l-68 7l10 58h265l-9 -57l-70 -7l-97 -571l67 -7zM388 892l41 -6q-16 -61 -58 -101.5t-113 -40.5q-70 0 -98 41t-23 101l39 8q6 -38 26.5 -55t69.5 -17q47 0 72 17t44 53z" />
    <glyph glyph-name="ibreve" unicode="&#x12d;" horiz-adv-x="298" 
d="M240 84l27 -27q-47 -68 -123 -68q-103 0 -103 95q0 31 21 126q49 212 52 223l-77 8l8 52l193 9l4 -8q-78 -348 -83 -379q-10 -59 31 -59q25 0 50 28zM307 743l42 -7q-18 -67 -61.5 -113t-114.5 -46q-69 0 -96.5 46t-22.5 112l43 9q8 -45 26.5 -65.5t65.5 -20.5
q46 0 72 21t46 64z" />
    <glyph glyph-name="Iogonek" unicode="&#x12e;" horiz-adv-x="370" 
d="M170 -136l29 -22q-47 -71 -128 -71q-42 0 -64.5 19t-22.5 52q0 47 38.5 84.5t99.5 73.5h-121l9 57l70 8l98 570l-68 7l10 58h265l-9 -57l-70 -7l-97 -571l67 -7l-9 -58h-84q-102 -77 -102 -138q0 -31 32 -31q28 0 57 33z" />
    <glyph glyph-name="iogonek" unicode="&#x12f;" horiz-adv-x="298" 
d="M190 -136l29 -22q-47 -71 -128 -71q-42 0 -64.5 19t-22.5 52q0 74 121 148q-84 8 -84 94q0 31 21 126q49 212 52 223l-77 8l8 52l193 9l4 -8q-78 -348 -83 -379q-10 -59 31 -59q25 0 50 28l27 -27q-21 -28 -57 -52q-109 -72 -109 -143q0 -31 32 -31q28 0 57 33zM184 589
q-65 0 -65 59q0 37 24 61.5t63 24.5q64 0 64 -61q0 -37 -23.5 -60.5t-62.5 -23.5z" />
    <glyph glyph-name="Idotaccent" unicode="&#x130;" horiz-adv-x="370" 
d="M267 0h-266l9 57l70 8l98 570l-68 7l10 58h265l-9 -57l-70 -7l-97 -571l67 -7zM260 751q-65 0 -65 59q0 37 24 61.5t63 24.5q64 0 64 -61q0 -37 -23.5 -60.5t-62.5 -23.5z" />
    <glyph glyph-name="dotlessi" unicode="&#x131;" horiz-adv-x="298" 
d="M240 84l27 -27q-47 -68 -123 -68q-103 0 -103 95q0 31 21 126q49 212 52 223l-77 8l8 52l193 9l4 -8q-78 -348 -83 -379q-10 -59 31 -59q25 0 50 28z" />
    <glyph glyph-name="IJ" unicode="&#x132;" horiz-adv-x="860" 
d="M267 0h-266l9 57l70 8l98 570l-68 7l10 58h265l-9 -57l-70 -7l-97 -571l67 -7zM619 156l81 480l-84 7l10 57h280l-11 -57l-67 -6l-71 -427q-38 -221 -248 -221q-71 0 -108 32.5t-37 79.5q0 41 24 69.5t68 28.5q32 0 47.5 -15.5t15.5 -41.5q0 -24 -12 -48h-38
q-5 -12 -5 -20q0 -30 53 -30q82 0 102 112z" />
    <glyph glyph-name="Jcircumflex" unicode="&#x134;" horiz-adv-x="503" 
d="M249 156l81 480l-84 7l10 57h280l-11 -57l-67 -6l-71 -427q-38 -221 -248 -221q-71 0 -108 32.5t-37 79.5q0 41 24 69.5t68 28.5q32 0 47.5 -15.5t15.5 -41.5q0 -24 -12 -48h-38q-5 -12 -5 -20q0 -30 53 -30q82 0 102 112zM562 759l-26 -23l-117 82l-157 -85l-19 30
l146 132q22 11 44 11q16 0 26 -7.5t23 -25.5z" />
    <glyph glyph-name="jcircumflex" unicode="&#x135;" horiz-adv-x="292" 
d="M-65 -120l-42 -6q-3 -9 -3 -16q0 -24 40 -24q43 0 62.5 37t34.5 124l77 439l-76 6l9 53l189 9l4 -10l-77 -442q-21 -121 -74 -191t-154 -70q-59 0 -92 24.5t-33 66.5q0 37 21.5 60.5t59.5 23.5q26 0 42 -15t16 -41q0 -15 -4 -28zM296 575l-31 -19l-89 106l-134 -108
l-24 23l130 167q18 13 48 13t43 -35z" />
    <glyph glyph-name="Kcommaaccent" unicode="&#x136;" horiz-adv-x="687" 
d="M631 0h-271l9 57l65 7l-130 267l-54 -20l-42 -246l64 -7l-10 -58h-257l9 58l66 7l97 571l-64 7l10 57h258l-10 -57l-66 -7l-44 -262l58 21l232 241l-67 7l10 57h206l-10 -57l-60 -7l-223 -233l172 -339l61 -7zM233 -280l-17 26q74 48 74 89q0 18 -16 23l-29 -27
q-31 15 -31 49q0 27 19.5 44.5t48.5 17.5q32 0 48.5 -20t16.5 -48q0 -83 -114 -154z" />
    <glyph glyph-name="kcommaaccent" unicode="&#x137;" horiz-adv-x="542" 
d="M483 89l29 -28q-20 -29 -54 -50.5t-75 -21.5q-51 0 -77 22.5t-26 61.5q0 20 6 41l16 57q3 12 3 21q0 42 -50 42q-38 0 -82 -23l-35 -207q-71 0 -121 -13l50 222l74 471l-76 8l8 50l191 8l3 -8l-86 -470l87 50q65 37 87 55t20 39l-38 14q-4 35 17 61t60 26
q33 0 51.5 -20.5t18.5 -47.5q0 -55 -66 -92q-111 -61 -153 -82l3 -5q33 5 54 5q96 0 96 -75q0 -17 -6 -38l-14 -52q-4 -18 -4 -23q0 -31 34 -31q28 0 55 33zM164 -280l-17 26q74 48 74 89q0 18 -16 23l-29 -27q-31 15 -31 49q0 27 19.5 44.5t48.5 17.5q32 0 48.5 -20
t16.5 -48q0 -83 -114 -154z" />
    <glyph glyph-name="kgreenlandic" unicode="&#x138;" horiz-adv-x="542" 
d="M483 89l29 -28q-20 -29 -54 -50.5t-75 -21.5q-51 0 -77 22.5t-26 61.5q0 20 6 41l16 57q3 12 3 21q0 42 -50 42q-38 0 -82 -23l-35 -207q-71 0 -121 -13l50 222l31 224l-76 8l8 50l189 8l3 -8l-41 -223l87 50q37 21 50 29t31 21t22.5 22.5t3.5 21.5l-38 14q-4 35 17 61
t60 26q33 0 51.5 -20.5t18.5 -47.5q0 -55 -66 -92q-111 -61 -153 -82l3 -5q33 5 54 5q96 0 96 -75q0 -17 -6 -38l-14 -52q-4 -18 -4 -23q0 -31 34 -31q28 0 55 33z" />
    <glyph glyph-name="Lacute" unicode="&#x139;" horiz-adv-x="598" 
d="M503 0h-502l8 57l71 8l96 569l-67 8l11 58h287l-10 -57l-92 -9l-97 -570h51q102 0 151.5 36t84.5 146h57zM355 810l-162 -75l-19 26l152 149l41 -11q34 -8 34 -37q0 -31 -46 -52z" />
    <glyph glyph-name="lacute" unicode="&#x13a;" horiz-adv-x="300" 
d="M243 84l27 -27q-47 -68 -124 -68q-47 0 -75 24.5t-28 72.5q0 30 41 240q37 181 71 356l-75 8l8 52l191 9l4 -8q-61 -284 -121 -628q-11 -59 31 -59q23 0 50 28zM285 863l-162 -75l-19 26l152 149l41 -11q34 -8 34 -37q0 -31 -46 -52z" />
    <glyph glyph-name="Lcommaaccent" unicode="&#x13b;" horiz-adv-x="598" 
d="M503 0h-502l8 57l71 8l96 569l-67 8l11 58h287l-10 -57l-92 -9l-97 -570h51q102 0 151.5 36t84.5 146h57zM210 -280l-17 26q74 48 74 89q0 18 -16 23l-29 -27q-31 15 -31 49q0 27 19.5 44.5t48.5 17.5q32 0 48.5 -20t16.5 -48q0 -83 -114 -154z" />
    <glyph glyph-name="lcommaaccent" unicode="&#x13c;" horiz-adv-x="300" 
d="M243 84l27 -27q-47 -68 -124 -68q-47 0 -75 24.5t-28 72.5q0 30 41 240q37 181 71 356l-75 8l8 52l191 9l4 -8q-61 -284 -121 -628q-11 -59 31 -59q23 0 50 28zM72 -280l-17 26q74 48 74 89q0 18 -16 23l-29 -27q-31 15 -31 49q0 27 19.5 44.5t48.5 17.5q32 0 48.5 -20
t16.5 -48q0 -83 -114 -154z" />
    <glyph glyph-name="Lcaron" unicode="&#x13d;" horiz-adv-x="598" 
d="M503 0h-502l8 57l71 8l96 569l-67 8l11 58h287l-10 -57l-92 -9l-97 -570h51q102 0 151.5 36t84.5 146h57zM455 474l-22 30q65 47 65 95q0 35 -33 62l26 26q24 24 50 24q48 0 48 -56q0 -91 -134 -181z" />
    <glyph glyph-name="lcaron" unicode="&#x13e;" horiz-adv-x="369" 
d="M243 84l27 -27q-47 -68 -124 -68q-47 0 -75 24.5t-28 72.5q0 30 41 240q37 181 71 356l-75 8l8 52l191 9l4 -8q-61 -284 -121 -628q-11 -59 31 -59q23 0 50 28zM298 518l-22 30q65 47 65 95q0 35 -33 62l26 26q24 24 50 24q48 0 48 -56q0 -91 -134 -181z" />
    <glyph glyph-name="Ldot" unicode="&#x13f;" horiz-adv-x="598" 
d="M503 0h-502l8 57l71 8l96 569l-67 8l11 58h287l-10 -57l-92 -9l-97 -570h51q102 0 151.5 36t84.5 146h57zM477 317q-65 0 -65 59q0 37 24 61.5t63 24.5q64 0 64 -61q0 -37 -23.5 -60.5t-62.5 -23.5z" />
    <glyph glyph-name="ldot" unicode="&#x140;" horiz-adv-x="359" 
d="M243 84l27 -27q-47 -68 -124 -68q-47 0 -75 24.5t-28 72.5q0 30 41 240q37 181 71 356l-75 8l8 52l191 9l4 -8q-61 -284 -121 -628q-11 -59 31 -59q23 0 50 28zM321 310q-65 0 -65 59q0 37 24 61.5t63 24.5q64 0 64 -61q0 -37 -23.5 -60.5t-62.5 -23.5z" />
    <glyph glyph-name="Lslash" unicode="&#x141;" horiz-adv-x="598" 
d="M25 235l-13 56l116 62l48 281l-67 8l11 58h287l-10 -57l-92 -9l-39 -228l173 91l13 -58l-198 -103l-46 -272h51q102 0 151.5 36t84.5 146h57l-49 -246h-502l8 57l71 8l37 219z" />
    <glyph glyph-name="lslash" unicode="&#x142;" horiz-adv-x="326" 
d="M13 301l-13 55l101 54l54 272l-75 8l8 52l191 9l4 -8l-57 -284l87 46l13 -57l-113 -60q-28 -144 -51 -273q-11 -59 31 -59q23 0 50 28l27 -27q-47 -68 -124 -68q-47 0 -75 24.5t-28 72.5q0 30 41 240l3 15z" />
    <glyph glyph-name="Nacute" unicode="&#x143;" horiz-adv-x="721" 
d="M563 -7h-86l-234 615h-4l-90 -544l67 -6l-10 -58h-197l10 58l60 6l97 571l-58 7l10 58h222l178 -487h4l72 422l-60 7l11 58h188l-11 -58l-59 -7zM559 810l-162 -75l-19 26l152 149l41 -11q34 -8 34 -37q0 -31 -46 -52z" />
    <glyph glyph-name="nacute" unicode="&#x144;" horiz-adv-x="589" 
d="M522 84l27 -27q-49 -68 -124 -68q-45 0 -71.5 23.5t-26.5 67.5q0 25 7 60.5t14.5 63.5t22.5 77.5t22 76.5q8 32 8 50q0 37 -33 37q-48 0 -99.5 -72.5t-74.5 -150.5q-28 -93 -44 -219q-71 2 -128 -10l45 194l34 247l-76 9l9 51l189 9l4 -10l-44 -174l6 -3q92 194 219 194
q50 0 77 -28.5t27 -80.5q0 -30 -11 -72q-53 -200 -55 -208q-4 -24 -4 -32q0 -33 31 -33q23 0 49 28zM432 681l-135 -125l-25 17l94 179l47 10q18 4 33 -4t15 -27q0 -23 -29 -50z" />
    <glyph glyph-name="Ncommaaccent" unicode="&#x145;" horiz-adv-x="721" 
d="M563 -7h-86l-234 615h-4l-90 -544l67 -6l-10 -58h-197l10 58l60 6l97 571l-58 7l10 58h222l178 -487h4l72 422l-60 7l11 58h188l-11 -58l-59 -7zM247 -290l-17 26q74 48 74 89q0 18 -16 23l-29 -27q-31 15 -31 49q0 27 19.5 44.5t48.5 17.5q32 0 48.5 -20t16.5 -48
q0 -83 -114 -154z" />
    <glyph glyph-name="ncommaaccent" unicode="&#x146;" horiz-adv-x="589" 
d="M522 84l27 -27q-49 -68 -124 -68q-45 0 -71.5 23.5t-26.5 67.5q0 25 7 60.5t14.5 63.5t22.5 77.5t22 76.5q8 32 8 50q0 37 -33 37q-48 0 -99.5 -72.5t-74.5 -150.5q-28 -93 -44 -219q-71 2 -128 -10l45 194l34 247l-76 9l9 51l189 9l4 -10l-44 -174l6 -3q92 194 219 194
q50 0 77 -28.5t27 -80.5q0 -30 -11 -72q-53 -200 -55 -208q-4 -24 -4 -32q0 -33 31 -33q23 0 49 28zM174 -280l-17 26q74 48 74 89q0 18 -16 23l-29 -27q-31 15 -31 49q0 27 19.5 44.5t48.5 17.5q32 0 48.5 -20t16.5 -48q0 -83 -114 -154z" />
    <glyph glyph-name="Ncaron" unicode="&#x147;" horiz-adv-x="721" 
d="M563 -7h-86l-234 615h-4l-90 -544l67 -6l-10 -58h-197l10 58l60 6l97 571l-58 7l10 58h222l178 -487h4l72 422l-60 7l11 58h188l-11 -58l-59 -7zM631 886l-147 -134q-20 -11 -41 -11q-17 0 -27.5 7.5t-22.5 25.5l-79 116l29 27l115 -89l153 88z" />
    <glyph glyph-name="ncaron" unicode="&#x148;" horiz-adv-x="589" 
d="M522 84l27 -27q-49 -68 -124 -68q-45 0 -71.5 23.5t-26.5 67.5q0 25 7 60.5t14.5 63.5t22.5 77.5t22 76.5q8 32 8 50q0 37 -33 37q-48 0 -99.5 -72.5t-74.5 -150.5q-28 -93 -44 -219q-71 2 -128 -10l45 194l34 247l-76 9l9 51l189 9l4 -10l-44 -174l6 -3q92 194 219 194
q50 0 77 -28.5t27 -80.5q0 -30 -11 -72q-53 -200 -55 -208q-4 -24 -4 -32q0 -33 31 -33q23 0 49 28zM491 744l-107 -145q-25 -34 -59 -34q-26 0 -42 13l-71 168l30 20l93 -109l133 108z" />
    <glyph glyph-name="napostrophe" unicode="&#x149;" horiz-adv-x="626" 
d="M561 84l27 -27q-49 -68 -124 -68q-45 0 -71.5 23.5t-26.5 67.5q0 25 7 60.5t14.5 63.5t22.5 77.5t22 76.5q8 32 8 50q0 37 -33 37q-48 0 -99.5 -72.5t-74.5 -150.5q-28 -93 -44 -219q-71 2 -128 -10l45 194l34 247l-76 9l9 51l189 9l4 -10l-44 -174l6 -3q92 194 219 194
q50 0 77 -28.5t27 -80.5q0 -30 -11 -72q-53 -200 -55 -208q-4 -24 -4 -32q0 -33 31 -33q23 0 49 28zM6 484l-17 26q74 48 74 89q0 18 -16 23l-29 -27q-31 15 -31 49q0 27 19.5 44.5t48.5 17.5q32 0 48.5 -20t16.5 -48q0 -83 -114 -154z" />
    <glyph glyph-name="Eng" unicode="&#x14a;" horiz-adv-x="721" 
d="M673 635l-111 -647q-38 -221 -227 -221q-71 0 -108 32.5t-37 79.5q0 41 24 69.5t68 28.5q46 0 59 -33.5t-8 -71.5h-38q-11 -23 1 -36.5t47 -13.5q38 0 60 27t32 85l20 115l-212 559h-4l-90 -544l67 -6l-10 -58h-197l10 58l60 6l97 571l-58 7l10 58h222l178 -487h4l72 422
l-60 7l11 58h188l-11 -58z" />
    <glyph glyph-name="eng" unicode="&#x14b;" horiz-adv-x="584" 
d="M511 364l-53 -314q-44 -261 -228 -261q-58 0 -91.5 28t-33.5 71q0 37 21.5 61.5t59.5 24.5q33 0 49 -22.5t5 -61.5l-41 -6q-9 -22 1.5 -34.5t34.5 -12.5q43 0 63 37.5t34 120.5l64 363q7 35 7 50q0 37 -33 37q-48 0 -99.5 -72.5t-74.5 -150.5q-28 -93 -44 -219
q-71 2 -128 -10l45 194l34 247l-76 9l9 51l189 9l4 -10l-44 -174l6 -3q92 194 219 194q50 0 77 -28.5t27 -80.5q0 -17 -3 -37z" />
    <glyph glyph-name="Omacron" unicode="&#x14c;" horiz-adv-x="690" 
d="M296 51q52 0 94.5 29.5t68 75t42.5 104t23.5 111.5t6.5 103q0 87 -29 131.5t-98 44.5q-62 0 -109.5 -39.5t-73.5 -102.5t-39 -130t-13 -132q0 -195 127 -195zM287 -11q-123 0 -187.5 67.5t-64.5 195.5q0 68 15 133t46.5 124.5t76 104t108 71t138.5 26.5q120 0 183 -69.5
t63 -202.5q0 -78 -23 -155t-67.5 -144.5t-119.5 -109t-168 -41.5zM564 776h-272l14 76h272z" />
    <glyph glyph-name="omacron" unicode="&#x14d;" horiz-adv-x="532" 
d="M212 43q44 0 76 33t47.5 84t22.5 97.5t7 88.5q0 111 -81 111q-40 0 -70.5 -30t-47 -77.5t-24.5 -97t-8 -97.5q0 -112 78 -112zM203 -11q-97 0 -144 50.5t-47 141.5q0 62 19 120t54 105t90.5 75.5t122.5 28.5q97 0 143.5 -50.5t46.5 -141.5q0 -81 -31.5 -154.5t-98.5 -124
t-155 -50.5zM450 609h-272l14 76h272z" />
    <glyph glyph-name="Obreve" unicode="&#x14e;" horiz-adv-x="690" 
d="M296 51q52 0 94.5 29.5t68 75t42.5 104t23.5 111.5t6.5 103q0 87 -29 131.5t-98 44.5q-62 0 -109.5 -39.5t-73.5 -102.5t-39 -130t-13 -132q0 -195 127 -195zM287 -11q-123 0 -187.5 67.5t-64.5 195.5q0 68 15 133t46.5 124.5t76 104t108 71t138.5 26.5q120 0 183 -69.5
t63 -202.5q0 -78 -23 -155t-67.5 -144.5t-119.5 -109t-168 -41.5zM554 892l41 -6q-16 -61 -58 -101.5t-113 -40.5q-70 0 -98 41t-23 101l39 8q6 -38 26.5 -55t69.5 -17q47 0 72 17t44 53z" />
    <glyph glyph-name="obreve" unicode="&#x14f;" horiz-adv-x="532" 
d="M212 43q44 0 76 33t47.5 84t22.5 97.5t7 88.5q0 111 -81 111q-40 0 -70.5 -30t-47 -77.5t-24.5 -97t-8 -97.5q0 -112 78 -112zM203 -11q-97 0 -144 50.5t-47 141.5q0 62 19 120t54 105t90.5 75.5t122.5 28.5q97 0 143.5 -50.5t46.5 -141.5q0 -81 -31.5 -154.5t-98.5 -124
t-155 -50.5zM445 743l42 -7q-18 -67 -61.5 -113t-114.5 -46q-69 0 -96.5 46t-22.5 112l43 9q8 -45 26.5 -65.5t65.5 -20.5q46 0 72 21t46 64z" />
    <glyph glyph-name="Ohungarumlaut" unicode="&#x150;" horiz-adv-x="690" 
d="M296 51q52 0 94.5 29.5t68 75t42.5 104t23.5 111.5t6.5 103q0 87 -29 131.5t-98 44.5q-62 0 -109.5 -39.5t-73.5 -102.5t-39 -130t-13 -132q0 -195 127 -195zM287 -11q-123 0 -187.5 67.5t-64.5 195.5q0 68 15 133t46.5 124.5t76 104t108 71t138.5 26.5q120 0 183 -69.5
t63 -202.5q0 -78 -23 -155t-67.5 -144.5t-119.5 -109t-168 -41.5zM634 833l-149 -97l-21 22l125 161l42 -1q20 -1 31 -10t10 -26q-3 -27 -38 -49zM477 842l-142 -108l-24 20l113 169l41 3q22 2 34.5 -8t10.5 -30q-2 -24 -33 -46z" />
    <glyph glyph-name="ohungarumlaut" unicode="&#x151;" horiz-adv-x="532" 
d="M212 43q44 0 76 33t47.5 84t22.5 97.5t7 88.5q0 111 -81 111q-40 0 -70.5 -30t-47 -77.5t-24.5 -97t-8 -97.5q0 -112 78 -112zM203 -11q-97 0 -144 50.5t-47 141.5q0 62 19 120t54 105t90.5 75.5t122.5 28.5q97 0 143.5 -50.5t46.5 -141.5q0 -81 -31.5 -154.5t-98.5 -124
t-155 -50.5zM375 555l-27 16l95 186l46 10q18 5 33 -3t15 -27q0 -22 -30 -52zM352 684l-131 -129l-26 16l94 184l45 11q19 4 33.5 -4t14.5 -27q0 -23 -30 -51z" />
    <glyph glyph-name="OE" unicode="&#x152;" horiz-adv-x="1003" 
d="M31 276q0 85 27 163t77 139t127 97t170 36q53 0 118 -11h438l-27 -204h-56q-3 87 -35 114.5t-123 27.5h-69l-43 -252h37q52 0 77.5 24t48.5 90h45l-51 -296h-48q2 76 -14.5 99t-74.5 23h-30l-44 -262h67q108 0 155.5 36t80.5 137h57l-48 -237h-447q-61 -11 -135 -11
q-130 0 -205 71t-75 216zM165 258q0 -104 38.5 -155.5t127.5 -51.5q72 0 122 26l89 547q-48 26 -122 26q-52 0 -95.5 -25t-72.5 -65t-49 -92t-29 -105t-9 -105z" />
    <glyph glyph-name="oe" unicode="&#x153;" horiz-adv-x="800" 
d="M699 180l53 -19q-25 -81 -84 -126.5t-137 -45.5q-56 0 -95.5 27t-53.5 68q-73 -95 -186 -95q-93 0 -138.5 50.5t-45.5 141.5q0 83 31.5 157t96.5 123t151 49q111 0 149 -94q77 94 186 94q65 0 102 -31t37 -89q0 -130 -183 -169q-61 -12 -117 -14v-20q0 -66 22 -97t72 -31
q88 0 140 121zM215 42q42 0 73.5 34t47 85t22.5 98t7 87q0 111 -81 111q-40 0 -70.5 -30t-47 -77.5t-24.5 -97t-8 -97.5q0 -113 81 -113zM472 261q35 2 66 9q119 30 119 125q0 63 -52 63q-45 0 -82.5 -53.5t-50.5 -143.5z" />
    <glyph glyph-name="Racute" unicode="&#x154;" horiz-adv-x="664" 
d="M594 92l32 -32q-50 -71 -127 -71q-105 0 -115 113l-11 116q-5 59 -24 85t-73 26h-23l-45 -263l83 -8l-10 -58h-286l10 58l75 8l97 569l-74 8l11 57h234q51 0 90.5 -5.5t78.5 -20t60.5 -45.5t21.5 -77q0 -88 -62 -133.5t-166 -54.5v-5q62 -12 91.5 -42t35.5 -92l8 -94
q2 -22 5 -34.5t12 -21.5t25 -9q23 0 46 26zM263 387h17q79 0 128.5 38.5t49.5 115.5q0 50 -31.5 72t-99.5 22h-22zM447 810l-162 -75l-19 26l152 149l41 -11q34 -8 34 -37q0 -31 -46 -52z" />
    <glyph glyph-name="racute" unicode="&#x155;" horiz-adv-x="487" 
d="M22 -8l48 212l34 229l-77 11l9 51l181 8l5 -11l-48 -199l6 -3q20 47 38 80.5t43.5 68t57 53t67.5 18.5q38 0 63.5 -21t25.5 -63q0 -40 -23.5 -60t-61.5 -20q-18 0 -34 4l-4 60q-6 5 -17 5q-42 -5 -82 -68.5t-69 -155.5q-20 -63 -34 -186q-73 -2 -128 -13zM383 681
l-135 -125l-25 17l94 179l47 10q18 4 33 -4t15 -27q0 -23 -29 -50z" />
    <glyph glyph-name="Rcommaaccent" unicode="&#x156;" horiz-adv-x="664" 
d="M594 92l32 -32q-50 -71 -127 -71q-105 0 -115 113l-11 116q-5 59 -24 85t-73 26h-23l-45 -263l83 -8l-10 -58h-286l10 58l75 8l97 569l-74 8l11 57h234q51 0 90.5 -5.5t78.5 -20t60.5 -45.5t21.5 -77q0 -88 -62 -133.5t-166 -54.5v-5q62 -12 91.5 -42t35.5 -92l8 -94
q2 -22 5 -34.5t12 -21.5t25 -9q23 0 46 26zM263 387h17q79 0 128.5 38.5t49.5 115.5q0 50 -31.5 72t-99.5 22h-22zM223 -290l-17 26q74 48 74 89q0 18 -16 23l-29 -27q-31 15 -31 49q0 27 19.5 44.5t48.5 17.5q32 0 48.5 -20t16.5 -48q0 -83 -114 -154z" />
    <glyph glyph-name="rcommaaccent" unicode="&#x157;" horiz-adv-x="487" 
d="M22 -8l48 212l34 229l-77 11l9 51l181 8l5 -11l-48 -199l6 -3q20 47 38 80.5t43.5 68t57 53t67.5 18.5q38 0 63.5 -21t25.5 -63q0 -40 -23.5 -60t-61.5 -20q-18 0 -34 4l-4 60q-6 5 -17 5q-42 -5 -82 -68.5t-69 -155.5q-20 -63 -34 -186q-73 -2 -128 -13zM26 -280l-17 26
q74 48 74 89q0 18 -16 23l-29 -27q-31 15 -31 49q0 27 19.5 44.5t48.5 17.5q32 0 48.5 -20t16.5 -48q0 -83 -114 -154z" />
    <glyph glyph-name="Rcaron" unicode="&#x158;" horiz-adv-x="664" 
d="M594 92l32 -32q-50 -71 -127 -71q-105 0 -115 113l-11 116q-5 59 -24 85t-73 26h-23l-45 -263l83 -8l-10 -58h-286l10 58l75 8l97 569l-74 8l11 57h234q51 0 90.5 -5.5t78.5 -20t60.5 -45.5t21.5 -77q0 -88 -62 -133.5t-166 -54.5v-5q62 -12 91.5 -42t35.5 -92l8 -94
q2 -22 5 -34.5t12 -21.5t25 -9q23 0 46 26zM263 387h17q79 0 128.5 38.5t49.5 115.5q0 50 -31.5 72t-99.5 22h-22zM535 886l-147 -134q-20 -11 -41 -11q-17 0 -27.5 7.5t-22.5 25.5l-79 116l29 27l115 -89l153 88z" />
    <glyph glyph-name="rcaron" unicode="&#x159;" horiz-adv-x="487" 
d="M22 -8l48 212l34 229l-77 11l9 51l181 8l5 -11l-48 -199l6 -3q20 47 38 80.5t43.5 68t57 53t67.5 18.5q38 0 63.5 -21t25.5 -63q0 -40 -23.5 -60t-61.5 -20q-18 0 -34 4l-4 60q-6 5 -17 5q-42 -5 -82 -68.5t-69 -155.5q-20 -63 -34 -186q-73 -2 -128 -13zM436 744
l-107 -145q-25 -34 -59 -34q-26 0 -42 13l-71 168l30 20l93 -109l133 108z" />
    <glyph glyph-name="Sacute" unicode="&#x15a;" horiz-adv-x="559" 
d="M55 -7h-49l30 228h57q13 -168 166 -168q62 0 103 29t41 86q0 22 -9 40t-19 29.5t-34 24.5t-36.5 18.5t-44.5 18.5q-37 15 -60 27.5t-49.5 34.5t-39.5 55t-13 77q0 94 66 156t170 62q47 0 93.5 -20t50.5 -20q10 0 16.5 7t14.5 24h47l-29 -207h-58q-8 80 -39 117t-96 37
q-53 0 -90.5 -26.5t-37.5 -78.5q0 -26 10 -46t33.5 -36t40 -24t52.5 -23q38 -16 60.5 -28t50 -34.5t40.5 -54.5t13 -75q0 -104 -72 -169t-174 -65q-45 0 -81 11t-58 22.5t-32 11.5t-17 -8.5t-17 -32.5zM436 810l-162 -75l-19 26l152 149l41 -11q34 -8 34 -37q0 -31 -46 -52z
" />
    <glyph glyph-name="sacute" unicode="&#x15b;" horiz-adv-x="453" 
d="M120 92h-31q-10 -26 10.5 -40t69.5 -14q51 0 81 20.5t30 62.5q0 18 -7.5 31.5t-25.5 24.5t-30.5 16.5t-40.5 16.5q-52 20 -82 49t-30 86q0 75 61.5 120t147.5 45q69 0 109.5 -27t40.5 -77q0 -35 -18.5 -56.5t-53.5 -21.5q-23 0 -39 11.5t-16 31.5q0 27 15 46h30
q9 22 -9 33.5t-56 11.5q-45 0 -79 -20t-34 -59q0 -20 15 -35.5t30.5 -23.5t47.5 -21t49 -21.5t40.5 -26t34 -41t10.5 -55.5q0 -78 -63 -124t-159 -46q-81 0 -122 32t-41 82q0 37 20 59.5t54 22.5q25 0 40.5 -13.5t15.5 -35.5q0 -25 -15 -44zM370 681l-135 -125l-25 17
l94 179l47 10q18 4 33 -4t15 -27q0 -23 -29 -50z" />
    <glyph glyph-name="Scircumflex" unicode="&#x15c;" horiz-adv-x="559" 
d="M55 -7h-49l30 228h57q13 -168 166 -168q62 0 103 29t41 86q0 22 -9 40t-19 29.5t-34 24.5t-36.5 18.5t-44.5 18.5q-37 15 -60 27.5t-49.5 34.5t-39.5 55t-13 77q0 94 66 156t170 62q47 0 93.5 -20t50.5 -20q10 0 16.5 7t14.5 24h47l-29 -207h-58q-8 80 -39 117t-96 37
q-53 0 -90.5 -26.5t-37.5 -78.5q0 -26 10 -46t33.5 -36t40 -24t52.5 -23q38 -16 60.5 -28t50 -34.5t40.5 -54.5t13 -75q0 -104 -72 -169t-174 -65q-45 0 -81 11t-58 22.5t-32 11.5t-17 -8.5t-17 -32.5zM504 759l-26 -23l-117 82l-157 -85l-19 30l146 132q22 11 44 11
q16 0 26 -7.5t23 -25.5z" />
    <glyph glyph-name="scircumflex" unicode="&#x15d;" horiz-adv-x="453" 
d="M120 92h-31q-10 -26 10.5 -40t69.5 -14q51 0 81 20.5t30 62.5q0 18 -7.5 31.5t-25.5 24.5t-30.5 16.5t-40.5 16.5q-52 20 -82 49t-30 86q0 75 61.5 120t147.5 45q69 0 109.5 -27t40.5 -77q0 -35 -18.5 -56.5t-53.5 -21.5q-23 0 -39 11.5t-16 31.5q0 27 15 46h30
q9 22 -9 33.5t-56 11.5q-45 0 -79 -20t-34 -59q0 -20 15 -35.5t30.5 -23.5t47.5 -21t49 -21.5t40.5 -26t34 -41t10.5 -55.5q0 -78 -63 -124t-159 -46q-81 0 -122 32t-41 82q0 37 20 59.5t54 22.5q25 0 40.5 -13.5t15.5 -35.5q0 -25 -15 -44zM418 575l-31 -19l-89 106
l-134 -108l-24 23l130 167q18 13 48 13t43 -35z" />
    <glyph glyph-name="Scedilla" unicode="&#x15e;" horiz-adv-x="559" 
d="M185 -155l-22 -15q-3 -21 32 -21q25 0 42 17t17 48q0 42 -42 42q-22 0 -39 -5l-4 23l46 58q-40 6 -79 24t-47 18q-10 0 -17 -8.5t-17 -32.5h-49l30 228h57q13 -168 166 -168q62 0 103 29t41 86q0 21 -8 38.5t-17 28.5t-31 24t-34 18t-41 17q-8 3 -12 5q-37 15 -60 27.5
t-49.5 34.5t-39.5 55t-13 77q0 94 66 156t170 62q47 0 93.5 -20t50.5 -20q10 0 16.5 7t14.5 24h47l-29 -207h-58q-8 80 -39 117t-96 37q-53 0 -90.5 -26.5t-37.5 -78.5q0 -26 10 -46t33.5 -36t40 -24t52.5 -23q38 -16 60.5 -28t50 -34.5t40.5 -54.5t13 -75q0 -104 -72 -169
t-174 -65h-2l-32 -41q10 3 29 3q37 0 57 -19.5t20 -51.5q0 -45 -39 -74t-98 -29q-40 0 -61 17t-21 40q0 17 10.5 29t28.5 12q14 0 23 -8t10 -22z" />
    <glyph glyph-name="scedilla" unicode="&#x15f;" horiz-adv-x="453" 
d="M119 -155l-22 -15q-3 -21 32 -21q25 0 42 17t17 48q0 42 -42 42q-22 0 -39 -5l-4 23l44 56q-70 4 -106 35t-36 78q0 37 20 59.5t54 22.5q25 0 40.5 -13.5t15.5 -35.5q0 -25 -15 -44h-31q-10 -26 10.5 -40t69.5 -14q51 0 81 20.5t30 62.5q0 9 -1.5 16.5t-6 14t-7.5 11.5
t-11.5 10.5t-12 8t-15.5 8t-15.5 7t-17.5 7t-17 6.5q-25 10 -41.5 19t-34.5 24.5t-27 38.5t-9 53q0 75 61.5 120t147.5 45q69 0 109.5 -27t40.5 -77q0 -35 -18.5 -56.5t-53.5 -21.5q-23 0 -39 11.5t-16 31.5q0 27 15 46h30q9 22 -9 33.5t-56 11.5q-45 0 -79 -20t-34 -59
q0 -20 15 -35.5t30.5 -23.5t47.5 -21t49 -21.5t40.5 -26t34 -41t10.5 -55.5q0 -73 -55 -118t-142 -51l-33 -42q10 3 29 3q37 0 57 -19.5t20 -51.5q0 -45 -39 -74t-98 -29q-40 0 -61 17t-21 40q0 17 10.5 29t28.5 12q14 0 23 -8t10 -22z" />
    <glyph glyph-name="Scaron" unicode="&#x160;" horiz-adv-x="559" 
d="M55 -7h-49l30 228h57q13 -168 166 -168q62 0 103 29t41 86q0 22 -9 40t-19 29.5t-34 24.5t-36.5 18.5t-44.5 18.5q-37 15 -60 27.5t-49.5 34.5t-39.5 55t-13 77q0 94 66 156t170 62q47 0 93.5 -20t50.5 -20q10 0 16.5 7t14.5 24h47l-29 -207h-58q-8 80 -39 117t-96 37
q-53 0 -90.5 -26.5t-37.5 -78.5q0 -26 10 -46t33.5 -36t40 -24t52.5 -23q38 -16 60.5 -28t50 -34.5t40.5 -54.5t13 -75q0 -104 -72 -169t-174 -65q-45 0 -81 11t-58 22.5t-32 11.5t-17 -8.5t-17 -32.5zM530 886l-147 -134q-20 -11 -41 -11q-28 0 -50 33l-79 116l29 27
l115 -89l153 88z" />
    <glyph glyph-name="scaron" unicode="&#x161;" horiz-adv-x="453" 
d="M120 92h-31q-10 -26 10.5 -40t69.5 -14q51 0 81 20.5t30 62.5q0 18 -7.5 31.5t-25.5 24.5t-30.5 16.5t-40.5 16.5q-52 20 -82 49t-30 86q0 75 61.5 120t147.5 45q69 0 109.5 -27t40.5 -77q0 -35 -18.5 -56.5t-53.5 -21.5q-23 0 -39 11.5t-16 31.5q0 27 15 46h30
q9 22 -9 33.5t-56 11.5q-45 0 -79 -20t-34 -59q0 -20 15 -35.5t30.5 -23.5t47.5 -21t49 -21.5t40.5 -26t34 -41t10.5 -55.5q0 -78 -63 -124t-159 -46q-81 0 -122 32t-41 82q0 37 20 59.5t54 22.5q25 0 40.5 -13.5t15.5 -35.5q0 -25 -15 -44zM446 744l-107 -145
q-25 -34 -59 -34q-26 0 -42 13l-71 168l30 20l93 -109l133 108z" />
    <glyph glyph-name="uni0162" unicode="&#x162;" horiz-adv-x="648" 
d="M218 -155l-22 -15q-3 -21 32 -21q25 0 42 17t17 48q0 42 -42 42q-22 0 -39 -5l-4 23l52 66h-136l10 58l91 7l98 571h-9q-82 0 -118 -28t-70 -127h-56l47 219h561l-29 -219h-56q-1 71 -13 103t-38 42t-83 10h-8l-97 -571l89 -7l-9 -58h-128l-41 -52q11 3 29 3
q37 0 57 -19.5t20 -51.5q0 -45 -39 -74t-98 -29q-40 0 -61 17t-21 40q0 17 10.5 29t28.5 12q31 0 33 -30z" />
    <glyph glyph-name="uni0163" unicode="&#x163;" horiz-adv-x="358" 
d="M109 -155l-22 -15q-3 -21 32 -21q25 0 42 17t17 48q0 42 -42 42q-22 0 -39 -5l-4 23l46 58q-89 16 -89 103q0 26 20 144l35 198h-72l11 62h71l22 127l87 20h34l-25 -147h105l-11 -62h-104l-44 -252q-10 -58 -10 -79q0 -24 10.5 -34.5t33.5 -10.5q36 0 79 46l33 -33
q-58 -80 -143 -85l-32 -41q11 3 29 3q37 0 57 -19.5t20 -51.5q0 -45 -39 -74t-98 -29q-40 0 -61 17t-21 40q0 17 10.5 29t28.5 12q14 0 23 -8t10 -22z" />
    <glyph glyph-name="Tcaron" unicode="&#x164;" horiz-adv-x="648" 
d="M428 0h-310l10 58l91 7l98 571h-9q-82 0 -118 -28t-70 -127h-56l47 219h561l-29 -219h-56q-1 71 -13 103t-38 42t-83 10h-8l-97 -571l89 -7zM583 886l-147 -134q-20 -11 -41 -11q-17 0 -27.5 7.5t-22.5 25.5l-79 116l29 27l115 -89l153 88z" />
    <glyph glyph-name="tcaron" unicode="&#x165;" horiz-adv-x="358" 
d="M292 107l33 -33q-60 -85 -151 -85q-63 0 -93.5 29t-30.5 77q0 26 20 144l35 198h-72l11 62h71l22 127l87 20h34l-25 -147h105l-11 -62h-104l-44 -252q-10 -58 -10 -79q0 -24 10.5 -34.5t33.5 -10.5q36 0 79 46zM299 527l-22 30q65 47 65 95q0 35 -33 62l26 26
q24 24 50 24q48 0 48 -56q0 -91 -134 -181z" />
    <glyph glyph-name="Tbar" unicode="&#x166;" horiz-adv-x="648" 
d="M428 0h-310l10 58l91 7l45 262h-150l9 57h151l43 252h-9q-82 0 -118 -28t-70 -127h-56l47 219h561l-29 -219h-56q-1 71 -13 103t-38 42t-83 10h-8l-43 -252h150l-9 -57h-151l-44 -262l89 -7z" />
    <glyph glyph-name="tbar" unicode="&#x167;" horiz-adv-x="358" 
d="M292 107l33 -33q-60 -85 -151 -85q-63 0 -93.5 29t-30.5 77q0 26 20 144l7 40h-69l11 62h69l17 96h-72l11 62h71l22 127l87 20h34l-25 -147h105l-11 -62h-104l-17 -96h104l-10 -62h-105l-16 -94q-10 -58 -10 -79q0 -24 10.5 -34.5t33.5 -10.5q36 0 79 46z" />
    <glyph glyph-name="Utilde" unicode="&#x168;" horiz-adv-x="707" 
d="M515 232l69 403l-65 7l10 58h201l-10 -58l-63 -7l-69 -408q-20 -116 -85 -177t-190 -61q-107 0 -164.5 39t-57.5 132q0 37 6 68l70 408l-64 6l10 58h260l-10 -58l-68 -6l-67 -397q-7 -39 -7 -64q0 -54 27.5 -83t93.5 -29q77 0 117.5 41t55.5 128zM598 873l29 -9
q-46 -111 -124 -111q-35 0 -85 23q-37 16 -56 16q-30 0 -56 -44l-29 10q25 57 54.5 83.5t71.5 26.5q9 0 17.5 -1t14 -2t13.5 -4t11.5 -4.5t13 -6t12.5 -5.5q36 -15 56 -15q18 0 30 9t27 34z" />
    <glyph glyph-name="utilde" unicode="&#x169;" horiz-adv-x="593" 
d="M533 88l30 -28q-47 -71 -116 -71q-95 0 -95 85q0 22 8 56l9 36l-5 3q-38 -81 -86 -130.5t-121 -49.5q-110 0 -110 113q0 22 5 50q17 88 59 284l-73 8l9 52l186 7l6 -9q-55 -218 -77 -353q-4 -26 -4 -40q0 -45 41 -45q46 0 92 67t72 154q29 96 45 219q70 -2 127 10
q-44 -195 -69 -333q-12 -62 -12 -84q0 -31 32 -31q22 0 47 30zM487 717l29 -9q-46 -111 -124 -111q-35 0 -85 23q-37 16 -56 16q-30 0 -56 -44l-29 10q25 57 54.5 83.5t71.5 26.5q9 0 17.5 -1t14 -2t13.5 -4t11.5 -4.5t13 -6t12.5 -5.5q36 -15 56 -15q18 0 30 9t27 34z" />
    <glyph glyph-name="Umacron" unicode="&#x16a;" horiz-adv-x="707" 
d="M515 232l69 403l-65 7l10 58h201l-10 -58l-63 -7l-69 -408q-20 -116 -85 -177t-190 -61q-107 0 -164.5 39t-57.5 132q0 37 6 68l70 408l-64 6l10 58h260l-10 -58l-68 -6l-67 -397q-7 -39 -7 -64q0 -54 27.5 -83t93.5 -29q77 0 117.5 41t55.5 128zM577 776h-272l14 76h272
z" />
    <glyph glyph-name="umacron" unicode="&#x16b;" horiz-adv-x="593" 
d="M533 88l30 -28q-47 -71 -116 -71q-95 0 -95 85q0 22 8 56l9 36l-5 3q-38 -81 -86 -130.5t-121 -49.5q-110 0 -110 113q0 22 5 50q17 88 59 284l-73 8l9 52l186 7l6 -9q-55 -218 -77 -353q-4 -26 -4 -40q0 -45 41 -45q46 0 92 67t72 154q29 96 45 219q70 -2 127 10
q-44 -195 -69 -333q-12 -62 -12 -84q0 -31 32 -31q22 0 47 30zM460 609h-272l14 76h272z" />
    <glyph glyph-name="Ubreve" unicode="&#x16c;" horiz-adv-x="707" 
d="M515 232l69 403l-65 7l10 58h201l-10 -58l-63 -7l-69 -408q-20 -116 -85 -177t-190 -61q-107 0 -164.5 39t-57.5 132q0 37 6 68l70 408l-64 6l10 58h260l-10 -58l-68 -6l-67 -397q-7 -39 -7 -64q0 -54 27.5 -83t93.5 -29q77 0 117.5 41t55.5 128zM561 892l41 -6
q-16 -61 -58 -101.5t-113 -40.5q-70 0 -98 41t-23 101l39 8q6 -38 26.5 -55t69.5 -17q47 0 72 17t44 53z" />
    <glyph glyph-name="ubreve" unicode="&#x16d;" horiz-adv-x="593" 
d="M533 88l30 -28q-47 -71 -116 -71q-95 0 -95 85q0 22 8 56l9 36l-5 3q-38 -81 -86 -130.5t-121 -49.5q-110 0 -110 113q0 22 5 50q17 88 59 284l-73 8l9 52l186 7l6 -9q-55 -218 -77 -353q-4 -26 -4 -40q0 -45 41 -45q46 0 92 67t72 154q29 96 45 219q70 -2 127 10
q-44 -195 -69 -333q-12 -62 -12 -84q0 -31 32 -31q22 0 47 30zM457 743l42 -7q-18 -67 -61.5 -113t-114.5 -46q-69 0 -96.5 46t-22.5 112l43 9q8 -45 26.5 -65.5t65.5 -20.5q46 0 72 21t46 64z" />
    <glyph glyph-name="Uring" unicode="&#x16e;" horiz-adv-x="707" 
d="M515 232l69 403l-65 7l10 58h201l-10 -58l-63 -7l-69 -408q-20 -116 -85 -177t-190 -61q-107 0 -164.5 39t-57.5 132q0 37 6 68l70 408l-64 6l10 58h260l-10 -58l-68 -6l-67 -397q-7 -39 -7 -64q0 -54 27.5 -83t93.5 -29q77 0 117.5 41t55.5 128zM445 784q27 0 41 18.5
t14 43.5q0 43 -39 43q-24 0 -40.5 -18.5t-16.5 -45.5q0 -41 41 -41zM559 853q0 -50 -34 -83t-88 -33q-46 0 -69 22t-23 60q0 50 35.5 83t90.5 33q42 0 65 -22.5t23 -59.5z" />
    <glyph glyph-name="uring" unicode="&#x16f;" horiz-adv-x="593" 
d="M533 88l30 -28q-47 -71 -116 -71q-95 0 -95 85q0 22 8 56l9 36l-5 3q-38 -81 -86 -130.5t-121 -49.5q-110 0 -110 113q0 22 5 50q17 88 59 284l-73 8l9 52l186 7l6 -9q-55 -218 -77 -353q-4 -26 -4 -40q0 -45 41 -45q46 0 92 67t72 154q29 96 45 219q70 -2 127 10
q-44 -195 -69 -333q-12 -62 -12 -84q0 -31 32 -31q22 0 47 30zM327 610q27 0 41 18.5t14 43.5q0 43 -39 43q-24 0 -40.5 -18.5t-16.5 -45.5q0 -41 41 -41zM441 679q0 -50 -34 -83t-88 -33q-46 0 -69 22t-23 60q0 50 35.5 83t90.5 33q42 0 65 -22.5t23 -59.5z" />
    <glyph glyph-name="Uhungarumlaut" unicode="&#x170;" horiz-adv-x="707" 
d="M515 232l69 403l-65 7l10 58h201l-10 -58l-63 -7l-69 -408q-20 -116 -85 -177t-190 -61q-107 0 -164.5 39t-57.5 132q0 37 6 68l70 408l-64 6l10 58h260l-10 -58l-68 -6l-67 -397q-7 -39 -7 -64q0 -54 27.5 -83t93.5 -29q77 0 117.5 41t55.5 128zM647 833l-149 -97
l-21 22l125 161l42 -1q20 -1 31 -10t10 -26q-3 -27 -38 -49zM490 842l-142 -108l-24 20l113 169l41 3q22 2 34.5 -8t10.5 -30q-2 -24 -33 -46z" />
    <glyph glyph-name="uhungarumlaut" unicode="&#x171;" horiz-adv-x="593" 
d="M533 88l30 -28q-47 -71 -116 -71q-95 0 -95 85q0 22 8 56l9 36l-5 3q-38 -81 -86 -130.5t-121 -49.5q-110 0 -110 113q0 22 5 50q17 88 59 284l-73 8l9 52l186 7l6 -9q-55 -218 -77 -353q-4 -26 -4 -40q0 -45 41 -45q46 0 92 67t72 154q29 96 45 219q70 -2 127 10
q-44 -195 -69 -333q-12 -62 -12 -84q0 -31 32 -31q22 0 47 30zM390 555l-27 16l95 186l46 10q18 5 33 -3t15 -27q0 -22 -30 -52zM367 684l-131 -129l-26 16l94 184l45 11q19 4 33.5 -4t14.5 -27q0 -23 -30 -51z" />
    <glyph glyph-name="Uogonek" unicode="&#x172;" horiz-adv-x="707" 
d="M406 -136l29 -22q-47 -71 -128 -71q-42 0 -64.5 19t-22.5 52q0 43 33 78t88 70q-9 -1 -28 -1q-107 0 -164.5 39t-57.5 132q0 37 6 68l70 408l-64 6l10 58h260l-10 -58l-68 -6l-67 -397q-7 -32 -7 -64q0 -54 27.5 -83t93.5 -29q77 0 117.5 41t55.5 128l69 403l-65 7l10 58
h201l-10 -58l-63 -7l-69 -408q-14 -82 -52 -134t-106 -88q-46 -25 -79.5 -64t-33.5 -79q0 -31 32 -31q28 0 57 33z" />
    <glyph glyph-name="uogonek" unicode="&#x173;" horiz-adv-x="593" 
d="M484 -136l29 -22q-47 -71 -128 -71q-42 0 -64.5 19t-22.5 52q0 75 123 149q-69 10 -69 83q0 22 8 56l9 36l-5 3q-38 -81 -86 -130.5t-121 -49.5q-110 0 -110 113q0 22 5 50q17 88 59 284l-73 8l9 52l186 7l6 -9q-55 -218 -77 -353q-4 -26 -4 -40q0 -45 41 -45q46 0 92 67
t72 154q29 96 45 219q70 -2 127 10q-44 -195 -69 -333q-12 -62 -12 -84q0 -31 32 -31q22 0 47 30l30 -28q-24 -36 -63 -59q-44 -27 -74.5 -64t-30.5 -75q0 -31 32 -31q28 0 57 33z" />
    <glyph glyph-name="Wcircumflex" unicode="&#x174;" horiz-adv-x="970" 
d="M668 -6h-72l-80 427l-230 -427h-70l-99 640l-56 9l10 57h277l-10 -57l-82 -9l60 -449h4l179 332l-24 117l-57 9l10 57h275l-10 -57l-83 -9l80 -439h4l204 439l-77 9l11 57h200l-9 -57l-57 -9zM727 759l-26 -23l-117 82l-157 -85l-19 30l146 132q22 11 44 11q16 0 26 -7.5
t23 -25.5z" />
    <glyph glyph-name="wcircumflex" unicode="&#x175;" horiz-adv-x="827" 
d="M685 401l-30 -41q-23 7 -40 26.5t-17 45.5q0 34 22.5 56t61.5 22q52 0 79.5 -35.5t27.5 -89.5q0 -43 -12 -94.5t-37.5 -105t-60.5 -97t-86 -71.5t-108 -28q-111 0 -137 81q-71 -81 -161 -81q-56 0 -87.5 29t-31.5 88q0 23 4 44q1 6 48 241q8 46 -18 46q-15 0 -27 -10.5
t-32 -37.5l-38 26q56 95 148 95q41 0 64.5 -21.5t23.5 -63.5q0 -19 -4 -36q-7 -37 -21 -104.5t-22 -112.5q-8 -40 -8 -61q0 -50 45 -50q60 0 110 82q44 181 75 352q61 -2 121 10q-58 -231 -75 -356q-2 -11 -2 -31q0 -32 13.5 -46t47.5 -14q49 0 96.5 51.5t74 119.5t26.5 123
q0 48 -33 49zM620 575l-31 -19l-89 106l-134 -108l-24 23l130 167q18 13 48 13t43 -35z" />
    <glyph glyph-name="Ycircumflex" unicode="&#x176;" horiz-adv-x="594" 
d="M396 0h-290l10 58l82 7l42 250l-121 319l-59 7l10 59h286l-11 -59l-82 -7l84 -245h3l169 245l-69 7l11 59h205l-10 -59l-61 -7l-227 -321l-42 -248l79 -7zM547 759l-26 -23l-117 82l-157 -85l-19 30l146 132q22 11 44 11q16 0 26 -7.5t23 -25.5z" />
    <glyph glyph-name="ycircumflex" unicode="&#x177;" horiz-adv-x="544" 
d="M64 -118l-44 -10q-7 -37 34 -37q44 0 88 36t97 112q-72 288 -100 383q-10 31 -18 42.5t-21 11.5q-15 0 -26.5 -16.5t-25.5 -51.5l-44 21q24 64 54 96t83 32q40 0 65 -23.5t40 -74.5q29 -100 76 -302q47 71 84.5 150t37.5 112q0 35 -28 38l-28 -37q-45 17 -45 69
q0 33 23.5 55t60.5 22q44 0 68.5 -29.5t24.5 -75.5q0 -102 -154 -338q-29 -44 -42 -63t-39.5 -56t-42.5 -54t-42 -41.5t-48 -35.5t-50 -19.5t-57 -8.5q-57 0 -91 25.5t-34 69.5q0 38 24 62t58 24q28 0 47 -15t19 -45q0 -15 -4 -28zM444 575l-31 -19l-89 106l-134 -108
l-24 23l130 167q18 13 48 13t43 -35z" />
    <glyph glyph-name="Ydieresis" unicode="&#x178;" horiz-adv-x="594" 
d="M396 0h-290l10 58l82 7l42 250l-121 319l-59 7l10 59h286l-11 -59l-82 -7l84 -245h3l169 245l-69 7l11 59h205l-10 -59l-61 -7l-227 -321l-42 -248l79 -7zM297 758q-53 0 -53 48q0 10 1 15q5 25 24 42.5t48 17.5q24 0 39 -12t15 -35q0 -33 -20.5 -54.5t-53.5 -21.5z
M498 758q-53 0 -53 48q0 10 1 15q5 25 24 42.5t48 17.5q24 0 39 -12t15 -35q0 -33 -20.5 -54.5t-53.5 -21.5z" />
    <glyph glyph-name="Zacute" unicode="&#x179;" 
d="M496 0h-502l10 62l446 571h-108q-46 0 -72 -4t-53.5 -19t-47 -45.5t-38.5 -83.5h-50l47 219h479l-11 -67l-444 -567h132q88 0 134 41t80 135h50zM461 810l-162 -75l-19 26l152 149l41 -11q34 -8 34 -37q0 -31 -46 -52z" />
    <glyph glyph-name="zacute" unicode="&#x17a;" horiz-adv-x="523" 
d="M434 199l44 -8q-43 -202 -152 -202q-49 0 -103 34l-88 56q-26 -90 -84 -90q-25 0 -38 14.5t-13 35.5q0 31 29 53t73 26l231 254q-122 15 -175 15q-29 0 -43 -14.5t-29 -56.5l-44 9q26 102 61 143.5t89 41.5q40 0 100 -38l83 -53q10 47 35 68.5t52 21.5q21 0 34.5 -13
t13.5 -32q0 -28 -25.5 -52.5t-68.5 -30.5l-234 -257q114 -7 171 -7q30 0 46 15.5t35 66.5zM394 681l-135 -125l-25 17l94 179l47 10q18 4 33 -4t15 -27q0 -23 -29 -50z" />
    <glyph glyph-name="Zdotaccent" unicode="&#x17b;" 
d="M496 0h-502l10 62l446 571h-108q-46 0 -72 -4t-53.5 -19t-47 -45.5t-38.5 -83.5h-50l47 219h479l-11 -67l-444 -567h132q88 0 134 41t80 135h50zM368 751q-65 0 -65 59q0 37 24 61.5t63 24.5q64 0 64 -61q0 -37 -23.5 -60.5t-62.5 -23.5z" />
    <glyph glyph-name="zdotaccent" unicode="&#x17c;" horiz-adv-x="523" 
d="M434 199l44 -8q-43 -202 -152 -202q-49 0 -103 34l-88 56q-26 -90 -84 -90q-25 0 -38 14.5t-13 35.5q0 31 29 53t73 26l231 254q-122 15 -175 15q-29 0 -43 -14.5t-29 -56.5l-44 9q26 102 61 143.5t89 41.5q40 0 100 -38l83 -53q10 47 35 68.5t52 21.5q21 0 34.5 -13
t13.5 -32q0 -28 -25.5 -52.5t-68.5 -30.5l-234 -257q114 -7 171 -7q30 0 46 15.5t35 66.5zM308 589q-65 0 -65 59q0 37 24 61.5t63 24.5q64 0 64 -61q0 -37 -23.5 -60.5t-62.5 -23.5z" />
    <glyph glyph-name="Zcaron" unicode="&#x17d;" 
d="M496 0h-502l10 62l446 571h-108q-46 0 -72 -4t-53.5 -19t-47 -45.5t-38.5 -83.5h-50l47 219h479l-11 -67l-444 -567h132q88 0 134 41t80 135h50zM555 886l-147 -134q-20 -11 -41 -11q-17 0 -27.5 7.5t-22.5 25.5l-79 116l29 27l115 -89l153 88z" />
    <glyph glyph-name="zcaron" unicode="&#x17e;" horiz-adv-x="523" 
d="M434 199l44 -8q-43 -202 -152 -202q-49 0 -103 34l-88 56q-26 -90 -84 -90q-25 0 -38 14.5t-13 35.5q0 31 29 53t73 26l231 254q-122 15 -175 15q-29 0 -43 -14.5t-29 -56.5l-44 9q26 102 61 143.5t89 41.5q40 0 100 -38l83 -53q10 47 35 68.5t52 21.5q21 0 34.5 -13
t13.5 -32q0 -28 -25.5 -52.5t-68.5 -30.5l-234 -257q114 -7 171 -7q30 0 46 15.5t35 66.5zM470 744l-107 -145q-25 -34 -59 -34q-26 0 -42 13l-71 168l30 20l93 -109l133 108z" />
    <glyph glyph-name="longs" unicode="&#x17f;" horiz-adv-x="355" 
d="M23 -41l107 573q21 113 81 176.5t157 63.5q61 0 94 -28.5t33 -72.5q0 -36 -21.5 -59t-58.5 -23q-28 0 -43.5 15.5t-15.5 39.5q0 14 6 30l35 4q6 12 6 22q0 25 -41 25q-45 0 -68.5 -34t-34.5 -94l-107 -571q-22 -117 -76.5 -177.5t-151.5 -60.5q-62 0 -95.5 27t-33.5 68
q0 36 22 59.5t60 23.5q28 0 43.5 -15t15.5 -40q0 -17 -5 -31l-39 -6q-4 -8 -4 -16q0 -24 38 -24q48 0 67 31.5t30 93.5z" />
    <glyph glyph-name="florin" unicode="&#x192;" horiz-adv-x="506" 
d="M110 -34l68 376h-80l10 53h79l15 87q18 106 75 168t155 62q60 0 94.5 -29t34.5 -77q0 -34 -18.5 -56t-54.5 -22q-30 0 -45.5 16t-15.5 43q0 9 4 27l33 2q5 15 5 22q0 30 -42 30q-46 0 -65.5 -34t-30.5 -100l-24 -139h131l-10 -53h-130l-60 -324q-42 -229 -226 -229
q-63 0 -98 29t-35 75q0 35 19.5 58.5t54.5 23.5q30 0 45.5 -16t15.5 -42q0 -9 -4 -27l-36 -3q-5 -10 -5 -22q0 -32 45 -32q46 0 65 33t31 100z" />
    <glyph glyph-name="Aringacute" unicode="&#x1fa;" horiz-adv-x="669" 
d="M529 812q0 -40 -23.5 -70t-61.5 -41l112 -636l66 -8l-9 -57h-283l9 57l76 8l-21 142h-217l-72 -142l70 -8l-9 -57h-211l9 57l65 8l341 636q-55 14 -55 77q0 50 35.5 83t90.5 33q42 0 65 -22.5t23 -59.5zM387 273l-39 252h-3l-137 -252h179zM515 987l-162 -75l-19 26
l152 149l41 -11q34 -8 34 -37q0 -31 -46 -52zM415 743q27 0 41 18.5t14 43.5q0 43 -39 43q-24 0 -40.5 -18.5t-16.5 -45.5q0 -41 41 -41z" />
    <glyph glyph-name="aringacute" unicode="&#x1fb;" horiz-adv-x="573" 
d="M518 88l30 -28q-19 -30 -49.5 -50.5t-66.5 -20.5q-46 0 -69 23t-23 64q0 22 8 52l-5 1q-25 -60 -71 -100t-111 -40q-71 0 -108.5 46t-37.5 132q0 79 27.5 155.5t87.5 132t138 55.5q89 0 120 -81l19 69q60 -2 113 6q-57 -260 -77 -389q-9 -57 28 -57q22 0 47 30zM206 59
q45 0 83 53.5t56 119.5t18 119q0 103 -77 103q-38 0 -68 -29t-46 -74.5t-24.5 -93.5t-8.5 -94q0 -53 15 -78.5t52 -25.5zM325 610q27 0 41 18.5t14 43.5q0 43 -39 43q-24 0 -40.5 -18.5t-16.5 -45.5q0 -41 41 -41zM439 679q0 -50 -34 -83t-88 -33q-46 0 -69 22t-23 60
q0 50 35.5 83t90.5 33q42 0 65 -22.5t23 -59.5zM435 850l-162 -75l-19 26l152 149l41 -11q34 -8 34 -37q0 -31 -46 -52z" />
    <glyph glyph-name="AEacute" unicode="&#x1fc;" horiz-adv-x="1024" 
d="M570 636h-44l-175 -263h173zM372 643l10 57h627l-28 -204h-53q-3 88 -34.5 115t-125.5 27h-69l-47 -265h38q54 0 81 24t50 90h43l-53 -296h-45q2 77 -15 99.5t-78 22.5h-31l-43 -249h69q76 0 120 16.5t70 51.5t50 105h54l-49 -237h-526l10 57l73 8l43 245h-203l-159 -245
l73 -8l-10 -57h-229l10 57l66 8l383 571zM809 810l-162 -75l-19 26l152 149l41 -11q34 -8 34 -37q0 -31 -46 -52z" />
    <glyph glyph-name="aeacute" unicode="&#x1fd;" horiz-adv-x="796" 
d="M521 -11q-75 0 -117 38.5t-51 106.5q-26 -59 -76.5 -102t-115.5 -43q-71 0 -108.5 46t-37.5 132q0 79 27.5 155.5t87.5 132t138 55.5q89 0 120 -81l19 69q44 0 91 7l-10 -41q57 46 131 46q67 0 104.5 -31t37.5 -89q0 -130 -184 -169q-61 -12 -117 -14v-20q0 -66 22.5 -97
t72.5 -31q87 0 139 121l53 -19q-26 -81 -85.5 -126.5t-140.5 -45.5zM206 59q45 0 83 53.5t56 119.5t18 119q0 103 -77 103q-38 0 -68 -29t-46 -74.5t-24.5 -93.5t-8.5 -94q0 -53 15 -78.5t52 -25.5zM467 261q33 2 62 9t57.5 21t45.5 41t17 63q0 63 -48 63q-45 0 -83 -53.5
t-51 -143.5zM548 681l-135 -125l-25 17l94 179l47 10q18 4 33 -4t15 -27q0 -23 -29 -50z" />
    <glyph glyph-name="Oslashacute" unicode="&#x1fe;" horiz-adv-x="690" 
d="M525 813l-162 -75l-19 26l152 149l41 -11q34 -8 34 -37q0 -31 -46 -52zM287 -11q-48 0 -84 10l-45 -90l-54 24l44 86q-113 60 -113 233q0 68 15 133t46.5 124.5t76 104t108 71t138.5 26.5q41 0 77 -9l43 85l53 -24l-42 -82q115 -61 115 -242q0 -78 -23 -155t-67.5 -144.5
t-119.5 -109t-168 -41.5zM296 51q52 0 94.5 29.5t68 75t42.5 104t23.5 111.5t6.5 103q0 80 -24 122l-270 -532q23 -13 59 -13zM169 246q0 -90 25 -136l269 528q-24 12 -59 12q-62 0 -109.5 -39.5t-73.5 -102.5t-39 -130t-13 -132z" />
    <glyph glyph-name="oslashacute" unicode="&#x1ff;" horiz-adv-x="532" 
d="M395 681l-135 -125l-25 17l94 179l47 10q18 4 33 -4t15 -27q0 -23 -29 -50zM203 -11q-28 0 -56 5l-43 -84l-51 26l39 77q-80 45 -80 168q0 62 19 120t54 105t90.5 75.5t122.5 28.5q27 0 46 -4l41 79l50 -24l-36 -71q89 -44 89 -172q0 -81 -31.5 -154.5t-98.5 -124
t-155 -50.5zM212 43q44 0 76 33t47.5 84t22.5 97.5t7 88.5q0 34 -9 60l-181 -356q14 -7 37 -7zM134 155q0 -32 5 -51l177 347q-13 6 -32 6q-40 0 -70.5 -30t-47 -77.5t-24.5 -97t-8 -97.5z" />
    <glyph glyph-name="Scommaaccent" unicode="&#x218;" horiz-adv-x="559" 
d="M55 -7h-49l30 228h57q13 -168 166 -168q62 0 103 29t41 86q0 22 -9 40t-19 29.5t-34 24.5t-36.5 18.5t-44.5 18.5q-37 15 -60 27.5t-49.5 34.5t-39.5 55t-13 77q0 94 66 156t170 62q47 0 93.5 -20t50.5 -20q10 0 16.5 7t14.5 24h47l-29 -207h-58q-8 80 -39 117t-96 37
q-53 0 -90.5 -26.5t-37.5 -78.5q0 -26 10 -46t33.5 -36t40 -24t52.5 -23q38 -16 60.5 -28t50 -34.5t40.5 -54.5t13 -75q0 -104 -72 -169t-174 -65q-45 0 -81 11t-58 22.5t-32 11.5t-17 -8.5t-17 -32.5zM177 -290l-17 26q74 48 74 89q0 18 -16 23l-29 -27q-31 15 -31 49
q0 27 19.5 44.5t48.5 17.5q32 0 48.5 -20t16.5 -48q0 -83 -114 -154z" />
    <glyph glyph-name="scommaaccent" unicode="&#x219;" horiz-adv-x="453" 
d="M120 92h-31q-10 -26 10.5 -40t69.5 -14q51 0 81 20.5t30 62.5q0 18 -7.5 31.5t-25.5 24.5t-30.5 16.5t-40.5 16.5q-52 20 -82 49t-30 86q0 75 61.5 120t147.5 45q69 0 109.5 -27t40.5 -77q0 -35 -18.5 -56.5t-53.5 -21.5q-23 0 -39 11.5t-16 31.5q0 27 15 46h30
q9 22 -9 33.5t-56 11.5q-45 0 -79 -20t-34 -59q0 -20 15 -35.5t30.5 -23.5t47.5 -21t49 -21.5t40.5 -26t34 -41t10.5 -55.5q0 -78 -63 -124t-159 -46q-81 0 -122 32t-41 82q0 37 20 59.5t54 22.5q25 0 40.5 -13.5t15.5 -35.5q0 -25 -15 -44zM125 -280l-17 26q74 48 74 89
q0 18 -16 23l-29 -27q-31 15 -31 49q0 27 19.5 44.5t48.5 17.5q32 0 48.5 -20t16.5 -48q0 -83 -114 -154z" />
    <glyph glyph-name="uni021A" unicode="&#x21a;" horiz-adv-x="648" 
d="M428 0h-310l10 58l91 7l98 571h-9q-82 0 -118 -28t-70 -127h-56l47 219h561l-29 -219h-56q-1 71 -13 103t-38 42t-83 10h-8l-97 -571l89 -7zM207 -290l-17 26q74 48 74 89q0 18 -16 23l-29 -27q-31 15 -31 49q0 27 19.5 44.5t48.5 17.5q32 0 48.5 -20t16.5 -48
q0 -83 -114 -154z" />
    <glyph glyph-name="uni021B" unicode="&#x21b;" horiz-adv-x="358" 
d="M292 107l33 -33q-60 -85 -151 -85q-63 0 -93.5 29t-30.5 77q0 26 20 144l35 198h-72l11 62h71l22 127l87 20h34l-25 -147h105l-11 -62h-104l-44 -252q-10 -58 -10 -79q0 -24 10.5 -34.5t33.5 -10.5q36 0 79 46zM97 -280l-17 26q74 48 74 89q0 18 -16 23l-29 -27
q-31 15 -31 49q0 27 19.5 44.5t48.5 17.5q32 0 48.5 -20t16.5 -48q0 -83 -114 -154z" />
    <glyph glyph-name="dotlessj" unicode="&#x237;" horiz-adv-x="282" 
d="M-65 -120l-42 -6q-3 -9 -3 -16q0 -24 40 -24q43 0 62.5 37t34.5 124l77 439l-76 6l9 53l189 9l4 -10l-77 -442q-21 -121 -74 -191t-154 -70q-59 0 -92 24.5t-33 66.5q0 37 21.5 60.5t59.5 23.5q26 0 42 -15t16 -41q0 -15 -4 -28z" />
    <glyph glyph-name="apostrophe" unicode="&#x2bc;" horiz-adv-x="211" 
d="M56 497l-17 26q74 48 74 89q0 18 -16 23l-29 -27q-31 16 -31 49q0 27 19.5 44.5t48.5 17.5q32 0 48.5 -20t16.5 -48q0 -83 -114 -154z" />
    <glyph glyph-name="circumflex" unicode="&#x2c6;" horiz-adv-x="500" 
d="M485 575l-31 -19l-89 106l-134 -108l-24 23l130 167q18 13 48 13t43 -35z" />
    <glyph glyph-name="caron" unicode="&#x2c7;" horiz-adv-x="500" 
d="M513 744l-107 -145q-25 -34 -59 -34q-26 0 -42 13l-71 168l30 20l93 -109l133 108z" />
    <glyph glyph-name="uni02C9" unicode="&#x2c9;" horiz-adv-x="500" 
d="M488 611h-272l13 73h272z" />
    <glyph glyph-name="breve" unicode="&#x2d8;" horiz-adv-x="500" 
d="M478 743l42 -7q-18 -67 -61.5 -113t-114.5 -46q-69 0 -96.5 46t-22.5 112l43 9q8 -45 26.5 -65.5t65.5 -20.5q46 0 72 21t46 64z" />
    <glyph glyph-name="dotaccent" unicode="&#x2d9;" horiz-adv-x="500" 
d="M350 589q-65 0 -65 59q0 37 24 61.5t63 24.5q64 0 64 -61q0 -37 -23.5 -60.5t-62.5 -23.5z" />
    <glyph glyph-name="ring" unicode="&#x2da;" horiz-adv-x="500" 
d="M353 610q27 0 41 18.5t14 43.5q0 43 -39 43q-24 0 -40.5 -18.5t-16.5 -45.5q0 -41 41 -41zM467 679q0 -50 -34 -83t-88 -33q-46 0 -69 22t-23 60q0 50 35.5 83t90.5 33q42 0 65 -22.5t23 -59.5z" />
    <glyph glyph-name="ogonek" unicode="&#x2db;" horiz-adv-x="500" 
d="M294 -136l29 -22q-47 -71 -128 -71q-42 0 -64.5 19t-22.5 52q0 28 14 53.5t44 49t48.5 36t55.5 33.5l38 -3l6 -6q-50 -37 -79.5 -71t-29.5 -72q0 -31 32 -31q28 0 57 33z" />
    <glyph glyph-name="tilde" unicode="&#x2dc;" horiz-adv-x="500" 
d="M505 717l29 -9q-46 -111 -124 -111q-35 0 -85 23q-37 16 -56 16q-30 0 -56 -44l-29 10q25 57 54.5 83.5t71.5 26.5q9 0 17.5 -1t14 -2t13.5 -4t11.5 -4.5t13 -6t12.5 -5.5q36 -15 56 -15q18 0 30 9t27 34z" />
    <glyph glyph-name="hungarumlaut" unicode="&#x2dd;" horiz-adv-x="500" 
d="M374 555l-27 16l95 186l46 10q18 5 33 -3t15 -27q0 -22 -30 -52zM351 684l-131 -129l-26 16l94 184l45 11q19 4 33.5 -4t14.5 -27q0 -23 -30 -51z" />
    <glyph glyph-name="uni0394" unicode="&#x394;" horiz-adv-x="618" 
d="M558 0h-592l382 716h71zM401 89l-74 452h-3l-236 -452h313z" />
    <glyph glyph-name="uni03A9" unicode="&#x3a9;" horiz-adv-x="842" 
d="M724 0h-310l13 80q84 80 132.5 177.5t48.5 234.5q0 159 -128 159q-61 0 -106.5 -34.5t-69.5 -90t-35 -113.5t-11 -118q0 -69 16 -115.5t48 -98.5l-13 -81h-300l25 229h48q3 -82 35 -109t122 -27h22l1 3q-140 85 -140 242q0 161 108.5 267t261.5 106q121 0 188 -65.5
t67 -178.5q0 -59 -19 -114.5t-47 -95.5t-63.5 -74t-65.5 -54t-57 -33v-3h28q89 0 131 27t70 109h48z" />
    <glyph glyph-name="uni03BC" unicode="&#x3bc;" horiz-adv-x="577" 
d="M500 56l6 -44q-40 -22 -88 -22q-91 0 -70 102l-5 3q-51 -106 -145 -106q-16 0 -30.5 4t-32 13.5t-30 31t-17.5 52.5l-7 -2q8 -71 20.5 -149.5t13.5 -103.5q1 -30 -23 -43.5t-54 -6.5l-45 10l113 697l117 9l-54 -336q-8 -53 4 -75.5t52 -22.5q44 0 79 32.5t44 91.5l50 301
l116 9l-64 -399q-5 -24 -1 -38t19 -14q14 0 32 6z" />
    <glyph glyph-name="pi" unicode="&#x3c0;" horiz-adv-x="594" 
d="M484 142l35 -8q-45 -145 -139 -145q-76 0 -76 87q0 39 13.5 98.5t26 99t38.5 118.5q-7 1 -76 5.5t-76 4.5q-43 -244 -70 -326q-16 -47 -40 -67t-47 -20q-21 0 -34.5 11t-13.5 31q0 17 8 31.5t25 33.5t23 27q39 53 64.5 117t47.5 164q-28 2 -32 2q-21 0 -34 -9t-30 -35
l-31 9q29 75 59 109t72 34q24 0 147 -7t148 -7q17 0 28 9t25 34l32 -9q-30 -77 -59 -110.5t-69 -33.5h-27q-26 -95 -39 -170q-6 -32 -6 -63q0 -75 43 -75q38 0 64 60z" />
    <glyph glyph-name="Wgrave" unicode="&#x1e80;" horiz-adv-x="970" 
d="M668 -6h-72l-80 427l-230 -427h-70l-99 640l-56 9l10 57h277l-10 -57l-82 -9l60 -449h4l179 332l-24 117l-57 9l10 57h275l-10 -57l-83 -9l80 -439h4l204 439l-77 9l11 57h200l-9 -57l-57 -9zM637 734l-150 79q-20 11 -28 20t-8 25q0 17 13 28.5t33 15.5l34 6l129 -151z
" />
    <glyph glyph-name="wgrave" unicode="&#x1e81;" horiz-adv-x="827" 
d="M685 401l-30 -41q-23 7 -40 26.5t-17 45.5q0 34 22.5 56t61.5 22q52 0 79.5 -35.5t27.5 -89.5q0 -43 -12 -94.5t-37.5 -105t-60.5 -97t-86 -71.5t-108 -28q-111 0 -137 81q-71 -81 -161 -81q-56 0 -87.5 29t-31.5 88q0 23 4 44q1 6 48 241q8 46 -18 46q-15 0 -27 -10.5
t-32 -37.5l-38 26q56 95 148 95q41 0 64.5 -21.5t23.5 -63.5q0 -19 -4 -36q-7 -37 -21 -104.5t-22 -112.5q-8 -40 -8 -61q0 -50 45 -50q60 0 110 82q44 181 75 352q61 -2 121 10q-58 -231 -75 -356q-2 -11 -2 -31q0 -32 13.5 -46t47.5 -14q49 0 96.5 51.5t74 119.5t26.5 123
q0 48 -33 49zM551 570l-29 -12l-94 132q-17 23 -17 42q0 22 23 33t44 2l36 -16z" />
    <glyph glyph-name="Wacute" unicode="&#x1e82;" horiz-adv-x="970" 
d="M668 -6h-72l-80 427l-230 -427h-70l-99 640l-56 9l10 57h277l-10 -57l-82 -9l60 -449h4l179 332l-24 117l-57 9l10 57h275l-10 -57l-83 -9l80 -439h4l204 439l-77 9l11 57h200l-9 -57l-57 -9zM659 810l-162 -75l-19 26l152 149l41 -11q34 -8 34 -37q0 -31 -46 -52z" />
    <glyph glyph-name="wacute" unicode="&#x1e83;" horiz-adv-x="827" 
d="M685 401l-30 -41q-23 7 -40 26.5t-17 45.5q0 34 22.5 56t61.5 22q52 0 79.5 -35.5t27.5 -89.5q0 -43 -12 -94.5t-37.5 -105t-60.5 -97t-86 -71.5t-108 -28q-111 0 -137 81q-71 -81 -161 -81q-56 0 -87.5 29t-31.5 88q0 23 4 44q1 6 48 241q8 46 -18 46q-15 0 -27 -10.5
t-32 -37.5l-38 26q56 95 148 95q41 0 64.5 -21.5t23.5 -63.5q0 -19 -4 -36q-7 -37 -21 -104.5t-22 -112.5q-8 -40 -8 -61q0 -50 45 -50q60 0 110 82q44 181 75 352q61 -2 121 10q-58 -231 -75 -356q-2 -11 -2 -31q0 -32 13.5 -46t47.5 -14q49 0 96.5 51.5t74 119.5t26.5 123
q0 48 -33 49zM572 681l-135 -125l-25 17l94 179l47 10q18 4 33 -4t15 -27q0 -23 -29 -50z" />
    <glyph glyph-name="Wdieresis" unicode="&#x1e84;" horiz-adv-x="970" 
d="M668 -6h-72l-80 427l-230 -427h-70l-99 640l-56 9l10 57h277l-10 -57l-82 -9l60 -449h4l179 332l-24 117l-57 9l10 57h275l-10 -57l-83 -9l80 -439h4l204 439l-77 9l11 57h200l-9 -57l-57 -9zM466 758q-53 0 -53 48q0 10 1 15q5 25 24 42.5t48 17.5q24 0 39 -12t15 -35
q0 -33 -20.5 -54.5t-53.5 -21.5zM667 758q-53 0 -53 48q0 10 1 15q5 25 24 42.5t48 17.5q24 0 39 -12t15 -35q0 -33 -20.5 -54.5t-53.5 -21.5z" />
    <glyph glyph-name="wdieresis" unicode="&#x1e85;" horiz-adv-x="827" 
d="M685 401l-30 -41q-23 7 -40 26.5t-17 45.5q0 34 22.5 56t61.5 22q52 0 79.5 -35.5t27.5 -89.5q0 -43 -12 -94.5t-37.5 -105t-60.5 -97t-86 -71.5t-108 -28q-111 0 -137 81q-71 -81 -161 -81q-56 0 -87.5 29t-31.5 88q0 23 4 44q1 6 48 241q8 46 -18 46q-15 0 -27 -10.5
t-32 -37.5l-38 26q56 95 148 95q41 0 64.5 -21.5t23.5 -63.5q0 -19 -4 -36q-7 -37 -21 -104.5t-22 -112.5q-8 -40 -8 -61q0 -50 45 -50q60 0 110 82q44 181 75 352q61 -2 121 10q-58 -231 -75 -356q-2 -11 -2 -31q0 -32 13.5 -46t47.5 -14q49 0 96.5 51.5t74 119.5t26.5 123
q0 48 -33 49zM391 590q-53 0 -53 51q0 29 19 51t51 22q54 0 54 -50q0 -32 -19 -53t-52 -21zM592 590q-53 0 -53 51q0 29 19 51t51 22q54 0 54 -50q0 -32 -19 -53t-52 -21z" />
    <glyph glyph-name="Ygrave" unicode="&#x1ef2;" horiz-adv-x="594" 
d="M396 0h-290l10 58l82 7l42 250l-121 319l-59 7l10 59h286l-11 -59l-82 -7l84 -245h3l169 245l-69 7l11 59h205l-10 -59l-61 -7l-227 -321l-42 -248l79 -7zM443 734l-150 79q-20 11 -28 20t-8 25q0 17 13 28.5t33 15.5l34 6l129 -151z" />
    <glyph glyph-name="ygrave" unicode="&#x1ef3;" horiz-adv-x="544" 
d="M64 -118l-44 -10q-7 -37 34 -37q44 0 88 36t97 112q-72 288 -100 383q-10 31 -18 42.5t-21 11.5q-15 0 -26.5 -16.5t-25.5 -51.5l-44 21q24 64 54 96t83 32q40 0 65 -23.5t40 -74.5q29 -100 76 -302q47 71 84.5 150t37.5 112q0 35 -28 38l-28 -37q-45 17 -45 69
q0 33 23.5 55t60.5 22q44 0 68.5 -29.5t24.5 -75.5q0 -102 -154 -338q-29 -44 -42 -63t-39.5 -56t-42.5 -54t-42 -41.5t-48 -35.5t-50 -19.5t-57 -8.5q-57 0 -91 25.5t-34 69.5q0 38 24 62t58 24q28 0 47 -15t19 -45q0 -15 -4 -28zM356 570l-29 -12l-94 132q-17 23 -17 42
q0 22 23 33t44 2l36 -16z" />
    <glyph glyph-name="thinspace" unicode="&#x2009;" horiz-adv-x="50" 
 />
    <glyph glyph-name="endash" unicode="&#x2013;" horiz-adv-x="500" 
d="M465 240h-460l9 59h460z" />
    <glyph glyph-name="emdash" unicode="&#x2014;" horiz-adv-x="1000" 
d="M966 240h-960l9 59h960z" />
    <glyph glyph-name="quoteleft" unicode="&#x2018;" horiz-adv-x="229" 
d="M177 592l36 29q34 -19 34 -56q0 -31 -23 -51t-58 -20q-33 0 -51 22t-18 53q0 100 152 187l18 -33q-101 -57 -101 -107q0 -16 11 -24z" />
    <glyph glyph-name="quoteright" unicode="&#x2019;" horiz-adv-x="229" 
d="M89 451l-18 33q101 57 101 107q0 16 -11 24l-36 -29q-34 19 -34 56q0 31 23 51t58 20q33 0 51 -22t18 -53q0 -100 -152 -187z" />
    <glyph glyph-name="quotesinglbase" unicode="&#x201a;" horiz-adv-x="233" 
d="M-7 -148l-17 33q100 56 100 107q0 16 -11 24l-36 -29q-34 19 -34 56q0 31 23 51t58 20q33 0 51 -22t18 -53q0 -101 -152 -187z" />
    <glyph glyph-name="quotedblleft" unicode="&#x201c;" horiz-adv-x="408" 
d="M177 592l36 29q34 -19 34 -56q0 -31 -23 -51t-58 -20q-33 0 -51 22t-18 53q0 100 152 187l18 -33q-101 -57 -101 -107q0 -16 11 -24zM356 592l36 29q34 -19 34 -56q0 -31 -23 -51t-58 -20q-33 0 -51 22t-18 53q0 100 152 187l18 -33q-101 -57 -101 -107q0 -16 11 -24z
" />
    <glyph glyph-name="quotedblright" unicode="&#x201d;" horiz-adv-x="406" 
d="M89 451l-18 33q101 57 101 107q0 16 -11 24l-36 -29q-34 19 -34 56q0 31 23 51t58 20q33 0 51 -22t18 -53q0 -100 -152 -187zM265 451l-17 33q101 57 101 107q0 16 -11 24l-36 -29q-34 19 -34 56q0 31 22.5 51t57.5 20q33 0 51.5 -22t18.5 -53q0 -101 -153 -187z" />
    <glyph glyph-name="quotedblbase" unicode="&#x201e;" horiz-adv-x="409" 
d="M-7 -148l-17 33q100 56 100 107q0 16 -11 24l-36 -29q-34 19 -34 56q0 31 23 51t58 20q33 0 51 -22t18 -53q0 -101 -152 -187zM169 -148l-17 33q100 56 100 107q0 16 -11 24l-36 -29q-34 19 -34 56q0 31 23 51t58 20q33 0 51 -22t18 -53q0 -101 -152 -187z" />
    <glyph glyph-name="dagger" unicode="&#x2020;" horiz-adv-x="509" 
d="M205 -120h-42l41 261q8 62 8 94q0 42 -21 112l1 6q22 23 45 60.5t33 67.5q-26 -2 -71.5 -19.5t-66.5 -17.5t-35 13t-14 35q0 27 17.5 41t42.5 14q23 0 64 -20t69 -21q1 7 1 20q0 24 -8.5 61.5t-8.5 53.5q0 30 18.5 51t50.5 21q48 0 48 -50q0 -34 -31.5 -81.5t-38.5 -75.5
q28 2 74.5 21.5t68.5 19.5q45 0 45 -47q0 -25 -18 -40.5t-43 -15.5q-21 0 -62.5 17.5t-67.5 19.5q-1 -30 9 -67.5t25 -61.5l-1 -6q-21 -31 -31 -47.5t-25.5 -59t-26.5 -98.5z" />
    <glyph glyph-name="daggerdbl" unicode="&#x2021;" horiz-adv-x="528" 
d="M324 214l-1 -6q-56 -53 -74 -100q26 2 72.5 19.5t67.5 17.5t34.5 -12.5t13.5 -35.5q0 -27 -17.5 -41t-44.5 -14q-22 0 -63 20t-69 21q-1 -7 -1 -21q0 -23 9 -59.5t9 -52.5q0 -31 -18.5 -52.5t-50.5 -21.5q-48 0 -48 49q0 33 31.5 81.5t38.5 76.5q-28 -2 -74 -21.5
t-67 -19.5q-22 0 -35.5 11.5t-13.5 33.5q0 28 18.5 43t44.5 15q21 0 62.5 -17.5t67.5 -19.5q-2 43 -40 99l1 6q43 38 70 83q-10 37 -40 83l1 6q55 48 72 96q-25 -1 -71.5 -19t-68.5 -18q-20 0 -34 13t-14 34q0 28 18 42t44 14q23 0 63.5 -20t68.5 -21q1 8 1 21q0 23 -9 60.5
t-9 53.5q0 31 18.5 51.5t51.5 20.5q48 0 48 -51q0 -32 -31.5 -79.5t-38.5 -76.5q27 2 72.5 21.5t69.5 19.5q19 0 32.5 -11.5t13.5 -33.5q0 -28 -18 -43t-44 -15q-21 0 -62.5 17.5t-67.5 19.5q2 -41 41 -96l-1 -6q-43 -43 -69 -84q17 -49 40 -81z" />
    <glyph glyph-name="bullet" unicode="&#x2022;" horiz-adv-x="395" 
d="M170 156q-55 0 -80 28.5t-25 72.5q0 65 42 107t105 42q48 0 76.5 -25t28.5 -74q0 -65 -41.5 -108t-105.5 -43z" />
    <glyph glyph-name="ellipsis" unicode="&#x2026;" horiz-adv-x="773" 
d="M74 -10q-36 0 -52.5 19t-16.5 47q0 42 28 68.5t67 26.5q32 0 51 -16.5t19 -47.5q0 -42 -28.5 -69.5t-67.5 -27.5zM333 -10q-36 0 -52 19t-16 47q0 42 27.5 68.5t67.5 26.5q32 0 50.5 -16.5t18.5 -47.5q0 -42 -28.5 -69.5t-67.5 -27.5zM594 -10q-36 0 -52 19t-16 47
q0 42 27.5 68.5t67.5 26.5q32 0 50.5 -16.5t18.5 -47.5q0 -42 -28.5 -69.5t-67.5 -27.5z" />
    <glyph glyph-name="perthousand" unicode="&#x2030;" horiz-adv-x="1084" 
d="M839 -11q-62 0 -94 32t-32 86q0 72 50 120.5t127 48.5q58 0 92 -27.5t34 -86.5q0 -81 -53.5 -127t-123.5 -46zM848 36q37 0 60 36t23 92q0 65 -48 65q-29 0 -49.5 -22t-28.5 -49t-8 -54q0 -68 51 -68zM500 -11q-61 0 -93 32t-32 86q0 72 50 120.5t127 48.5q57 0 91 -28
t34 -86q0 -81 -53.5 -127t-123.5 -46zM510 36q37 0 60 36t23 92q0 65 -49 65q-42 0 -63.5 -40.5t-21.5 -84.5q0 -68 51 -68zM180 263q-62 0 -94 32t-32 86q0 72 50 120.5t127 48.5q58 0 92 -27.5t34 -86.5q0 -81 -53.5 -127t-123.5 -46zM189 310q37 0 60 36t23 92
q0 65 -48 65q-29 0 -49.5 -22t-28.5 -49t-8 -54q0 -68 51 -68zM183 0h-64l423 537h63z" />
    <glyph glyph-name="guilsinglleft" unicode="&#x2039;" horiz-adv-x="314" 
d="M222 73l-35 -28l-132 132q-23 23 -23 46q0 20 21 41l197 142l27 -35l-141 -149z" />
    <glyph glyph-name="guilsinglright" unicode="&#x203a;" horiz-adv-x="315" 
d="M242 187l-197 -142l-26 35l140 149l-85 149l34 28l132 -132q23 -23 23 -46q0 -20 -21 -41z" />
    <glyph glyph-name="fraction" unicode="&#x2044;" horiz-adv-x="200" 
d="M-137 -4h-65l546 708h63z" />
    <glyph glyph-name="zerosuperior" unicode="&#x2070;" horiz-adv-x="386" 
d="M201 394q-136 0 -136 150q0 48 12 94.5t36 88t66.5 67t96.5 25.5q137 0 137 -152q0 -45 -12 -90.5t-35.5 -87.5t-66.5 -68.5t-98 -26.5zM209 436q48 0 77 81.5t29 177.5q0 46 -11 64.5t-35 18.5q-46 0 -76.5 -86.5t-30.5 -179.5q0 -42 11 -59t36 -17z" />
    <glyph glyph-name="foursuperior" unicode="&#x2074;" horiz-adv-x="363" 
d="M122 400l9 49l70 5l11 60h-172l10 58l216 241h93l-42 -241h30l11 37h38l-22 -129h-37l2 34h-33l-11 -60l47 -5l-8 -49h-212zM99 572h123l30 167h-3z" />
    <glyph glyph-name="fivesuperior" unicode="&#x2075;" horiz-adv-x="329" 
d="M129 465h-24q-8 -10 -8 -18q0 -21 39 -21q48 0 73.5 40t25.5 94t-47 54q-32 0 -76 -27l-24 10l59 212l14 9q58 -20 110 -20q67 0 82 44l25 -3q-5 -58 -39.5 -88t-90.5 -30q-40 0 -80 9l-31 -95q45 26 98 26t79.5 -25t26.5 -68q0 -80 -59 -127t-148 -47q-49 0 -75 20.5
t-26 50.5q0 27 16 46t46 19q41 0 41 -35q0 -16 -7 -30z" />
    <glyph glyph-name="sixsuperior" unicode="&#x2076;" horiz-adv-x="352" 
d="M199 433q37 0 56.5 38.5t19.5 93.5q0 47 -39 47q-40 0 -60 -38.5t-20 -84.5q0 -56 43 -56zM302 754h22q3 9 3 13q0 17 -31 17q-42 0 -74.5 -44.5t-49.5 -125.5q15 18 42.5 31t58.5 13q45 0 72 -23t27 -72q0 -78 -51.5 -123.5t-127.5 -45.5q-127 0 -127 139q0 47 14 96
t40.5 92t71.5 70.5t101 27.5q44 0 70.5 -18t26.5 -52q0 -26 -14.5 -42.5t-39.5 -16.5q-42 0 -42 34q0 17 8 30z" />
    <glyph glyph-name="sevensuperior" unicode="&#x2077;" horiz-adv-x="321" 
d="M94 452q0 18 8.5 36t18.5 29.5t31 33.5q16 17 63 65t79 82l31 33h-125q-43 0 -57 -10t-30 -50h-37l32 142h288l-7 -45q-127 -169 -169 -242q-29 -50 -29 -84q0 -14 5 -29l-24 -20q-41 -2 -59.5 16t-18.5 43z" />
    <glyph glyph-name="eightsuperior" unicode="&#x2078;" horiz-adv-x="354" 
d="M190 618q-43 4 -66 27t-23 57q0 53 44 85t119 32q62 0 95 -23.5t33 -67.5t-34 -75t-89 -36v-2q50 -4 76 -27.5t26 -62.5q0 -61 -50.5 -96t-129.5 -35q-68 0 -104 26.5t-36 75.5q0 50 38 83t101 37v2zM226 598q-32 0 -53.5 -30.5t-21.5 -74.5q0 -63 47 -63q32 0 52.5 30.5
t20.5 73.5q0 64 -45 64zM258 783q-30 0 -46.5 -29t-16.5 -65q0 -53 38 -53q27 0 45 27t18 66q0 54 -38 54z" />
    <glyph glyph-name="ninesuperior" unicode="&#x2079;" horiz-adv-x="355" 
d="M148 461h-27q-4 -7 -4 -14q0 -18 32 -18q45 0 78.5 43t48.5 128q-34 -45 -98 -45q-43 0 -73 25t-30 77q0 78 49 120t125 42q132 0 132 -149q0 -44 -12.5 -89.5t-37.5 -88.5t-71.5 -70.5t-106.5 -27.5q-51 0 -75 19.5t-24 51.5q0 26 15.5 41.5t42.5 15.5q19 0 30 -10.5
t11 -27.5q0 -10 -5 -23zM246 780q-37 0 -56.5 -39t-19.5 -88q0 -54 40 -54q41 0 61 36.5t20 84.5q0 60 -45 60z" />
    <glyph glyph-name="plussuperior" unicode="&#x207a;" horiz-adv-x="359" 
d="M368 584h-123l-21 -119h-49l21 119h-114l7 42h115l20 112h49l-20 -112h122z" />
    <glyph glyph-name="minussuperior" unicode="&#x207b;" horiz-adv-x="349" 
d="M357 584h-279l6 42h280z" />
    <glyph glyph-name="equalsuperior" unicode="&#x207c;" horiz-adv-x="359" 
d="M350 530h-280l8 42h280zM367 637h-279l8 42h279z" />
    <glyph glyph-name="parenleftsuperior" unicode="&#x207d;" horiz-adv-x="217" 
d="M206 335l-25 -17q-100 112 -100 224q0 69 30.5 131.5t70 103t103.5 92.5l20 -14q-64 -82 -96.5 -164t-32.5 -182q0 -91 30 -174z" />
    <glyph glyph-name="parenrightsuperior" unicode="&#x207e;" horiz-adv-x="218" 
d="M20 319l-21 15q64 82 96 163t32 181q0 95 -29 176l26 16q99 -116 99 -227q0 -95 -53 -170t-150 -154z" />
    <glyph glyph-name="parenleftinferior" unicode="&#x208d;" horiz-adv-x="201" 
d="M117 -200l-25 -17q-100 112 -100 224q0 69 30.5 131.5t70 103t103.5 92.5l20 -14q-64 -82 -96.5 -164t-32.5 -182q0 -91 30 -174z" />
    <glyph glyph-name="parenrightinferior" unicode="&#x208e;" horiz-adv-x="202" 
d="M-69 -216l-21 15q64 82 96 163t32 181q0 95 -29 176l26 16q99 -116 99 -227q0 -95 -53 -170t-150 -154z" />
    <glyph glyph-name="Euro" unicode="&#x20ac;" horiz-adv-x="564" 
d="M406 88h-28q-4 18 -4 25q0 26 16.5 43.5t44.5 17.5t42 -16.5t14 -42.5q0 -61 -56 -93.5t-128 -32.5q-101 0 -159.5 49t-67.5 147h-71l8 45h64q0 24 8 66h-54l9 45h57q30 96 102.5 152.5t172.5 56.5q72 0 113 -32t41 -80q0 -35 -17.5 -57.5t-53.5 -22.5q-25 0 -39 12
t-14 33q0 24 14 45h30q4 8 4 17q0 30 -62 30q-126 0 -164 -154h170l-8 -45h-172q-8 -33 -10 -66h156l-8 -45h-149q2 -58 31 -100.5t89 -42.5q33 0 57.5 11t21.5 35z" />
    <glyph glyph-name="afii61352" unicode="&#x2116;" horiz-adv-x="914" 
d="M465 -6h-81l-191 436h-4l-59 -368l59 -5l-9 -57h-180l10 57l53 5l68 414l-52 6l10 57h193l147 -350h4l45 287l-51 6l9 57h170l-9 -57l-53 -6zM685 183q-57 0 -86.5 30t-29.5 83q0 75 45 123.5t118 48.5q53 0 85 -28t32 -88q0 -82 -50.5 -125.5t-113.5 -43.5zM694 234
q34 0 54.5 33t20.5 87q0 61 -44 61q-39 0 -59 -36.5t-20 -82.5q0 -62 48 -62zM783 75h-231l10 66h231z" />
    <glyph glyph-name="trademark" unicode="&#x2122;" horiz-adv-x="927" 
d="M334 278h-173l-1 32l52 5v298h-7q-46 0 -63.5 -14t-26.5 -68h-30l6 117h314l5 -117h-29q-10 54 -27.5 68t-62.5 14h-7v-298l50 -5v-32zM893 278h-151v30l39 6v292h-2l-100 -328h-53l-111 329h-2v-293l36 -6v-30h-111v30l34 6v298l-33 4v32h138l90 -276h2l84 276h141v-32
l-40 -4v-298l39 -6v-30z" />
    <glyph glyph-name="Omega" unicode="&#x2126;" horiz-adv-x="842" 
d="M724 0h-310l13 80q84 80 132.5 177.5t48.5 234.5q0 159 -128 159q-61 0 -106.5 -34.5t-69.5 -90t-35 -113.5t-11 -118q0 -69 16 -115.5t48 -98.5l-13 -81h-300l25 229h48q3 -82 35 -109t122 -27h22l1 3q-140 85 -140 242q0 161 108.5 267t261.5 106q121 0 188 -65.5
t67 -178.5q0 -59 -19 -114.5t-47 -95.5t-63.5 -74t-65.5 -54t-57 -33v-3h28q89 0 131 27t70 109h48z" />
    <glyph glyph-name="onethird" unicode="&#x2153;" horiz-adv-x="900" 
d="M323 292h-228l8 48l71 6l45 261q-20 -4 -48 -2t-43 6l10 45q88 -7 137 49h59l-63 -359l61 -6zM212 -4h-65l546 708h63zM564 65q-5 -8 -5 -17q0 -20 41 -20q45 0 73 29t28 79q0 64 -50 64q-21 0 -64 -13l-5 31q62 19 96.5 46.5t34.5 72.5q0 47 -48 47q-19 0 -33.5 -7
t-14.5 -20q0 -3 2 -9h22q2 -10 2 -16q0 -21 -13.5 -34t-39.5 -13q-21 0 -32 12t-11 31q0 41 41.5 66t109.5 25q57 0 86.5 -21t29.5 -58q0 -41 -35 -66.5t-107 -45.5l-1 -4q17 4 39 4q46 0 71 -23.5t25 -63.5q0 -69 -62 -108t-142 -39q-54 0 -81 20t-27 55q0 27 16 44.5
t44 17.5q43 0 43 -37q0 -13 -7 -29h-26z" />
    <glyph glyph-name="twothirds" unicode="&#x2154;" horiz-adv-x="900" 
d="M323 292h-275l9 59l81 74q70 65 98.5 108t28.5 84q0 56 -53 56q-23 0 -35.5 -11t-8.5 -29h23q1 -5 1 -14q0 -24 -13.5 -38t-39.5 -14q-22 0 -34 12.5t-12 33.5q0 43 42.5 70.5t108.5 27.5q65 0 96 -27.5t31 -70.5q0 -29 -10.5 -52.5t-36 -48t-50.5 -42.5t-72 -50
q-4 -2 -6 -3.5t-5.5 -4t-6.5 -4.5l-58 -39v-2h95q42 0 59.5 11.5t27.5 40.5h39zM222 -4h-65l546 708h63zM576 65q-5 -8 -5 -17q0 -20 41 -20q45 0 73 29t28 79q0 64 -50 64q-21 0 -64 -13l-5 31q62 19 96.5 46.5t34.5 72.5q0 47 -48 47q-19 0 -33.5 -7t-14.5 -20q0 -3 2 -9
h22q2 -10 2 -16q0 -21 -13.5 -34t-39.5 -13q-21 0 -32 12t-11 31q0 41 41.5 66t109.5 25q57 0 86.5 -21t29.5 -58q0 -41 -35 -66.5t-107 -45.5l-1 -4q17 4 39 4q46 0 71 -23.5t25 -63.5q0 -69 -62 -108t-142 -39q-54 0 -81 20t-27 55q0 27 16 44.5t44 17.5q43 0 43 -37
q0 -13 -7 -29h-26z" />
    <glyph glyph-name="oneeighth" unicode="&#x215b;" horiz-adv-x="900" 
d="M292 292h-228l8 48l71 6l45 261q-20 -4 -48 -2t-43 6l10 45q88 -7 137 49h59l-63 -359l61 -6zM209 -4h-65l546 708h63zM636 218q-43 4 -66 27t-23 57q0 53 44 85t119 32q62 0 95 -23.5t33 -67.5t-34 -75t-89 -36v-2q50 -4 76 -27.5t26 -62.5q0 -61 -50.5 -96t-129.5 -35
q-68 0 -104 26.5t-36 75.5q0 50 38 83t101 37v2zM672 198q-32 0 -53.5 -30.5t-21.5 -74.5q0 -63 47 -63q32 0 52.5 30.5t20.5 73.5q0 64 -45 64zM704 383q-30 0 -46.5 -29t-16.5 -65q0 -53 38 -53q27 0 45 27t18 66q0 54 -38 54z" />
    <glyph glyph-name="threeeighths" unicode="&#x215c;" horiz-adv-x="900" 
d="M121 357q-5 -8 -5 -17q0 -20 41 -20q45 0 73 29t28 79q0 64 -50 64q-21 0 -64 -13l-5 31q62 19 96.5 46.5t34.5 72.5q0 47 -48 47q-19 0 -33.5 -7t-14.5 -20q0 -3 2 -9h22q2 -10 2 -16q0 -21 -13.5 -34t-39.5 -13q-21 0 -32 12t-11 31q0 41 41.5 66t109.5 25
q57 0 86.5 -21t29.5 -58q0 -41 -35 -66.5t-107 -45.5l-1 -4q17 4 39 4q46 0 71 -23.5t25 -63.5q0 -69 -62 -108t-142 -39q-54 0 -81 20t-27 55q0 27 16 44.5t44 17.5q43 0 43 -37q0 -13 -7 -29h-26zM194 -4h-65l546 708h63zM614 218q-43 4 -66 27t-23 57q0 53 44 85t119 32
q62 0 95 -23.5t33 -67.5t-34 -75t-89 -36v-2q50 -4 76 -27.5t26 -62.5q0 -61 -50.5 -96t-129.5 -35q-68 0 -104 26.5t-36 75.5q0 50 38 83t101 37v2zM650 198q-32 0 -53.5 -30.5t-21.5 -74.5q0 -63 47 -63q32 0 52.5 30.5t20.5 73.5q0 64 -45 64zM682 383q-30 0 -46.5 -29
t-16.5 -65q0 -53 38 -53q27 0 45 27t18 66q0 54 -38 54z" />
    <glyph glyph-name="fiveeighths" unicode="&#x215d;" horiz-adv-x="900" 
d="M170 357h-24q-8 -10 -8 -18q0 -21 39 -21q48 0 73.5 40t25.5 94t-47 54q-32 0 -76 -27l-24 10l59 212l14 9q58 -20 110 -20q67 0 82 44l25 -3q-5 -58 -39.5 -88t-90.5 -30q-40 0 -80 9l-31 -95q45 26 98 26t79.5 -25t26.5 -68q0 -80 -59 -127t-148 -47q-49 0 -75 20.5
t-26 50.5q0 27 16 46t46 19q41 0 41 -35q0 -16 -7 -30zM215 -4h-65l546 708h63zM641 218q-43 4 -66 27t-23 57q0 53 44 85t119 32q62 0 95 -23.5t33 -67.5t-34 -75t-89 -36v-2q50 -4 76 -27.5t26 -62.5q0 -61 -50.5 -96t-129.5 -35q-68 0 -104 26.5t-36 75.5q0 50 38 83
t101 37v2zM677 198q-32 0 -53.5 -30.5t-21.5 -74.5q0 -63 47 -63q32 0 52.5 30.5t20.5 73.5q0 64 -45 64zM709 383q-30 0 -46.5 -29t-16.5 -65q0 -53 38 -53q27 0 45 27t18 66q0 54 -38 54z" />
    <glyph glyph-name="seveneighths" unicode="&#x215e;" horiz-adv-x="900" 
d="M145 344q0 18 8.5 36t18.5 29.5t31 33.5q16 17 63 65t79 82l31 33h-125q-43 0 -57 -10t-30 -50h-37l32 142h288l-7 -45q-127 -169 -169 -242q-29 -50 -29 -84q0 -14 5 -29l-24 -20q-41 -2 -59.5 16t-18.5 43zM169 -4h-65l546 708h63zM611 218q-43 4 -66 27t-23 57
q0 53 44 85t119 32q62 0 95 -23.5t33 -67.5t-34 -75t-89 -36v-2q50 -4 76 -27.5t26 -62.5q0 -61 -50.5 -96t-129.5 -35q-68 0 -104 26.5t-36 75.5q0 50 38 83t101 37v2zM647 198q-32 0 -53.5 -30.5t-21.5 -74.5q0 -63 47 -63q32 0 52.5 30.5t20.5 73.5q0 64 -45 64zM679 383
q-30 0 -46.5 -29t-16.5 -65q0 -53 38 -53q27 0 45 27t18 66q0 54 -38 54z" />
    <glyph glyph-name="partialdiff" unicode="&#x2202;" horiz-adv-x="538" 
d="M204 45q47 0 79.5 38.5t44 81t11.5 77.5q0 101 -80 101q-44 0 -74 -35t-41.5 -79t-11.5 -92q0 -47 17 -69.5t55 -22.5zM208 571l32 -8q-5 -83 -73 -83q-24 0 -42 16t-18 44q0 37 19.5 64.5t50.5 41t61 19.5t58 6q92 0 143.5 -61.5t51.5 -184.5q0 -57 -9 -114t-31.5 -116
t-56 -104t-86 -73.5t-117.5 -28.5q-85 0 -129 43t-44 119q0 110 61.5 182.5t162.5 72.5q93 0 123 -82q17 82 17 146q0 150 -106 150q-30 0 -52.5 -11t-15.5 -38z" />
    <glyph glyph-name="Delta" unicode="&#x2206;" horiz-adv-x="618" 
d="M558 0h-592l382 716h71zM401 89l-74 452h-3l-236 -452h313z" />
    <glyph glyph-name="product" unicode="&#x220f;" horiz-adv-x="739" 
d="M620 -151h-266l10 57l70 8l116 715h-264l-116 -715l68 -8l-10 -57h-266l10 57l70 8l116 721l-68 7l10 58h658l-10 -57l-70 -7l-116 -722l68 -8z" />
    <glyph glyph-name="summation" unicode="&#x2211;" horiz-adv-x="581" 
d="M453 -151h-520l-13 34l300 370l-178 417l23 30h494l-26 -206h-51q-3 90 -34.5 117t-122.5 27h-122l138 -333l-288 -351h167q110 0 156 36.5t80 141.5h51z" />
    <glyph glyph-name="minus" unicode="&#x2212;" 
d="M522 276h-454l9 58h454z" />
    <glyph glyph-name="uni2215" unicode="&#x2215;" horiz-adv-x="200" 
d="M-140 -4h-65l546 708h63z" />
    <glyph glyph-name="uni2219" unicode="&#x2219;" horiz-adv-x="271" 
d="M113 247q-35 0 -51.5 19.5t-16.5 46.5q0 42 28 68.5t67 26.5q32 0 50.5 -16.5t18.5 -47.5q0 -43 -28 -70t-68 -27z" />
    <glyph glyph-name="radical" unicode="&#x221a;" horiz-adv-x="547" 
d="M305 0h-70l-113 367l-77 -33l-9 40l174 79l95 -343l248 642l44 -8z" />
    <glyph glyph-name="infinity" unicode="&#x221e;" horiz-adv-x="653" 
d="M296 196q-92 -78 -161 -78q-48 0 -73.5 25t-25.5 68q0 74 49.5 115.5t105.5 41.5q35 0 65 -16.5t71 -62.5q92 73 159 73q47 0 73.5 -23t26.5 -68q0 -68 -46 -110.5t-106 -42.5q-39 0 -68.5 16.5t-69.5 61.5zM354 253q29 -39 49.5 -54.5t48.5 -15.5q34 0 53 22t19 53
q0 25 -14 39t-39 14q-46 0 -117 -58zM267 231q-33 37 -55 54.5t-43 17.5q-31 0 -50.5 -22.5t-19.5 -54.5q0 -55 55 -55q41 0 113 60z" />
    <glyph glyph-name="integral" unicode="&#x222b;" horiz-adv-x="450" 
d="M255 571q0 -24 5 -64t14 -97t13 -94q2 -13 7.5 -60.5t8.5 -74t6 -67.5t3 -72q0 -81 -24 -133q-24 -53 -71 -86.5t-111 -33.5q-63 0 -98 29t-35 79q0 35 20.5 58t59.5 23q28 0 44 -16.5t16 -42.5q0 -14 -4 -26l-36 -3q-7 -18 -7 -26q0 -28 42 -28t68.5 34t26.5 92
q0 35 -4.5 76t-16.5 115t-16 105q-20 140 -20 219q0 73 20 125q50 133 188 133q63 0 98 -29t35 -79q0 -35 -20.5 -58t-58.5 -23q-28 0 -44 16.5t-16 42.5q0 13 3 26l36 3q7 14 7 26q0 28 -43 28q-96 0 -96 -117z" />
    <glyph glyph-name="approxequal" unicode="&#x2248;" horiz-adv-x="507" 
d="M441 405l32 -9q-38 -116 -108 -116q-46 0 -136 23q-72 17 -101 17q-18 0 -31.5 -9.5t-29.5 -37.5l-28 11q37 114 117 114q36 0 116 -19q70 -18 112 -18q21 0 32 9t25 35zM411 225l32 -9q-38 -116 -108 -116q-46 0 -136 23q-72 17 -101 17q-18 0 -31.5 -9.5t-29.5 -37.5
l-28 11q37 114 117 114q36 0 116 -19q70 -18 112 -18q21 0 32 9t25 35z" />
    <glyph glyph-name="notequal" unicode="&#x2260;" 
d="M509 165h-290l-122 -121l-34 35l86 86h-94l10 58h143l99 98h-226l10 58h274l103 101l35 -35l-67 -66h109l-10 -58h-158l-99 -98h241z" />
    <glyph glyph-name="lessequal" unicode="&#x2264;" 
d="M484 0h-454l9 58h454zM492 60l-419 194l13 77l484 191l-11 -65l-416 -165l361 -165z" />
    <glyph glyph-name="greaterequal" unicode="&#x2265;" 
d="M480 0h-454l9 58h454zM521 254l-485 -194l12 69l415 168l-360 160l11 65l420 -191z" />
    <glyph glyph-name="triangle" unicode="&#x25b3;" horiz-adv-x="425" 
d="M335 320l-185 -117v231z" />
    <glyph glyph-name="lozenge" unicode="&#x25ca;" 
d="M246 -12l-149 322l257 322l148 -322zM268 98l157 211l-92 210l-159 -208z" />
    <glyph glyph-name="circle" unicode="&#x25cb;" horiz-adv-x="610" 
d="M305 89q-85 0 -145 60t-60 145t60 145t145 60t145 -60t60 -145t-60 -145t-145 -60z" />
    <glyph glyph-name="ae.smcp" unicode="&#xf61f;" horiz-adv-x="833" 
d="M285 480l9 54h513l-21 -165h-51q-4 66 -29.5 86.5t-99.5 20.5h-52l-34 -186h20q42 0 63 17t38 65h41l-41 -223h-42q1 57 -14.5 72t-65.5 15h-8l-32 -177h62q87 0 119.5 26t61.5 108h51l-40 -193h-438l9 54l57 6l31 172h-163l-132 -171l65 -6l-9 -55h-196l9 55l54 6
l322 413zM412 475l-142 -185h132l34 185h-24z" />
    <glyph glyph-name="oe.smcp" unicode="&#xf621;" horiz-adv-x="826" 
d="M232 -11q-107 0 -164 53.5t-57 158.5q0 50 12 98.5t38 93t62.5 78t91 53.5t118.5 20q52 0 110 -10h357l-24 -165h-53q-2 66 -28.5 86.5t-101.5 20.5h-48l-34 -178q58 0 80.5 14t42.5 68h42l-41 -223h-45q2 59 -12 74t-65 15h-11l-34 -187h55q86 0 123 28.5t61 102.5h54
l-40 -190h-376q-59 -11 -113 -11zM252 43q57 0 99 19l74 405q-34 24 -94 24q-52 0 -91.5 -28t-61.5 -74t-33 -96.5t-11 -102.5q0 -147 118 -147z" />
    <glyph glyph-name="dotlessi.smcp" unicode="&#xf626;" horiz-adv-x="308" 
d="M206 0h-225l9 55l54 5l77 414l-52 5l10 55h224l-9 -54l-54 -5l-77 -414l52 -7z" />
    <glyph glyph-name="thorn.smcp" unicode="&#xf628;" horiz-adv-x="513" 
d="M185 166h20q67 0 105 35.5t38 92.5q0 47 -27.5 64t-77.5 17h-20zM233 435h39q207 0 207 -137q0 -67 -40.5 -111t-100 -61.5t-136.5 -17.5h-27l-10 -49l87 -6l-8 -53h-269l8 55l61 6l77 413l-59 5l11 55h248l-9 -53l-71 -5z" />
    <glyph glyph-name="kgreenlandic.smcp" unicode="&#xf62a;" horiz-adv-x="568" 
d="M504 0h-232l9 54l51 5l-95 188l-41 -12l-34 -175l50 -6l-10 -54h-218l9 54l51 6l77 415l-49 5l10 54h218l-10 -54l-50 -5l-34 -185l42 13l185 172l-52 5l10 54h171l-10 -54l-45 -5l-176 -165l135 -251l48 -5z" />
    <glyph glyph-name="germandbls.smcp" unicode="&#xf637;" horiz-adv-x="930" 
d="M32 -9h-48l26 178h55q10 -121 132 -121q44 0 76 17.5t32 60.5q0 20 -8 35t-28.5 27t-33 17.5t-43.5 16.5t-50 20.5t-41.5 26.5t-33.5 42.5t-11 59.5q0 76 56 124.5t141 48.5q41 0 78.5 -15t41.5 -15q12 0 25 24h45l-24 -160h-56q-6 55 -31.5 83t-76.5 28q-39 0 -67.5 -19
t-28.5 -54q0 -17 7.5 -31t23.5 -24t32 -17t40 -16q7 -3 11 -4q30 -11 49 -21.5t41 -28t32.5 -43t10.5 -59.5q0 -81 -59.5 -132t-144.5 -51q-52 0 -95 16.5t-46 16.5q-8 0 -14 -6.5t-15 -24.5zM497 -9h-48l26 178h55q10 -121 132 -121q44 0 76 17.5t32 60.5q0 20 -8 35
t-28.5 27t-33 17.5t-43.5 16.5t-50 20.5t-41.5 26.5t-33.5 42.5t-11 59.5q0 76 56 124.5t141 48.5q41 0 78.5 -15t41.5 -15q12 0 25 24h45l-24 -160h-56q-6 55 -31.5 83t-76.5 28q-39 0 -67.5 -19t-28.5 -54q0 -17 7.5 -31t23.5 -24t32 -17t40 -16q7 -3 11 -4
q30 -11 49 -21.5t41 -28t32.5 -43t10.5 -59.5q0 -81 -59.5 -132t-144.5 -51q-52 0 -95 16.5t-46 16.5q-14 0 -29 -31z" />
    <glyph glyph-name="exclam.smcp" unicode="&#xf63e;" horiz-adv-x="322" 
d="M149 141h-49l11 58q17 92 17 165q0 15 -2 50.5t-2 55.5q0 76 74 76q27 0 42.5 -15.5t15.5 -42.5q0 -29 -17 -69t-42 -102.5t-39 -130.5zM97 -9q-26 0 -38 14t-12 33q0 27 20 45.5t49 18.5q23 0 36.5 -11t13.5 -32q0 -29 -19.5 -48.5t-49.5 -19.5z" />
    <glyph glyph-name="question.smcp" unicode="&#xf63f;" horiz-adv-x="412" 
d="M277 246l43 -12q-11 -44 -46 -70t-92 -26q-60 0 -92 27t-32 73q0 27 10 47.5t31.5 34.5t39 22t47.5 18q25 9 33.5 12t27 11.5t25.5 15.5t14 18.5t7 25.5q0 28 -21.5 44.5t-59.5 16.5q-46 0 -64.5 -12t-8.5 -35h23q2 -7 2 -20q0 -23 -13.5 -36.5t-40.5 -13.5t-40.5 14
t-13.5 37q0 52 55 79.5t120 27.5q74 0 113 -33.5t39 -83.5q0 -53 -33 -81t-91 -48q-8 -3 -24.5 -8t-24.5 -8t-21 -8t-19.5 -9.5t-14 -11t-10.5 -14t-3 -16.5q0 -39 52 -39q60 0 83 61zM136 -9q-26 0 -38 14t-12 33q0 27 20.5 45.5t49.5 18.5q23 0 36.5 -11t13.5 -32
q0 -29 -20 -48.5t-50 -19.5z" />
    <glyph glyph-name="ordfeminine.smcp" unicode="&#xf640;" horiz-adv-x="453" 
d="M422 319l23 -22q-35 -52 -91 -52q-45 0 -61.5 25t-5.5 67l-4 1q-14 -39 -47.5 -66t-80.5 -27q-54 0 -82 32t-28 91q0 89 50 160.5t133 71.5q64 0 85 -54l13 45q66 0 98 5q-41 -170 -55 -257q-7 -39 20 -39q16 0 33 19zM191 297q31 0 56 36.5t36 79t11 76.5q0 67 -49 67
q-33 0 -56.5 -35.5t-32 -77.5t-8.5 -82q0 -64 43 -64z" />
    <glyph glyph-name="ordmasculine.smcp" unicode="&#xf641;" horiz-adv-x="424" 
d="M198 286q27 0 48 23.5t31.5 58t16 67t5.5 57.5q0 68 -52 68q-33 0 -57 -36t-33 -81t-9 -89q0 -36 11.5 -52t38.5 -16zM188 245q-144 0 -144 132q0 91 57.5 157t156.5 66q143 0 143 -133q0 -89 -57.5 -155.5t-155.5 -66.5z" />
    <glyph glyph-name="questiondown.smcp" unicode="&#xf642;" horiz-adv-x="413" 
d="M107 288l-43 12q11 44 46 70t92 26q60 0 92 -27t32 -73q0 -27 -10 -47.5t-31.5 -34.5t-39 -22t-47.5 -18q-25 -9 -33.5 -12t-27 -11.5t-25.5 -15.5t-14 -18.5t-7 -25.5q0 -28 21.5 -44.5t59.5 -16.5q46 0 64.5 12t8.5 35h-23q-2 7 -2 20q0 23 13.5 36.5t40.5 13.5
t40.5 -14t13.5 -37q0 -52 -55 -79.5t-120 -27.5q-74 0 -113 33.5t-39 83.5q0 53 33 81t91 48q8 3 24.5 8t24.5 8t21 8t19.5 9.5t14 11t10.5 14t3 16.5q0 39 -52 39q-60 0 -83 -61zM248 543q26 0 38 -14t12 -33q0 -27 -20.5 -45.5t-49.5 -18.5q-23 0 -36.5 11t-13.5 32
q0 29 20 48.5t50 19.5z" />
    <glyph glyph-name="exclamdown.smcp" unicode="&#xf643;" horiz-adv-x="318" 
d="M149 396h49l-11 -58q-17 -92 -17 -165q0 -15 2 -50.5t2 -55.5q0 -76 -74 -76q-27 0 -42.5 15.5t-15.5 42.5q0 29 17 69t42 102.5t39 130.5zM201 546q26 0 38 -14t12 -33q0 -27 -20 -45.5t-49 -18.5q-23 0 -36.5 11t-13.5 32q0 29 19.5 48.5t49.5 19.5z" />
    <glyph glyph-name="zero.tosf" unicode="&#xf81e;" 
d="M239 -11q-107 0 -163.5 57t-56.5 159q0 147 86 246t231 99q96 0 155.5 -51.5t59.5 -163.5q0 -163 -91 -254.5t-221 -91.5zM250 45q46 0 81.5 32t53.5 82t27 100t9 97q0 72 -24.5 104t-73.5 32q-45 0 -80.5 -30.5t-54.5 -79t-28.5 -99t-9.5 -98.5q0 -140 100 -140z" />
    <glyph glyph-name="one.tosf" unicode="&#xf81f;" 
d="M416 0h-329l8 56l112 11l54 333q-32 -6 -75.5 -2.5t-68.5 10.5l12 52q136 -11 209 79h68l-77 -473l96 -8z" />
    <glyph glyph-name="two.tosf" unicode="&#xf820;" 
d="M459 0h-418l10 71q99 55 164 104.5t94.5 91t39 72t9.5 65.5q0 41 -21.5 68t-69.5 27q-35 0 -61 -15t-26 -46q0 -6 2 -16h37q5 -17 5 -30q0 -31 -20 -51t-56 -20q-31 0 -48.5 20t-17.5 51q0 77 65 117.5t158 40.5q95 0 141 -42t46 -105q0 -83 -62.5 -145.5t-214.5 -139.5
l-39 -19v-4h131q66 0 94.5 23.5t48.5 80.5h46z" />
    <glyph glyph-name="three.tosf" unicode="&#xf821;" 
d="M112 -50q-8 -14 -8 -25q0 -35 71 -35q81 0 130.5 51t49.5 141q0 107 -83 107q-50 0 -112 -26l-7 51q99 34 155 79t56 121q0 41 -21 63t-61 22q-34 0 -59.5 -12.5t-25.5 -36.5q0 -9 2 -14h32q3 -13 3 -25q0 -32 -18.5 -51.5t-50.5 -19.5t-49 18t-17 46q0 67 64 106.5
t158 39.5q82 0 127 -34.5t45 -92.5q0 -69 -50 -109.5t-162 -82.5v-4q33 6 61 6q75 0 109.5 -41t34.5 -104q0 -109 -93.5 -178.5t-214.5 -69.5q-78 0 -121 29.5t-43 87.5q0 42 23 68t63 26q32 0 47 -15.5t15 -40.5q0 -23 -11 -45h-39z" />
    <glyph glyph-name="four.tosf" unicode="&#xf822;" 
d="M382 -149h-120l29 174h-285l11 71q169 171 233.5 257.5t64.5 138.5q0 26 -12 50l37 29q48 -2 77 -23t29 -59q0 -35 -19 -65.5t-74 -83.5t-185 -166l-90 -78h223l23 144l130 36l-31 -180h90l-11 -71h-90z" />
    <glyph glyph-name="five.tosf" unicode="&#xf823;" 
d="M147 -50h-37q-9 -16 -9 -25q0 -35 73 -35q77 0 125.5 64.5t48.5 165.5q0 98 -85 98q-60 0 -135 -52l-29 15l91 350l19 10q91 -31 166 -31q105 0 128 73l33 -5q-19 -179 -213 -179q-51 0 -105 16l-52 -178q69 44 149 44q84 0 125.5 -41.5t41.5 -110.5q0 -133 -91.5 -211
t-220.5 -78q-70 0 -114 30t-44 84q0 43 23 69.5t64 26.5q58 0 58 -53q0 -22 -10 -47z" />
    <glyph glyph-name="six.tosf" unicode="&#xf824;" 
d="M257 43q60 0 96 56t36 144q0 100 -74 100q-36 0 -68 -20.5t-48 -52.5q-24 -48 -24 -120q0 -107 82 -107zM462 467q-26 0 -40.5 12.5t-14.5 35.5q0 21 12 45l30 2q5 10 5 21q-1 30 -57 30q-73 0 -127 -69.5t-79 -219.5q26 34 72.5 58t99.5 24q67 0 109 -38t42 -118
q0 -117 -75 -189t-189 -72q-89 0 -139.5 54.5t-50.5 163.5q0 77 20 154.5t59 146.5t106.5 112t153.5 43q66 0 103.5 -29.5t37.5 -79.5q0 -42 -22 -64.5t-56 -22.5z" />
    <glyph glyph-name="seven.tosf" unicode="&#xf825;" 
d="M281 -109l-29 -36q-50 -4 -86 23t-36 69q0 37 24.5 87t103.5 158h-117l12 49h139q51 73 146 186h-215q-41 0 -56 -13.5t-34 -63.5l-45 3l50 197l28 7q29 -18 98 -18h287l9 -33q-87 -87 -193 -265h112l-13 -49h-127q-79 -150 -79 -221q0 -44 21 -80z" />
    <glyph glyph-name="eight.tosf" unicode="&#xf826;" 
d="M351 339l-1 -4q74 -7 116 -43t42 -98q0 -98 -74.5 -151.5t-190.5 -53.5q-99 0 -153.5 39.5t-54.5 117.5q0 79 59 130.5t156 59.5l1 3q-67 5 -103.5 39t-36.5 93q0 82 68 137t175 55q90 0 139 -37t49 -108q0 -70 -53 -120t-138 -59zM252 40q58 0 94 43.5t36 124.5
q0 99 -87 99q-58 0 -95.5 -44t-37.5 -123q0 -100 90 -100zM305 369q51 0 82 44.5t31 111.5q0 85 -73 85q-54 0 -83.5 -47.5t-29.5 -108.5q0 -42 19.5 -63.5t53.5 -21.5z" />
    <glyph glyph-name="nine.tosf" unicode="&#xf827;" 
d="M259 175q66 0 105.5 55.5t39.5 160.5t-81 105q-67 0 -101.5 -64t-34.5 -158q0 -99 72 -99zM159 -52h-33q-10 -14 -10 -26q0 -33 62 -33q75 0 129.5 78t77.5 226q-26 -36 -70 -57.5t-92 -21.5q-69 0 -114.5 42t-45.5 125q0 124 74 196.5t188 72.5q191 0 191 -227
q0 -60 -10.5 -122.5t-36 -128.5t-63 -116.5t-97 -83t-132.5 -32.5t-109.5 31.5t-36.5 81.5q0 44 23 69t59 25q29 0 44 -16t15 -39t-13 -44z" />
    <glyph glyph-name="s_t" unicode="&#xfb06;" horiz-adv-x="828" 
d="M763 107l32 -33q-59 -85 -155 -85q-63 0 -93.5 29t-30.5 77q0 36 20 144l35 198h-72l10 62h71l29 168q-8 3 -32 13t-34 13.5t-31 11t-34 10.5t-30.5 5.5t-33.5 2.5q-88 0 -88 -80q0 -78 58 -158q2 -2 9.5 -12.5t9.5 -13.5t7.5 -11.5t7 -14t3.5 -14t2 -16.5
q0 -33 -18.5 -54t-53.5 -21q-23 0 -39 11.5t-16 31.5q0 27 15 46h30q9 22 -9 33.5t-56 11.5q-45 0 -79 -20t-34 -59q0 -26 23.5 -44t56.5 -31t66.5 -28.5t57 -46t23.5 -74.5q0 -78 -63 -124t-159 -46q-81 0 -122 32t-41 82q0 37 20 59.5t54 22.5q25 0 40.5 -13.5t15.5 -35.5
q0 -25 -15 -44h-31q-10 -26 10.5 -40t69.5 -14q51 0 81 20.5t30 62.5q0 30 -22 48.5t-54 30t-64 25.5t-54 44t-22 76q0 75 60.5 119.5t143.5 44.5q30 0 42 -3q-44 72 -44 138q0 59 37 95.5t104 36.5q62 0 169 -37t161 -39l-34 -201h105l-10 -62h-104q-46 -257 -54 -309
q-9 -67 43 -67q36 0 80 46z" />
    <glyph glyph-name="Q.calt" horiz-adv-x="691" 
d="M141 -61q50 40 93 51l1 10q-199 28 -199 263q0 79 24.5 156.5t70.5 143.5t121.5 107t167.5 41q120 0 183 -69.5t63 -202.5q0 -75 -21.5 -148.5t-62.5 -137.5t-110 -106.5t-155 -48.5l-1 -6q39 -6 55.5 -28t26.5 -62q7 -35 17 -50t30 -15q19 0 31 14t23 52l44 -8
q-25 -125 -148 -125q-32 0 -53.5 8.5t-35 27.5t-20 36.5t-13.5 46.5t-15.5 39.5t-22.5 10.5q-21 0 -72 -35zM301 51q51 0 92.5 29.5t66.5 75t42 104t23.5 112t6.5 102.5q0 87 -29 131.5t-98 44.5q-62 0 -109.5 -40t-73.5 -104t-39 -133t-13 -139q0 -183 131 -183z" />
    <glyph glyph-name="f.calt" horiz-adv-x="355" 
d="M25 -24l87 461h-76l11 62h76l7 33q52 240 238 240q61 0 94 -28.5t33 -72.5q0 -36 -21.5 -59t-58.5 -23q-28 0 -43.5 15.5t-15.5 39.5q0 14 6 30l35 4q6 12 6 22q0 25 -41 25q-45 0 -68.5 -34t-34.5 -94l-18 -98h142l-12 -62h-142l-82 -439q-40 -213 -243 -210l-8 46
q61 13 89.5 47t39.5 95z" />
    <glyph glyph-name="j.calt" horiz-adv-x="292" 
d="M-88 -211l-5 48q60 7 86.5 43t40.5 115l77 439l-76 6l9 53l189 9l4 -10l-81 -465q-10 -59 -25 -99.5t-42 -74.5t-71 -49.5t-106 -14.5zM181 589q-64 0 -64 59q0 37 23.5 61.5t62.5 24.5q64 0 64 -61q0 -37 -23.5 -60.5t-62.5 -23.5z" />
    <glyph glyph-name="hyphen.case" horiz-adv-x="337" 
d="M282 296h-230l15 79h231z" />
    <glyph glyph-name="idotaccent" horiz-adv-x="298" 
d="M184 589q-65 0 -65 59q0 37 24 61.5t63 24.5q64 0 64 -61q0 -37 -23.5 -60.5t-62.5 -23.5zM240 84l27 -27q-47 -68 -123 -68q-103 0 -103 95q0 31 21 126q49 212 52 223l-77 8l8 52l193 9l4 -8q-78 -348 -83 -379q-10 -59 31 -59q25 0 50 28z" />
    <glyph glyph-name="germandbls.calt" horiz-adv-x="655" 
d="M355 92h-30q-11 -26 7 -40t65 -14q45 0 72.5 23.5t27.5 62.5q0 32 -19 52.5t-55 41.5q-61 35 -80 55q-33 34 -33 85q0 40 18.5 75.5t45 61.5t53.5 50t45.5 51t18.5 55q0 70 -95 70q-66 0 -95.5 -36.5t-41.5 -103.5l-104 -564q-21 -115 -80 -172.5t-169 -56.5l-7 46
q106 19 127 131l107 571q44 237 275 237q75 0 117.5 -30t42.5 -82q0 -30 -16 -59t-39 -51.5t-46 -44t-39 -47t-16 -50.5q0 -16 5.5 -29t22 -26t24 -18t32.5 -20q31 -18 49.5 -33t35 -44.5t16.5 -67.5q0 -80 -55 -131t-145 -51q-79 0 -118 31.5t-39 82.5q0 37 20 59.5
t55 22.5q24 0 39.5 -13.5t15.5 -35.5q0 -25 -15 -44z" />
    <glyph glyph-name="s_p" horiz-adv-x="1027" 
d="M678 -200h-293l10 57l62 7l135 804q-15 6 -45 19t-45.5 19t-40 11.5t-47.5 5.5q-88 0 -88 -81q0 -77 58 -157q2 -2 9.5 -12.5t9.5 -13.5t7.5 -11.5t7 -14t3.5 -14t2 -16.5q0 -33 -18.5 -54t-53.5 -21q-23 0 -39 11.5t-16 31.5q0 27 15 46h30q9 22 -9 33.5t-56 11.5
q-45 0 -79 -20t-34 -59q0 -26 23.5 -44t56.5 -31t66.5 -28.5t57 -46t23.5 -74.5q0 -78 -63 -124t-159 -46q-81 0 -122 32t-41 82q0 37 20 59.5t54 22.5q25 0 40.5 -13.5t15.5 -35.5q0 -25 -15 -44h-31q-10 -26 10.5 -40t69.5 -14q51 0 81 20.5t30 62.5q0 30 -22 48.5t-54 30
t-64 25.5t-54 44t-22 76q0 75 60.5 119.5t143.5 44.5q30 0 42 -3q-44 72 -44 137q0 59 37 96t104 37q62 0 159.5 -36t149.5 -38l-74 -340l5 -1q75 149 199 149q66 0 101 -47t35 -130q0 -84 -30.5 -162t-90.5 -130t-134 -52q-48 0 -80 20.5t-45 53.5l-32 -197l118 -9zM712 44
q49 0 83.5 49.5t49 116t14.5 137.5q0 46 -13 70t-47 24q-64 0 -115.5 -96.5t-51.5 -198.5t80 -102z" />
    <glyph glyph-name="c_t" horiz-adv-x="848" 
d="M783 107l32 -33q-60 -85 -156 -85q-62 0 -93 29t-31 77q0 30 21 144l35 198h-72l10 62h71l29 168q-8 3 -32 13t-34 13.5t-31 11t-34 10.5t-30.5 5.5t-33.5 2.5q-88 0 -88 -79q0 -68 61 -157q17 -24 23.5 -33.5t15 -30t8.5 -38.5q0 -42 -22 -70t-64 -28q-29 0 -45.5 14.5
t-16.5 38.5q0 28 16 53h36q7 19 7 28q0 37 -56 37q-45 0 -79.5 -26t-53.5 -68.5t-28 -88.5t-9 -93q0 -63 22 -94t70 -31q49 0 80 30.5t57 89.5l54 -18q-21 -70 -77.5 -120t-145.5 -50q-91 0 -137.5 50.5t-46.5 142.5q0 87 32.5 160t99.5 120.5t157 47.5q11 0 25 -2
q-43 79 -43 134q0 60 38 97t106 37q59 0 165.5 -37t161.5 -39l-34 -201h105l-10 -62h-104q-46 -257 -54 -309q-11 -67 43 -67q36 0 80 46z" />
    <glyph glyph-name="c_h" horiz-adv-x="1062" 
d="M998 86l28 -30q-48 -67 -125 -67q-45 0 -72 23.5t-27 67.5q0 32 10 75t29 108t27 95q8 34 8 51q0 35 -32 35q-47 0 -99 -72t-76 -150q-26 -88 -43 -219q-72 2 -129 -10l45 194l82 506q-116 35 -171 35q-107 0 -107 -90q0 -62 61 -151q17 -24 23.5 -33.5t15 -30t8.5 -38.5
q0 -42 -22 -70t-64 -28q-29 0 -45.5 14.5t-16.5 38.5q0 28 16 53h36q7 19 7 28q0 37 -56 37q-45 0 -79.5 -26t-53.5 -68.5t-28 -88.5t-9 -93q0 -63 22 -94t70 -31q49 0 80 30.5t57 89.5l54 -18q-21 -70 -77.5 -120t-145.5 -50q-91 0 -137.5 50.5t-46.5 142.5q0 87 32.5 160
t99.5 120.5t157 47.5q11 0 25 -2q-43 76 -43 128q0 67 46.5 105t120.5 38q51 0 148.5 -23.5t142.5 -24.5l-86 -409l6 -3q91 191 220 191q50 0 76.5 -28t26.5 -80q0 -31 -11 -73q-49 -185 -54 -206q-4 -24 -4 -32q0 -34 31 -34q22 0 49 29z" />
    <glyph glyph-name="c_k" horiz-adv-x="1022" 
d="M964 89l29 -28q-20 -29 -54 -50.5t-75 -21.5q-51 0 -77.5 23t-26.5 63q0 18 6 39l16 57q3 12 3 22q0 41 -49 41q-39 0 -83 -23l-35 -207q-71 0 -121 -13l50 222l77 480q-116 35 -171 35q-107 0 -107 -90q0 -60 61 -151q3 -4 11 -16t11.5 -17t9 -15.5t8.5 -17.5t5 -17
t2 -19q0 -42 -22 -70t-64 -28q-29 0 -45.5 14.5t-16.5 38.5q0 28 16 53h36q7 19 7 28q0 37 -56 37q-45 0 -79.5 -26t-53.5 -68.5t-28 -88.5t-9 -93q0 -63 22 -94t70 -31q49 0 80 30.5t57 89.5l54 -18q-21 -70 -77.5 -120t-145.5 -50q-91 0 -137.5 50.5t-46.5 142.5
q0 87 32.5 160t99.5 120.5t157 47.5q11 0 25 -2q-43 76 -43 128q0 67 46.5 105t120.5 38q51 0 148.5 -23.5t142.5 -24.5l-83 -459l87 50q36 20 50.5 29t32 21.5t22 22.5t3.5 21l-38 14q-4 35 16.5 61t60.5 26q33 0 51 -20t18 -48q0 -55 -65 -92q-136 -74 -153 -82l3 -5
q29 5 60 5q89 -3 89 -76q0 -15 -5 -37l-14 -52q-4 -18 -4 -23q0 -31 34 -31q26 0 55 33z" />
    <glyph glyph-name="T_h" horiz-adv-x="1110" 
d="M948 -11q-45 0 -71.5 23.5t-26.5 67.5q0 32 10 75t29 108t27 95q7 28 7 50q0 36 -32 36q-47 0 -99 -72.5t-75 -149.5q-28 -93 -44 -219q-71 2 -128 -10l45 194l72 449h-217l-97 -571l89 -7l-9 -58h-310l10 58l91 7l98 571h-9q-82 0 -118 -28t-70 -127h-56l47 219h482
l191 12l4 -10l-82 -380l6 -3q91 191 220 191q50 0 76.5 -28t26.5 -80q0 -31 -11 -73q-49 -185 -54 -206q-4 -16 -4 -32q0 -34 31 -34q22 0 48 29l29 -30q-48 -67 -126 -67z" />
    <glyph glyph-name="hyphensuperior" horiz-adv-x="216" 
d="M224 573h-148l11 59h147z" />
    <glyph glyph-name="commasuperior" horiz-adv-x="147" 
d="M48 301l-17 24q75 51 75 84q0 13 -10 16l-27 -24q-30 11 -30 41q0 26 18.5 41.5t47.5 15.5q28 0 42 -16.5t14 -43.5q0 -71 -113 -138z" />
    <glyph glyph-name="periodsuperior" horiz-adv-x="144" 
d="M89 394q-48 0 -48 44q0 29 19.5 47t47.5 18q22 0 35.5 -11t13.5 -32q0 -29 -19.5 -47.5t-48.5 -18.5z" />
    <glyph glyph-name="a.sup" horiz-adv-x="445" 
d="M463 467l23 -22q-35 -52 -91 -52q-71 0 -71 61q0 16 4 31l-4 1q-14 -39 -47.5 -66t-80.5 -27q-54 0 -82 32t-28 91q0 89 50 160.5t133 71.5q64 0 85 -54l13 45q66 0 98 5q-41 -170 -55 -257q-6 -39 20 -39q16 0 33 19zM232 445q31 0 56 36.5t36 79t11 76.5q0 67 -49 67
q-33 0 -56.5 -35.5t-32 -77.5t-8.5 -82q0 -64 43 -64z" />
    <glyph glyph-name="b.sup" horiz-adv-x="428" 
d="M209 655l4 -3q50 96 138 96q49 0 75.5 -33.5t26.5 -92.5q0 -95 -58 -162t-153 -67q-140 0 -140 123q0 40 18 128l38 192l-52 6l8 43l150 6l3 -6zM253 436q34 0 58 35t32.5 77t8.5 84q0 32 -9 48t-32 16q-43 0 -76 -68t-33 -131q0 -61 51 -61z" />
    <glyph glyph-name="c.sup" horiz-adv-x="375" 
d="M344 521l45 -14q-16 -47 -56.5 -80.5t-106.5 -33.5q-69 0 -104 34.5t-35 97.5q0 94 57.5 158.5t156.5 64.5q57 0 85.5 -24.5t28.5 -62.5q0 -30 -17.5 -50.5t-49.5 -20.5q-22 0 -34.5 11t-12.5 28q0 19 12 37h26q4 9 4 19q0 22 -36 22q-40 0 -67 -32t-37 -71.5t-10 -80.5
q0 -40 13.5 -58.5t45.5 -18.5t53 19.5t39 55.5z" />
    <glyph glyph-name="d.sup" horiz-adv-x="446" 
d="M463 467l24 -23q-33 -51 -93 -51q-69 0 -69 60q0 16 4 31l-4 1q-15 -40 -48.5 -66t-78.5 -26q-55 0 -83.5 32.5t-28.5 91.5q0 90 49.5 160.5t133.5 70.5q64 0 84 -51l27 139l-55 6l8 44l152 4l2 -6l-76 -394q-4 -21 0 -31.5t19 -10.5q16 0 33 19zM230 445q33 0 58 37
t35.5 80t10.5 77q0 65 -49 65q-33 0 -56 -34.5t-32 -76.5t-9 -84q0 -64 42 -64z" />
    <glyph glyph-name="e.sup" horiz-adv-x="376" 
d="M350 524l43 -15q-18 -55 -62.5 -85.5t-105.5 -30.5q-67 0 -102.5 34.5t-35.5 98.5q0 89 58.5 155.5t152.5 66.5q52 0 80.5 -21.5t28.5 -61.5q0 -115 -215 -124q-3 -88 65 -88q33 0 54 17t39 54zM198 586q56 6 88 22.5t32 59.5q0 40 -35 40q-30 0 -53.5 -33.5t-31.5 -88.5
z" />
    <glyph glyph-name="f.sup" horiz-adv-x="300" 
d="M104 434l45 236h-55l10 51h54l8 32q17 67 59 109t113 42q38 0 70.5 -17t32.5 -56q0 -26 -17 -43t-46 -17q-45 0 -45 39q0 14 5 24l27 3q4 8 4 15q0 17 -29 17q-19 0 -32.5 -9.5t-22.5 -32t-13 -37t-10 -45.5l-5 -24h104l-10 -51h-102l-44 -231q-15 -77 -57 -118t-123 -45
l-4 38q37 8 52.5 33t30.5 87z" />
    <glyph glyph-name="g.sup" horiz-adv-x="431" 
d="M176 338l-35 -6q-6 -14 3 -21t30 -7q30 0 53.5 11.5t39.5 33.5t26 42.5t19 49.5q10 30 20 70l-4 2q-39 -94 -124 -94q-55 0 -85.5 31.5t-30.5 89.5q0 85 47.5 146.5t128.5 61.5q68 0 91 -54l12 45q67 0 98 5q-12 -51 -35.5 -161t-28.5 -131q-20 -92 -78 -138.5
t-146 -46.5q-50 0 -80.5 18.5t-30.5 54.5q0 28 17.5 45.5t44.5 17.5q25 0 39.5 -16.5t8.5 -48.5zM235 472q33 0 57 30t33 66.5t9 72.5q0 63 -49 63t-72 -51t-23 -111q0 -70 45 -70z" />
    <glyph glyph-name="h.sup" horiz-adv-x="447" 
d="M460 464l21 -25q-37 -46 -99 -46q-33 0 -54.5 16t-21.5 49q0 17 5 40.5t10 41.5t15.5 51.5t15.5 49.5q6 18 6 31q0 21 -21 21q-30 0 -63 -44.5t-50 -97.5q-20 -67 -31 -149q-17 1 -55.5 -1.5t-53.5 -5.5l32 132l55 309l-53 6l8 43l150 6l3 -7l-63 -259l4 -2
q61 125 158 125q75 0 75 -74q0 -21 -8 -50q-35 -126 -39 -149q-4 -28 20 -28q14 0 34 17z" />
    <glyph glyph-name="i.sup" horiz-adv-x="246" 
d="M210 789q-52 0 -52 46q0 30 20 48.5t52 18.5q53 0 53 -47q0 -29 -20.5 -47.5t-52.5 -18.5zM261 466l20 -25q-38 -48 -98 -48q-77 0 -77 69q0 15 8.5 53t24.5 100t18 72l-55 6l7 43l155 6l3 -6q-43 -166 -48 -190q-14 -61 -14 -76q0 -21 21 -21q15 0 35 17z" />
    <glyph glyph-name="j.sup" horiz-adv-x="234" 
d="M31 267l-6 41q37 10 51.5 36t24.5 81l49 263l-55 4l8 44l151 6l2 -6l-53 -294q-14 -77 -53.5 -123t-118.5 -52zM206 789q-53 0 -53 46q0 30 20.5 48.5t52.5 18.5q52 0 52 -47q0 -29 -20 -47.5t-52 -18.5z" />
    <glyph glyph-name="k.sup" horiz-adv-x="426" 
d="M433 470l25 -23q-39 -54 -98 -54q-40 0 -60 17t-20 46q0 12 3 24l10 36q2 10 2 14q0 25 -32 25q-25 0 -49 -12l-25 -140q-63 0 -103 -9l36 151l50 292l-53 5l7 43l151 5l3 -5l-59 -293l54 27q46 23 62.5 34.5t15.5 25.5l-28 11q-2 27 13.5 45.5t46.5 18.5q26 0 40 -14.5
t14 -35.5q0 -41 -52 -66q-81 -38 -110 -51l2 -3q23 3 41 3q70 0 70 -53q0 -12 -3 -24l-8 -27q-9 -34 19 -34q14 0 35 21z" />
    <glyph glyph-name="l.sup" horiz-adv-x="247" 
d="M259 468l23 -26q-39 -49 -99 -49q-35 0 -56.5 17.5t-21.5 53.5q0 28 27 147q8 37 25.5 112.5t25.5 112.5l-54 5l8 44l151 6l3 -6q-78 -355 -85 -396q-7 -38 20 -38q15 0 33 17z" />
    <glyph glyph-name="m.sup" horiz-adv-x="634" 
d="M646 464l21 -25q-35 -46 -98 -46q-34 0 -55.5 16t-21.5 49q0 16 5 40t10.5 42.5t16 51t15.5 49.5q5 20 5 30q0 22 -21 22q-26 0 -52 -36t-45 -88q-27 -71 -40 -167q-30 1 -102 -6q40 149 63 246q6 24 3.5 37.5t-17.5 13.5q-29 0 -60 -44t-47 -98q-23 -72 -32 -149
q-60 3 -108 -7l32 132l24 160l-53 7l8 43l147 6l3 -7l-30 -113l4 -2q62 127 152 127q60 0 60 -56q0 -26 -14 -61l5 -1q30 62 62.5 90t76.5 28q37 0 56.5 -20t19.5 -56q0 -24 -7 -48q-7 -26 -20.5 -73t-19.5 -69q-8 -35 20 -35q16 0 34 17z" />
    <glyph glyph-name="n.sup" horiz-adv-x="448" 
d="M463 462l20 -21q-39 -48 -98 -48q-33 0 -54.5 16t-21.5 49q0 17 5 41t10 40.5t16.5 53t15.5 48.5q5 22 5 31q0 22 -20 22q-32 0 -64 -44t-49 -99q-21 -65 -32 -149q-59 3 -108 -7l32 132l24 161l-53 6l8 43l150 6l3 -7l-32 -115l4 -2q63 129 158 129q76 0 76 -74
q0 -24 -11 -62q-37 -110 -39 -137q-3 -30 22 -30q14 0 33 17z" />
    <glyph glyph-name="o.sup" horiz-adv-x="417" 
d="M240 434q27 0 48 23.5t31.5 58t16 67t5.5 57.5q0 68 -52 68q-33 0 -57 -36t-33 -81t-9 -89q0 -36 11.5 -52t38.5 -16zM230 393q-144 0 -144 132q0 91 57.5 157t156.5 66q143 0 143 -133q0 -89 -57.5 -155.5t-155.5 -66.5z" />
    <glyph glyph-name="p.sup" horiz-adv-x="450" 
d="M256 274h-225l9 48l44 5l66 361l-57 6l9 44l146 5l3 -7l-22 -90l3 -1q54 103 142 103q49 0 76 -32.5t27 -89.5q0 -95 -54 -164t-133 -69q-72 0 -89 52l-21 -116l85 -7zM275 435q47 0 73 65.5t26 141.5q0 56 -37 56q-42 0 -77 -65.5t-35 -137.5q0 -60 50 -60z" />
    <glyph glyph-name="q.sup" horiz-adv-x="432" 
d="M436 274h-220l8 48l69 6l37 156h-5q-17 -39 -49 -65t-78 -26q-55 0 -83.5 31.5t-28.5 90.5q0 97 51 165t132 68q67 0 94 -58l50 51h49l-77 -413l59 -6zM230 446q32 0 57.5 36.5t36.5 80.5t11 81q0 60 -47 60q-46 0 -72 -61.5t-26 -131.5q0 -34 8.5 -49.5t31.5 -15.5z" />
    <glyph glyph-name="r.sup" horiz-adv-x="384" 
d="M87 395l35 145l23 147l-54 8l7 43l144 5l3 -7l-31 -130l4 -2q29 66 63 105t83 39q29 0 49 -15.5t20 -46.5q0 -30 -18 -46t-47 -16q-16 0 -31 4l-2 45q-11 0 -17 -2q-43 -10 -76.5 -88t-45.5 -180q-42 2 -109 -8z" />
    <glyph glyph-name="s.sup" horiz-adv-x="353" 
d="M166 460h-23q-8 -15 7 -23t48 -8q76 0 76 53q0 15 -11 26.5t-22.5 16.5t-35.5 13q-21 7 -32.5 12.5t-26.5 16.5t-22 27t-7 38q0 53 46 84.5t111 31.5q51 0 83 -18.5t32 -53.5q0 -24 -14 -38.5t-40 -14.5q-18 0 -30 8t-12 22q0 18 11 32h22q6 14 -7.5 20.5t-40.5 6.5
q-33 0 -55 -12t-22 -37q0 -14 11 -24.5t23 -16t36 -13.5q23 -9 35.5 -14.5t29.5 -17t24.5 -27.5t7.5 -38q0 -57 -48.5 -88t-121.5 -31q-60 0 -90.5 21t-30.5 56q0 26 15.5 41.5t41.5 15.5q19 0 30.5 -10t11.5 -27q0 -16 -10 -30z" />
    <glyph glyph-name="t.sup" horiz-adv-x="292" 
d="M302 485l27 -30q-47 -62 -123 -62q-95 0 -95 83q0 17 12 83l25 131h-52l9 51h51l16 85l72 13h36l-18 -98h76l-9 -51h-75l-30 -165q-5 -28 -5 -37q0 -32 29 -32q25 0 54 29z" />
    <glyph glyph-name="u.sup" horiz-adv-x="458" 
d="M471 467l24 -22q-35 -52 -92 -52q-75 0 -75 61q0 15 6 38l6 20l-4 2q-27 -54 -61.5 -87.5t-88.5 -33.5q-80 0 -80 78q0 15 3 32q31 143 41 185l-51 7l8 43l148 5l4 -6q-38 -138 -56 -238q-3 -13 -3 -25q0 -26 25 -26q30 0 59.5 42t48.5 100q21 66 32 148q73 0 108 7
q-40 -172 -55 -261q-3 -19 1 -27.5t20 -8.5q15 0 32 19z" />
    <glyph glyph-name="v.sup" horiz-adv-x="416" 
d="M370 666l-21 -27q-18 5 -29.5 18.5t-11.5 31.5q0 26 18 42.5t47 16.5q37 0 57 -24t20 -63q0 -38 -14 -82.5t-40.5 -87t-72 -70.5t-100.5 -28q-104 0 -104 87q0 25 7 60q3 15 7 33t9.5 41t8.5 37q9 39 -11 39q-16 0 -38 -29l-30 21q40 66 113 66q33 0 51.5 -18.5
t18.5 -50.5q0 -16 -2 -24l-29 -143q-4 -22 -4 -32q0 -37 39 -37q49 0 91.5 66.5t42.5 124.5q0 32 -23 32z" />
    <glyph glyph-name="w.sup" horiz-adv-x="619" 
d="M573 666l-22 -28q-18 5 -30 20t-12 33q0 24 17.5 40.5t47.5 16.5q38 0 58 -24t20 -63t-14.5 -84t-41 -87t-70.5 -69.5t-96 -27.5q-82 0 -105 49q-51 -49 -116 -49q-92 0 -92 85q0 15 5 40l30 137q8 35 -11 35q-17 0 -39 -29l-30 21q44 66 116 66q31 0 49.5 -19t18.5 -49
q0 -12 -3 -24l-32 -145q-3 -18 -3 -30q0 -32 30 -32q39 0 70 47q35 133 55 241q47 -2 100 8q-50 -194 -57 -259q-2 -21 8 -31.5t35 -10.5q50 0 93 66t43 124q0 32 -22 32z" />
    <glyph glyph-name="x.sup" horiz-adv-x="469" 
d="M449 483l32 -19q-33 -71 -100 -71q-36 0 -57.5 15.5t-35.5 51.5l-21 54l-43 -61q-42 -60 -88 -60q-24 0 -41.5 13t-17.5 39q0 28 22.5 42t52.5 7l5 -36q18 -7 44 29l48 70l-42 103q-7 19 -12 25t-14 6q-14 0 -34 -31l-33 17q40 71 105 71q35 0 52 -16.5t30 -52.5l21 -57
l38 58q16 24 24.5 35t27 22t41.5 11q25 0 43.5 -13.5t18.5 -41.5q0 -24 -16 -37.5t-40 -13.5q-13 0 -19 2l-5 37q-11 6 -21 -1t-27 -31l-48 -66l41 -98q8 -19 14.5 -27t17.5 -8q16 0 37 33z" />
    <glyph glyph-name="y.sup" horiz-adv-x="422" 
d="M129 331l-33 -4q-3 -6 -3 -11q0 -20 27 -20q34 0 63 22.5t66 69.5q-56 203 -71 253q-7 22 -12.5 29.5t-14.5 7.5q-16 0 -35 -41l-35 15q16 44 40 67.5t66 23.5q59 0 80 -74q23 -81 51 -192q83 119 83 164q0 23 -20 26l-20 -25q-34 11 -34 50q0 24 18 40t46 16
q34 0 52 -20.5t18 -54.5q0 -63 -111 -228q-66 -97 -116.5 -142.5t-118.5 -45.5q-45 0 -70 21t-25 57q0 28 17 45.5t45 17.5q26 0 40.5 -17.5t6.5 -49.5z" />
    <glyph glyph-name="z.sup" horiz-adv-x="403" 
d="M395 546l34 -5q-33 -148 -117 -148q-34 0 -74 23l-66 38q-18 -61 -61 -61q-19 0 -28.5 10.5t-9.5 25.5q0 21 21.5 35.5t55.5 19.5l159 159q-88 10 -122 10q-21 0 -30.5 -9.5t-20.5 -37.5l-34 7q20 76 46 105.5t66 29.5q34 0 77 -27l59 -35q8 32 26 47t38 15q16 0 26 -9
t10 -23q0 -21 -19 -38.5t-58 -24.5q-11 -11 -68.5 -70t-85.5 -87q108 -4 118 -4q22 0 33 10t25 44z" />
    <glyph glyph-name="zeroinferior" horiz-adv-x="386" 
d="M121 -141q-136 0 -136 150q0 48 12 94.5t36 88t66.5 67t96.5 25.5q137 0 137 -152q0 -45 -12 -90.5t-35.5 -87.5t-66.5 -68.5t-98 -26.5zM129 -99q48 0 77 81.5t29 177.5q0 46 -11 64.5t-35 18.5q-46 0 -76.5 -86.5t-30.5 -179.5q0 -42 11 -59t36 -17z" />
    <glyph glyph-name="oneinferior" horiz-adv-x="286" 
d="M201 -135h-228l8 48l71 6l45 261q-20 -4 -48 -2t-43 6l10 45q88 -7 137 49h59l-63 -359l61 -6z" />
    <glyph glyph-name="twoinferior" horiz-adv-x="330" 
d="M232 -135h-275l9 59l81 74q70 65 98.5 108t28.5 84q0 56 -53 56q-23 0 -35.5 -11t-8.5 -29h23q1 -5 1 -14q0 -24 -13.5 -38t-39.5 -14q-22 0 -34 12.5t-12 33.5q0 43 42.5 70.5t108.5 27.5q65 0 96 -27.5t31 -70.5q0 -29 -10.5 -52.5t-36 -48t-50.5 -42.5t-72 -50
l-18 -12l-58 -39v-2h95q42 0 59.5 11.5t27.5 40.5h39z" />
    <glyph glyph-name="threeinferior" horiz-adv-x="341" 
d="M30 -70q-5 -8 -5 -17q0 -20 41 -20q45 0 73 29t28 79q0 64 -50 64q-21 0 -64 -13l-5 31q62 19 96.5 46.5t34.5 72.5q0 47 -48 47q-19 0 -33.5 -7t-14.5 -20q0 -3 2 -9h22q2 -10 2 -16q0 -21 -13.5 -34t-39.5 -13q-21 0 -32 12t-11 31q0 41 41.5 66t109.5 25
q57 0 86.5 -21t29.5 -58q0 -41 -35 -66.5t-107 -45.5l-1 -4q17 4 39 4q46 0 71 -23.5t25 -63.5q0 -69 -62 -108t-142 -39q-54 0 -81 20t-27 55q0 27 16 44.5t44 17.5q43 0 43 -37q0 -13 -7 -29h-26z" />
    <glyph glyph-name="fourinferior" horiz-adv-x="363" 
d="M42 -135l9 49l70 5l11 60h-172l10 58l216 241h93l-42 -241h30l11 37h38l-22 -129h-37l2 34h-33l-11 -60l47 -5l-8 -49h-212zM19 37h123l30 167h-3z" />
    <glyph glyph-name="fiveinferior" horiz-adv-x="329" 
d="M49 -70h-24q-8 -10 -8 -18q0 -21 39 -21q48 0 73.5 40t25.5 94t-47 54q-32 0 -76 -27l-24 10l59 212l14 9q58 -20 110 -20q67 0 82 44l25 -3q-5 -58 -39.5 -88t-90.5 -30q-40 0 -80 9l-31 -95q45 26 98 26t79.5 -25t26.5 -68q0 -80 -59 -127t-148 -47q-49 0 -75 20.5
t-26 50.5q0 27 16 46t46 19q41 0 41 -35q0 -16 -7 -30z" />
    <glyph glyph-name="sixinferior" horiz-adv-x="352" 
d="M119 -102q37 0 56.5 39t19.5 93q0 47 -39 47q-40 0 -60 -38.5t-20 -84.5q0 -56 43 -56zM222 219h22q3 9 3 13q0 17 -31 17q-42 0 -74.5 -44.5t-49.5 -125.5q15 18 42.5 31t58.5 13q45 0 72 -23t27 -72q0 -78 -51.5 -123.5t-127.5 -45.5q-127 0 -127 139q0 47 14 96
t40.5 92t71.5 70.5t101 27.5q44 0 70.5 -18t26.5 -52q0 -26 -14.5 -42.5t-39.5 -16.5q-42 0 -42 34q0 17 8 30z" />
    <glyph glyph-name="seveninferior" horiz-adv-x="321" 
d="M14 -83q0 18 8.5 36t18.5 29.5t31 33.5q16 17 63 65t79 82l31 33h-125q-43 0 -57 -10t-30 -50h-37l32 142h288l-7 -45q-127 -169 -169 -242q-29 -50 -29 -84q0 -14 5 -29l-24 -20q-41 -2 -59.5 16t-18.5 43z" />
    <glyph glyph-name="eightinferior" horiz-adv-x="354" 
d="M110 83q-43 4 -66 27t-23 57q0 53 44 85t119 32q62 0 95 -23.5t33 -67.5t-34 -75t-89 -36v-2q50 -4 76 -27.5t26 -62.5q0 -61 -50.5 -96t-129.5 -35q-68 0 -104 26.5t-36 75.5q0 50 38 83t101 37v2zM146 63q-32 0 -53.5 -30.5t-21.5 -74.5q0 -63 47 -63q32 0 52.5 30.5
t20.5 73.5q0 64 -45 64zM178 248q-30 0 -46.5 -29t-16.5 -65q0 -53 38 -53q27 0 45 27t18 66q0 54 -38 54z" />
    <glyph glyph-name="nineinferior" horiz-adv-x="355" 
d="M68 -74h-27q-4 -7 -4 -14q0 -18 32 -18q45 0 78.5 43t48.5 128q-34 -45 -98 -45q-43 0 -73 25t-30 77q0 78 49 120t125 42q132 0 132 -149q0 -44 -12.5 -89.5t-37.5 -88.5t-71.5 -70.5t-106.5 -27.5q-51 0 -75 19.5t-24 51.5q0 26 15.5 41.5t42.5 15.5q19 0 30 -10.5
t11 -27.5q0 -10 -5 -23zM166 245q-37 0 -56.5 -39t-19.5 -88q0 -54 40 -54q41 0 61 36.5t20 84.5q0 60 -45 60z" />
    <glyph glyph-name="hypheninferior" horiz-adv-x="214" 
d="M135 38h-148l11 59h147z" />
    <glyph glyph-name="commainferior" horiz-adv-x="140" 
d="M-41 -234l-17 24q75 51 75 84q0 13 -10 16l-27 -24q-30 11 -30 41q0 26 18.5 41.5t47.5 15.5q28 0 42 -16.5t14 -43.5q0 -71 -113 -138z" />
    <glyph glyph-name="periodinferior" horiz-adv-x="136" 
d="M0 -141q-48 0 -48 44q0 29 19.5 47t47.5 18q22 0 35.5 -11t13.5 -32q0 -29 -19.5 -47.5t-48.5 -18.5z" />
    <glyph glyph-name="minusinferior" horiz-adv-x="334" 
d="M268 49h-279l6 42h280z" />
    <glyph glyph-name="plusinferior" horiz-adv-x="348" 
d="M279 49h-123l-21 -119h-49l21 119h-114l7 42h115l20 112h49l-20 -112h122z" />
    <glyph glyph-name="equalinferior" horiz-adv-x="348" 
d="M261 -5h-280l8 42h280zM278 102h-279l8 42h279z" />
    <glyph glyph-name="a.sinf" horiz-adv-x="445" 
d="M358 -68l23 -22q-35 -52 -91 -52q-71 0 -71 61q0 16 4 31l-4 1q-14 -39 -47.5 -66t-80.5 -27q-54 0 -82 32t-28 91q0 89 50 160.5t133 71.5q64 0 85 -54l13 45q66 0 98 5q-41 -170 -55 -257q-7 -39 20 -39q16 0 33 19zM127 -90q31 0 56 36.5t36 79t11 76.5q0 67 -49 67
q-33 0 -56.5 -35.5t-32 -77.5t-8.5 -82q0 -64 43 -64z" />
    <glyph glyph-name="b.sinf" horiz-adv-x="428" 
d="M104 120l4 -3q50 96 138 96q49 0 75.5 -33.5t26.5 -92.5q0 -95 -58 -162t-153 -67q-140 0 -140 123q0 40 18 128l38 192l-52 6l8 43l150 6l3 -6zM148 -99q34 0 58 35t32.5 77t8.5 84q0 32 -9 48t-32 16q-43 0 -76 -68t-33 -131q0 -61 51 -61z" />
    <glyph glyph-name="c.sinf" horiz-adv-x="375" 
d="M239 -14l45 -14q-16 -47 -56.5 -80.5t-106.5 -33.5q-69 0 -104 34.5t-35 97.5q0 94 57.5 158.5t156.5 64.5q57 0 85.5 -24.5t28.5 -62.5q0 -30 -17.5 -50.5t-49.5 -20.5q-22 0 -34.5 11t-12.5 28q0 19 12 37h26q4 9 4 19q0 22 -36 22q-40 0 -67 -32t-37 -71.5t-10 -80.5
q0 -40 13.5 -58.5t45.5 -18.5t53 19.5t39 55.5z" />
    <glyph glyph-name="d.sinf" horiz-adv-x="446" 
d="M358 -68l24 -23q-33 -51 -93 -51q-69 0 -69 60q0 16 4 31l-4 1q-15 -40 -48.5 -66t-78.5 -26q-55 0 -83.5 32.5t-28.5 91.5q0 90 49.5 160.5t133.5 70.5q64 0 84 -51l27 139l-55 6l8 44l152 4l2 -6l-76 -394q-8 -42 19 -42q16 0 33 19zM125 -90q33 0 58 37t35.5 80
t10.5 77q0 65 -49 65q-33 0 -56 -34.5t-32 -76.5t-9 -84q0 -64 42 -64z" />
    <glyph glyph-name="e.sinf" horiz-adv-x="376" 
d="M245 -11l43 -15q-18 -55 -62.5 -85.5t-105.5 -30.5q-67 0 -102.5 34.5t-35.5 98.5q0 89 58.5 155.5t152.5 66.5q52 0 80.5 -21.5t28.5 -61.5q0 -115 -215 -124q-3 -88 65 -88q33 0 54 17t39 54zM93 51q56 6 88 22.5t32 59.5q0 40 -35 40q-30 0 -53.5 -33.5t-31.5 -88.5z
" />
    </font>
</defs>
</svg>
